<?xml version="1.0" encoding="iso-8859-1"?>
<!-- Generator: Adobe Illustrator 16.0.0, SVG Export Plug-In . SVG Version: 6.00 Build 0)  -->
<!DOCTYPE svg PUBLIC "-//W3C//DTD SVG 1.1//EN" "http://www.w3.org/Graphics/SVG/1.1/DTD/svg11.dtd">
<svg version="1.1" id="Capa_1" xmlns="http://www.w3.org/2000/svg" xmlns:xlink="http://www.w3.org/1999/xlink" x="0px" y="0px"
	 width="96.992px" height="96.992px" viewBox="0 0 96.992 96.992" style="enable-background:new 0 0 96.992 96.992;"
	 xml:space="preserve">
<g>
	<g>
		<path d="M49.729,51.841c-3.969-3.19-7.328-6.182-9.644-8.323c-0.796,3.415-1.903,7.845-2.783,11.313
			c3.633-1.308,7.836-2.239,12.523-2.778l-0.272-0.203L49.729,51.841z"/>
		<path d="M82.297,17.002L66.028,0.732C65.559,0.263,64.924,0,64.26,0H16.463c-1.381,0-2.5,1.119-2.5,2.5v91.992
			c0,1.381,1.119,2.5,2.5,2.5h64.066c1.381,0,2.5-1.119,2.5-2.5V18.769C83.029,18.105,82.766,17.471,82.297,17.002z M72.225,58.195
			l-0.037,0.209c-0.692,2.734-2.553,4.285-5.108,4.285c-1.618,0-3.013-0.656-3.276-0.788l-0.134-0.074
			c-2.819-1.765-5.716-3.741-8.628-5.89c-5.365,0.281-12.941,1.224-19.069,4.091l-0.335,1.295c-1.996,7.349-5.909,8.142-7.499,8.142
			c-0.362,0-0.621-0.043-0.707-0.064l-0.223-0.06c-1.054-0.383-1.795-1.079-2.186-2.028c-0.786-1.922,0.203-4.176,0.409-4.608
			l0.324-0.494c1.715-1.963,3.911-3.69,6.529-5.137c1.199-4.67,3.259-12.795,4.171-17.018c-1.057-1.039-1.679-1.686-1.811-1.823
			c-2.498-2.774-3.429-5.226-2.8-7.318c0.596-1.99,2.438-2.959,3.433-3.218c1.58-0.43,3.264,0.009,4.31,1.157
			c1.483,1.631,2.015,4.779,1.581,9.357c-0.01,0.107-0.025,0.23-0.046,0.371c2.865,2.731,8.485,7.877,15.265,12.987
			c1.028-0.035,2.062-0.053,3.074-0.053c3.396,0,5.669,0.188,6.09,0.226c0.047,0,3.573,0.103,5.529,2.397
			C72.021,55.247,72.417,56.648,72.225,58.195z M62.051,22.342c-0.337,0-0.658-0.133-0.896-0.371
			c-0.237-0.238-0.372-0.561-0.372-0.897l0.002-15.126L77.18,22.343L62.051,22.342L62.051,22.342z"/>
	</g>
</g>
<g>
</g>
<g>
</g>
<g>
</g>
<g>
</g>
<g>
</g>
<g>
</g>
<g>
</g>
<g>
</g>
<g>
</g>
<g>
</g>
<g>
</g>
<g>
</g>
<g>
</g>
<g>
</g>
<g>
</g>
</svg>
