<?xml version="1.0" encoding="iso-8859-1"?>
<!-- Generator: Adobe Illustrator 16.0.0, SVG Export Plug-In . SVG Version: 6.00 Build 0)  -->
<!DOCTYPE svg PUBLIC "-//W3C//DTD SVG 1.1//EN" "http://www.w3.org/Graphics/SVG/1.1/DTD/svg11.dtd">
<svg version="1.1" id="Capa_1" xmlns="http://www.w3.org/2000/svg" xmlns:xlink="http://www.w3.org/1999/xlink" x="0px" y="0px"
	 width="94.277px" height="94.277px" viewBox="0 0 94.277 94.277" style="enable-background:new 0 0 94.277 94.277;"
	 xml:space="preserve">
<g>
	<path d="M68.875,40.339c8.048-8.43,30.512-33.077,24.332-39.261C92.492,0.363,91.503,0,90.27,0c-6.116,0-19.667,9.484-36.325,25.41
		L15.782,12.252c-0.787-0.269-1.682-0.062-2.27,0.526L1.869,24.421c-0.503,0.501-0.733,1.218-0.617,1.926
		c0.12,0.699,0.572,1.301,1.206,1.609l33.48,16.352c-6.8,7.625-12.998,15.122-17.677,21.375l-8.285-5.717
		c-0.853-0.586-2.068-0.477-2.805,0.258l-6.523,6.522c-0.853,0.856-0.853,2.25,0.002,3.11l9.09,9.091
		c-0.973,2.14-1.662,4.511-0.289,5.884c0.352,0.354,0.997,0.771,2.069,0.771c0.977,0,2.23-0.35,3.813-1.063l9.096,9.095
		c0.416,0.414,0.968,0.643,1.554,0.643c0.587,0,1.139-0.229,1.556-0.645l6.523-6.522c0.748-0.75,0.855-1.929,0.253-2.804
		l-5.716-8.285c6.251-4.676,13.747-10.873,21.377-17.676l16.352,33.479c0.311,0.636,0.914,1.087,1.621,1.208
		c0.119,0.02,0.235,0.027,0.354,0.027c0.581,0,1.149-0.234,1.56-0.646L81.505,80.77c0.59-0.588,0.796-1.479,0.525-2.271
		L68.875,40.339z"/>
</g>
<g>
</g>
<g>
</g>
<g>
</g>
<g>
</g>
<g>
</g>
<g>
</g>
<g>
</g>
<g>
</g>
<g>
</g>
<g>
</g>
<g>
</g>
<g>
</g>
<g>
</g>
<g>
</g>
<g>
</g>
</svg>
