<?xml version="1.0" encoding="iso-8859-1"?>
<!-- Generator: Adobe Illustrator 16.0.0, SVG Export Plug-In . SVG Version: 6.00 Build 0)  -->
<!DOCTYPE svg PUBLIC "-//W3C//DTD SVG 1.1//EN" "http://www.w3.org/Graphics/SVG/1.1/DTD/svg11.dtd">
<svg version="1.1" id="Capa_1" xmlns="http://www.w3.org/2000/svg" xmlns:xlink="http://www.w3.org/1999/xlink" x="0px" y="0px"
	 width="98.591px" height="98.591px" viewBox="0 0 98.591 98.591" style="enable-background:new 0 0 98.591 98.591;"
	 xml:space="preserve">
<g>
	<path d="M96.987,47.514c-0.564-0.251-13.958-6.141-27.92-6.162v-1.811l-0.813-0.154c-2.708-0.516-6.206-0.766-10.691-0.766
		c-0.315,0-0.632,0.002-0.949,0.004L46.587,4.003c4.091-0.337,4.854-0.897,4.854-1.884c0-0.74,0-2.119-11.148-2.119
		S29.146,1.379,29.146,2.119c0,0.975,0.978,1.341,2.293,1.569v36.681c-0.862,0.062-2.121,0.126-3.35,0.189
		c-1.669,0.086-3.268,0.168-4.268,0.256l-4.967-9.955c-0.27-0.761-1.001-1.284-1.814-1.284H2.389c-0.6,0-1.154,0.271-1.522,0.747
		c-0.361,0.469-0.488,1.089-0.338,1.66L5.97,45.658c-1.928,1.108-2.869,2.296-2.869,3.612c0,1.318,0.94,2.506,2.868,3.614
		L0.567,66.441l-0.04,0.119c-0.15,0.578-0.027,1.184,0.341,1.662c0.368,0.473,0.922,0.744,1.52,0.744h14.65
		c0.813,0,1.544-0.523,1.814-1.283l4.967-9.957c1.006,0.09,2.618,0.172,4.3,0.26c1.216,0.062,2.461,0.127,3.317,0.188v36.729
		c-1.315,0.229-2.293,0.597-2.293,1.569c0,0.74,0,2.119,11.148,2.119s11.148-1.379,11.148-2.119c0-0.86-0.373-1.512-4.869-1.883
		l10.04-34.673c0.317,0.003,0.634,0.004,0.949,0.004c4.482,0,7.98-0.251,10.691-0.768l0.813-0.153v-1.81
		c13.962-0.021,27.355-5.912,27.923-6.164c0.69-0.312,1.138-1,1.138-1.756C98.125,48.513,97.682,47.826,96.987,47.514z"/>
</g>
<g>
</g>
<g>
</g>
<g>
</g>
<g>
</g>
<g>
</g>
<g>
</g>
<g>
</g>
<g>
</g>
<g>
</g>
<g>
</g>
<g>
</g>
<g>
</g>
<g>
</g>
<g>
</g>
<g>
</g>
</svg>
