<?xml version="1.0" encoding="iso-8859-1"?>
<!-- Generator: Adobe Illustrator 16.0.0, SVG Export Plug-In . SVG Version: 6.00 Build 0)  -->
<!DOCTYPE svg PUBLIC "-//W3C//DTD SVG 1.1//EN" "http://www.w3.org/Graphics/SVG/1.1/DTD/svg11.dtd">
<svg version="1.1" id="Capa_1" xmlns="http://www.w3.org/2000/svg" xmlns:xlink="http://www.w3.org/1999/xlink" x="0px" y="0px"
	 width="98.1px" height="98.1px" viewBox="0 0 98.1 98.1" style="enable-background:new 0 0 98.1 98.1;" xml:space="preserve">
<g>
	<path d="M88.507,81.926l-3.92-20.506c-0.133-0.691-0.623-1.26-1.287-1.49s-1.401-0.09-1.935,0.37l-17.55,12.896
		c-0.533,0.459-0.779,1.168-0.646,1.86c0.131,0.69,0.622,1.259,1.286,1.49l3.19,1.251c-3.251,2.672-7.256,4.602-11.641,5.604V39.457
		h8.555c1.087,0,1.969-0.882,1.969-1.969v-9.623c0-1.087-0.881-1.969-1.969-1.969h-8.555V25.47
		c4.132-2.448,6.738-6.942,6.738-11.777C62.742,6.142,56.6,0,49.049,0C41.5,0,35.356,6.142,35.356,13.693
		c0,4.835,2.607,9.33,6.739,11.777v0.426h-8.555c-1.087,0-1.969,0.882-1.969,1.969v9.623c0,1.087,0.881,1.969,1.969,1.969h8.555
		v43.941c-4.385-1-8.39-2.931-11.641-5.603l3.19-1.251c0.665-0.23,1.155-0.799,1.287-1.49c0.132-0.691-0.114-1.4-0.647-1.859
		L16.733,60.3c-0.532-0.459-1.27-0.601-1.934-0.37s-1.154,0.799-1.287,1.49l-3.92,20.506c-0.132,0.691,0.114,1.4,0.646,1.859
		c0.533,0.461,1.269,0.6,1.934,0.371l3.816-1.328C23.603,92.417,35.845,98.1,49.049,98.1c13.205,0,25.447-5.684,33.06-15.271
		l3.816,1.328c0.666,0.229,1.4,0.09,1.934-0.371C88.392,83.326,88.639,82.617,88.507,81.926z M49.049,18.77
		c-2.8,0-5.077-2.278-5.077-5.077c0-2.799,2.277-5.078,5.077-5.078c2.8,0,5.078,2.278,5.078,5.077
		C54.127,16.491,51.85,18.77,49.049,18.77z"/>
</g>
<g>
</g>
<g>
</g>
<g>
</g>
<g>
</g>
<g>
</g>
<g>
</g>
<g>
</g>
<g>
</g>
<g>
</g>
<g>
</g>
<g>
</g>
<g>
</g>
<g>
</g>
<g>
</g>
<g>
</g>
</svg>
