<?xml version="1.0" encoding="iso-8859-1"?>
<!-- Generator: Adobe Illustrator 16.0.0, SVG Export Plug-In . SVG Version: 6.00 Build 0)  -->
<!DOCTYPE svg PUBLIC "-//W3C//DTD SVG 1.1//EN" "http://www.w3.org/Graphics/SVG/1.1/DTD/svg11.dtd">
<svg version="1.1" id="Capa_1" xmlns="http://www.w3.org/2000/svg" xmlns:xlink="http://www.w3.org/1999/xlink" x="0px" y="0px"
	 width="94px" height="94px" viewBox="0 0 94 94" style="enable-background:new 0 0 94 94;" xml:space="preserve">
<g>
	<g>
		<path d="M84.656,31.167H9.344c-1.104,0-2,0.896-2,2v57c0,1.104,0.896,2,2,2h75.313c1.104,0,2-0.896,2-2v-57
			C86.656,32.063,85.762,31.167,84.656,31.167z M59.834,52.5c0,0.829-0.672,1.5-1.5,1.5H35.666c-0.828,0-1.5-0.671-1.5-1.5V46
			c0-0.829,0.672-1.5,1.5-1.5h22.668c0.828,0,1.5,0.671,1.5,1.5V52.5z"/>
		<path d="M92,1.833H2c-1.104,0-2,0.896-2,2v19c0,1.104,0.896,2,2,2h90c1.104,0,2-0.896,2-2v-19C94,2.729,93.104,1.833,92,1.833z"/>
	</g>
</g>
<g>
</g>
<g>
</g>
<g>
</g>
<g>
</g>
<g>
</g>
<g>
</g>
<g>
</g>
<g>
</g>
<g>
</g>
<g>
</g>
<g>
</g>
<g>
</g>
<g>
</g>
<g>
</g>
<g>
</g>
</svg>
