<?xml version="1.0" encoding="iso-8859-1"?>
<!-- Generator: Adobe Illustrator 16.0.0, SVG Export Plug-In . SVG Version: 6.00 Build 0)  -->
<!DOCTYPE svg PUBLIC "-//W3C//DTD SVG 1.1//EN" "http://www.w3.org/Graphics/SVG/1.1/DTD/svg11.dtd">
<svg version="1.1" id="Capa_1" xmlns="http://www.w3.org/2000/svg" xmlns:xlink="http://www.w3.org/1999/xlink" x="0px" y="0px"
	 width="96.092px" height="96.091px" viewBox="0 0 96.092 96.091" style="enable-background:new 0 0 96.092 96.091;"
	 xml:space="preserve">
<g>
	<path d="M94.092,11.65H82.259c-1.104,0-2,0.896-2,2v42.188H36.36v-10.77c0-0.715-0.381-1.375-1-1.732s-1.382-0.355-2,0L1,62.023
		c-0.619,0.357-1,1.018-1,1.732c0,0.713,0.381,1.375,1,1.731l32.36,18.687c0.309,0.18,0.655,0.269,1,0.269
		c0.345,0,0.69-0.089,1-0.269c0.619-0.356,1-1.018,1-1.731V71.671h57.732c1.104,0,2-0.896,2-2V13.65
		C96.092,12.546,95.197,11.65,94.092,11.65z"/>
</g>
<g>
</g>
<g>
</g>
<g>
</g>
<g>
</g>
<g>
</g>
<g>
</g>
<g>
</g>
<g>
</g>
<g>
</g>
<g>
</g>
<g>
</g>
<g>
</g>
<g>
</g>
<g>
</g>
<g>
</g>
</svg>
