<?xml version="1.0" encoding="iso-8859-1"?>
<!-- Generator: Adobe Illustrator 16.0.0, SVG Export Plug-In . SVG Version: 6.00 Build 0)  -->
<!DOCTYPE svg PUBLIC "-//W3C//DTD SVG 1.1//EN" "http://www.w3.org/Graphics/SVG/1.1/DTD/svg11.dtd">
<svg version="1.1" id="Capa_1" xmlns="http://www.w3.org/2000/svg" xmlns:xlink="http://www.w3.org/1999/xlink" x="0px" y="0px"
	 width="95.314px" height="95.314px" viewBox="0 0 95.314 95.314" style="enable-background:new 0 0 95.314 95.314;"
	 xml:space="preserve">
<g>
	<path d="M91.764,31.805C91.764,14.268,77.496,0,59.96,0C42.423,0,28.156,14.268,28.156,31.805l-0.023,34.397L14.93,52.901
		c-0.343-0.343-0.809-0.536-1.294-0.536c-0.486,0-0.951,0.193-1.294,0.536l-8.265,8.267c-0.714,0.715-0.714,1.873,0,2.588
		l31.021,31.021c0.715,0.717,1.874,0.717,2.588,0l31.021-31.021c0.344-0.343,0.537-0.809,0.537-1.293s-0.193-0.951-0.537-1.295
		l-8.266-8.267c-0.686-0.687-1.902-0.687-2.588,0l-13.25,13.302l0.025-34.397c0-8.453,6.878-15.33,15.33-15.33
		c8.453,0,15.33,6.877,15.33,15.33l-0.008,29.756c0,1.02,0.828,1.849,1.85,1.849h12.793c1.021,0,1.85-0.829,1.85-1.849
		L91.764,31.805z"/>
</g>
<g>
</g>
<g>
</g>
<g>
</g>
<g>
</g>
<g>
</g>
<g>
</g>
<g>
</g>
<g>
</g>
<g>
</g>
<g>
</g>
<g>
</g>
<g>
</g>
<g>
</g>
<g>
</g>
<g>
</g>
</svg>
