<?xml version="1.0" encoding="iso-8859-1"?>
<!-- Generator: Adobe Illustrator 16.0.0, SVG Export Plug-In . SVG Version: 6.00 Build 0)  -->
<!DOCTYPE svg PUBLIC "-//W3C//DTD SVG 1.1//EN" "http://www.w3.org/Graphics/SVG/1.1/DTD/svg11.dtd">
<svg version="1.1" id="Capa_1" xmlns="http://www.w3.org/2000/svg" xmlns:xlink="http://www.w3.org/1999/xlink" x="0px" y="0px"
	 width="92.794px" height="92.794px" viewBox="0 0 92.794 92.794" style="enable-background:new 0 0 92.794 92.794;"
	 xml:space="preserve">
<g>
	<path d="M91.794,44.666L52.098,21.742c-0.618-0.357-1.382-0.357-2,0c-0.619,0.357-1,1.018-1,1.732v9.599h-0.001
		c-0.279,0.036-28.081,3.903-47.528,30.505l-1.21,1.735c-0.538,0.771-0.465,1.813,0.174,2.504c0.64,0.688,1.674,0.841,2.484,0.361
		l1.813-1.071c0.346-0.206,1.097-0.63,1.141-0.656c10.484-6.259,20.815-9.433,30.706-9.433c7.402,0,11.849,1.86,12.419,2.107
		l0.002,10.193c0,0.714,0.381,1.375,1,1.732c0.31,0.179,0.654,0.268,1,0.268c0.345,0,0.69-0.089,1-0.268L91.794,48.13
		c0.619-0.357,1-1.019,1-1.732S92.414,45.023,91.794,44.666z"/>
</g>
<g>
</g>
<g>
</g>
<g>
</g>
<g>
</g>
<g>
</g>
<g>
</g>
<g>
</g>
<g>
</g>
<g>
</g>
<g>
</g>
<g>
</g>
<g>
</g>
<g>
</g>
<g>
</g>
<g>
</g>
</svg>
