<?xml version="1.0" encoding="iso-8859-1"?>
<!-- Generator: Adobe Illustrator 16.0.0, SVG Export Plug-In . SVG Version: 6.00 Build 0)  -->
<!DOCTYPE svg PUBLIC "-//W3C//DTD SVG 1.1//EN" "http://www.w3.org/Graphics/SVG/1.1/DTD/svg11.dtd">
<svg version="1.1" id="Capa_1" xmlns="http://www.w3.org/2000/svg" xmlns:xlink="http://www.w3.org/1999/xlink" x="0px" y="0px"
	 width="92.266px" height="92.266px" viewBox="0 0 92.266 92.266" style="enable-background:new 0 0 92.266 92.266;"
	 xml:space="preserve">
<g>
	<path d="M87.816,49.57c-0.356-0.619-1.018-1-1.731-1h-10.12V2c0-1.104-0.896-2-2-2H21.633c-0.646,0-1.252,0.312-1.627,0.836
		L4.555,22.438c-0.436,0.609-0.494,1.411-0.152,2.078c0.344,0.666,1.029,1.085,1.779,1.085h44.181v22.97H40.24
		c-0.715,0-1.375,0.381-1.732,1c-0.355,0.619-0.355,1.381,0,2l22.924,39.695c0.356,0.619,1.018,1,1.731,1
		c0.715,0,1.375-0.381,1.732-1l22.92-39.695C88.174,50.951,88.174,50.189,87.816,49.57z"/>
</g>
<g>
</g>
<g>
</g>
<g>
</g>
<g>
</g>
<g>
</g>
<g>
</g>
<g>
</g>
<g>
</g>
<g>
</g>
<g>
</g>
<g>
</g>
<g>
</g>
<g>
</g>
<g>
</g>
<g>
</g>
</svg>
