<?xml version="1.0" encoding="iso-8859-1"?>
<!-- Generator: Adobe Illustrator 16.0.0, SVG Export Plug-In . SVG Version: 6.00 Build 0)  -->
<!DOCTYPE svg PUBLIC "-//W3C//DTD SVG 1.1//EN" "http://www.w3.org/Graphics/SVG/1.1/DTD/svg11.dtd">
<svg version="1.1" id="Capa_1" xmlns="http://www.w3.org/2000/svg" xmlns:xlink="http://www.w3.org/1999/xlink" x="0px" y="0px"
	 width="93.932px" height="93.932px" viewBox="0 0 93.932 93.932" style="enable-background:new 0 0 93.932 93.932;"
	 xml:space="preserve">
<g>
	<g>
		<path d="M93.495,61.558L68.737,30.52c-0.76-0.952-2.367-0.952-3.127,0L40.853,61.558c-0.479,0.601-0.572,1.423-0.238,2.115
			c0.333,0.692,1.033,1.132,1.802,1.132h49.517c0.769,0,1.469-0.439,1.802-1.132S93.975,62.158,93.495,61.558z"/>
		<path d="M53.319,30.259c-0.333-0.692-1.033-1.132-1.802-1.132H2c-0.769,0-1.469,0.44-1.802,1.132
			c-0.334,0.692-0.241,1.514,0.238,2.115l24.758,31.038c0.38,0.476,0.955,0.753,1.563,0.753s1.184-0.277,1.563-0.753l24.758-31.038
			C53.56,31.773,53.653,30.951,53.319,30.259z"/>
	</g>
</g>
<g>
</g>
<g>
</g>
<g>
</g>
<g>
</g>
<g>
</g>
<g>
</g>
<g>
</g>
<g>
</g>
<g>
</g>
<g>
</g>
<g>
</g>
<g>
</g>
<g>
</g>
<g>
</g>
<g>
</g>
</svg>
