<?xml version="1.0" encoding="iso-8859-1"?>
<!-- Generator: Adobe Illustrator 16.0.0, SVG Export Plug-In . SVG Version: 6.00 Build 0)  -->
<!DOCTYPE svg PUBLIC "-//W3C//DTD SVG 1.1//EN" "http://www.w3.org/Graphics/SVG/1.1/DTD/svg11.dtd">
<svg version="1.1" id="Capa_1" xmlns="http://www.w3.org/2000/svg" xmlns:xlink="http://www.w3.org/1999/xlink" x="0px" y="0px"
	 width="98.148px" height="98.149px" viewBox="0 0 98.148 98.149" style="enable-background:new 0 0 98.148 98.149;"
	 xml:space="preserve">
<g>
	<path d="M19.143,42.809c10.711-13.518,25.166-24.058,41.799-30.48l0.398-0.154L60.07,5c-0.132-0.729,0.14-1.476,0.709-1.953
		c0.566-0.479,1.348-0.616,2.046-0.362L96.78,15.019c0.697,0.254,1.207,0.859,1.337,1.591c0.129,0.73-0.142,1.476-0.709,1.953
		L69.755,41.807c-0.567,0.477-1.348,0.617-2.046,0.362c-0.698-0.254-1.208-0.86-1.337-1.591l-1.182-6.674l-0.609,0.273
		C39.554,45.402,23.079,68.179,21.583,93.624c-0.064,1.099-0.973,1.956-2.073,1.957L2.079,95.588l0,0
		c-0.57,0-1.115-0.233-1.508-0.646c-0.394-0.414-0.599-0.971-0.568-1.54C0.964,75.139,7.76,57.172,19.143,42.809z"/>
</g>
<g>
</g>
<g>
</g>
<g>
</g>
<g>
</g>
<g>
</g>
<g>
</g>
<g>
</g>
<g>
</g>
<g>
</g>
<g>
</g>
<g>
</g>
<g>
</g>
<g>
</g>
<g>
</g>
<g>
</g>
</svg>
