<?xml version="1.0" encoding="iso-8859-1"?>
<!-- Generator: Adobe Illustrator 16.0.0, SVG Export Plug-In . SVG Version: 6.00 Build 0)  -->
<!DOCTYPE svg PUBLIC "-//W3C//DTD SVG 1.1//EN" "http://www.w3.org/Graphics/SVG/1.1/DTD/svg11.dtd">
<svg version="1.1" id="Capa_1" xmlns="http://www.w3.org/2000/svg" xmlns:xlink="http://www.w3.org/1999/xlink" x="0px" y="0px"
	 width="99.55px" height="99.55px" viewBox="0 0 99.55 99.55" style="enable-background:new 0 0 99.55 99.55;" xml:space="preserve"
	>
<g>
	<path d="M90.544,17.948c-4.233,0-7.785,2.941-8.742,6.887l-9.384,1.209c-1.596-2.538-4.411-4.233-7.622-4.233
		c-4.966,0-9.006,4.04-9.006,9.006c0,2.4,0.95,4.579,2.487,6.195L49.893,55.87c-0.04,0-0.078-0.006-0.118-0.006
		c-1.516,0-2.943,0.38-4.197,1.044l-5.18-5.001c0.363-0.977,0.572-2.028,0.572-3.13c0-4.965-4.04-9.005-9.006-9.005
		c-4.965,0-9.005,4.04-9.005,9.005c0,1.302,0.283,2.534,0.781,3.651L12.468,64.283c-1.066-0.446-2.235-0.694-3.462-0.694
		C4.04,63.589,0,67.63,0,72.595c0,4.967,4.04,9.007,9.006,9.007c4.965,0,9.005-4.04,9.005-9.007c0-1.385-0.324-2.693-0.886-3.867
		L28.287,56.99c1.124,0.507,2.366,0.794,3.677,0.794c1.508,0,2.929-0.377,4.179-1.035l5.19,5.014
		c-0.358,0.972-0.564,2.016-0.564,3.109c0,4.965,4.04,9.006,9.006,9.006c4.965,0,9.006-4.041,9.006-9.006
		c0-2.613-1.125-4.962-2.907-6.607l8.214-18.478c0.234,0.019,0.469,0.036,0.708,0.036c4.433,0,8.119-3.224,8.86-7.447l8.961-1.153
		c1.521,2.818,4.505,4.738,7.927,4.738c4.966,0,9.006-4.04,9.006-9.005C99.549,21.988,95.509,17.948,90.544,17.948z M9.006,77.601
		C6.246,77.601,4,75.354,4,72.595s2.246-5.006,5.006-5.006c2.76,0,5.005,2.246,5.005,5.006S11.766,77.601,9.006,77.601z
		 M26.96,48.777c0-2.76,2.245-5.005,5.005-5.005c2.76,0,5.006,2.245,5.006,5.005c0,2.761-2.246,5.006-5.006,5.006
		C29.205,53.783,26.96,51.538,26.96,48.777z M49.775,69.876c-2.76,0-5.006-2.246-5.006-5.006s2.246-5.006,5.006-5.006
		c2.76,0,5.006,2.246,5.006,5.006S52.535,69.876,49.775,69.876z M64.796,35.821c-2.76,0-5.006-2.245-5.006-5.005
		s2.246-5.006,5.006-5.006c2.761,0,5.005,2.246,5.005,5.006S67.555,35.821,64.796,35.821z M90.544,31.959
		c-2.761,0-5.005-2.245-5.005-5.005c0-2.76,2.244-5.006,5.005-5.006c2.76,0,5.006,2.246,5.006,5.006
		C95.55,29.714,93.303,31.959,90.544,31.959z"/>
</g>
<g>
</g>
<g>
</g>
<g>
</g>
<g>
</g>
<g>
</g>
<g>
</g>
<g>
</g>
<g>
</g>
<g>
</g>
<g>
</g>
<g>
</g>
<g>
</g>
<g>
</g>
<g>
</g>
<g>
</g>
</svg>
