<?xml version="1.0" encoding="iso-8859-1"?>
<!-- Generator: Adobe Illustrator 16.0.0, SVG Export Plug-In . SVG Version: 6.00 Build 0)  -->
<!DOCTYPE svg PUBLIC "-//W3C//DTD SVG 1.1//EN" "http://www.w3.org/Graphics/SVG/1.1/DTD/svg11.dtd">
<svg version="1.1" id="Capa_1" xmlns="http://www.w3.org/2000/svg" xmlns:xlink="http://www.w3.org/1999/xlink" x="0px" y="0px"
	 width="98.666px" height="98.666px" viewBox="0 0 98.666 98.666" style="enable-background:new 0 0 98.666 98.666;"
	 xml:space="preserve">
<g>
	<g>
		<path d="M14.395,42.357c0.158,0.604,0.626,1.08,1.229,1.246c0.153,0.041,0.309,0.062,0.464,0.062c0.454,0,0.897-0.177,1.229-0.504
			l11.149-10.998c0.445-0.439,0.622-1.083,0.464-1.688c-0.158-0.605-0.626-1.08-1.229-1.246L26.14,28.8
			c4.002-4.794,10.006-7.688,16.308-7.806c0.954-0.018,1.717-0.797,1.717-1.75v-6.956c0-0.468-0.188-0.916-0.521-1.245
			s-0.798-0.48-1.252-0.504c-11.136,0.153-21.166,5.864-26.968,15.314l-2.826-0.777c-0.603-0.165-1.248,0.004-1.693,0.441
			c-0.445,0.439-0.622,1.083-0.464,1.688L14.395,42.357z"/>
		<path d="M96.561,0h-46.56c-1.104,0-2,0.896-2,2v46.106H2.105c-1.104,0-2,0.896-2,2v46.561c0,1.104,0.896,2,2,2h73.703
			c0.007,0,0.014,0,0.02,0c1.104,0,2-0.896,2-2c0-0.098-0.007-0.191-0.02-0.284l-0.001-18.681h18.754c1.104,0,2-0.896,2-2V2
			C98.561,0.896,97.666,0,96.561,0z M9.042,89.729V57.043h59.827v32.686H9.042z M75.807,48.106h-18.87V8.937h32.686v59.827H77.807
			V50.105C77.807,49.002,76.912,48.106,75.807,48.106z"/>
	</g>
</g>
<g>
</g>
<g>
</g>
<g>
</g>
<g>
</g>
<g>
</g>
<g>
</g>
<g>
</g>
<g>
</g>
<g>
</g>
<g>
</g>
<g>
</g>
<g>
</g>
<g>
</g>
<g>
</g>
<g>
</g>
</svg>
