<?xml version="1.0" encoding="iso-8859-1"?>
<!-- Generator: Adobe Illustrator 16.0.0, SVG Export Plug-In . SVG Version: 6.00 Build 0)  -->
<!DOCTYPE svg PUBLIC "-//W3C//DTD SVG 1.1//EN" "http://www.w3.org/Graphics/SVG/1.1/DTD/svg11.dtd">
<svg version="1.1" id="Capa_1" xmlns="http://www.w3.org/2000/svg" xmlns:xlink="http://www.w3.org/1999/xlink" x="0px" y="0px"
	 width="92px" height="92px" viewBox="0 0 92 92" style="enable-background:new 0 0 92 92;" xml:space="preserve">
<g>
	<path d="M90,0H2C0.896,0,0,0.896,0,2v88c0,1.104,0.896,2,2,2h88c1.104,0,2-0.896,2-2V2C92,0.896,91.104,0,90,0z M62.35,76.338
		c0,0.512-0.385,0.971-0.979,1.166c-0.591,0.197-1.271,0.088-1.724-0.273L21.613,46.893c-0.309-0.246-0.465-0.569-0.465-0.893
		s0.156-0.646,0.465-0.892L59.646,14.77c0.453-0.362,1.133-0.47,1.724-0.273c0.595,0.194,0.979,0.654,0.979,1.166V76.338z"/>
</g>
<g>
</g>
<g>
</g>
<g>
</g>
<g>
</g>
<g>
</g>
<g>
</g>
<g>
</g>
<g>
</g>
<g>
</g>
<g>
</g>
<g>
</g>
<g>
</g>
<g>
</g>
<g>
</g>
<g>
</g>
</svg>
