<?xml version="1.0" encoding="iso-8859-1"?>
<!-- Generator: Adobe Illustrator 16.0.0, SVG Export Plug-In . SVG Version: 6.00 Build 0)  -->
<!DOCTYPE svg PUBLIC "-//W3C//DTD SVG 1.1//EN" "http://www.w3.org/Graphics/SVG/1.1/DTD/svg11.dtd">
<svg version="1.1" id="Capa_1" xmlns="http://www.w3.org/2000/svg" xmlns:xlink="http://www.w3.org/1999/xlink" x="0px" y="0px"
	 width="98.047px" height="98.047px" viewBox="0 0 98.047 98.047" style="enable-background:new 0 0 98.047 98.047;"
	 xml:space="preserve">
<g>
	<g>
		<path d="M22.651,55.316H4.523c-1.104,0-2,0.896-2,2v38.729c0,1.104,0.896,2,2,2h18.128c1.104,0,2-0.896,2-2V57.316
			C24.651,56.212,23.756,55.316,22.651,55.316z"/>
		<path d="M58.086,27.658H39.96c-1.104,0-2,0.896-2,2v66.389c0,1.104,0.896,2,2,2h18.127c1.104,0,2-0.896,2-2V29.658
			C60.086,28.553,59.191,27.658,58.086,27.658z"/>
		<path d="M93.523,0H75.396c-1.104,0-2,0.896-2,2v94.047c0,1.104,0.896,2,2,2h18.128c1.104,0,2-0.896,2-2V2
			C95.523,0.895,94.627,0,93.523,0z"/>
	</g>
</g>
<g>
</g>
<g>
</g>
<g>
</g>
<g>
</g>
<g>
</g>
<g>
</g>
<g>
</g>
<g>
</g>
<g>
</g>
<g>
</g>
<g>
</g>
<g>
</g>
<g>
</g>
<g>
</g>
<g>
</g>
</svg>
