<?xml version="1.0" encoding="iso-8859-1"?>
<!-- Generator: Adobe Illustrator 16.0.0, SVG Export Plug-In . SVG Version: 6.00 Build 0)  -->
<!DOCTYPE svg PUBLIC "-//W3C//DTD SVG 1.1//EN" "http://www.w3.org/Graphics/SVG/1.1/DTD/svg11.dtd">
<svg version="1.1" id="Capa_1" xmlns="http://www.w3.org/2000/svg" xmlns:xlink="http://www.w3.org/1999/xlink" x="0px" y="0px"
	 width="97.437px" height="97.438px" viewBox="0 0 97.437 97.438" style="enable-background:new 0 0 97.437 97.438;"
	 xml:space="preserve">
<g>
	<path d="M81.749,45.052c0-19.767-12.559-36.072-28.802-38.515V4.228C52.947,1.893,51.054,0,48.719,0
		c-2.335,0-4.228,1.893-4.228,4.228v2.309C28.248,8.979,15.689,25.285,15.689,45.052c0,19.87-19.711,36.253,21.892,38.563
		c-0.174,0.787-0.265,1.599-0.265,2.42c0,6.287,5.115,11.402,11.403,11.402c6.289,0,11.403-5.115,11.403-11.402
		c0-0.821-0.091-1.633-0.265-2.42C101.46,81.305,81.749,64.922,81.749,45.052z"/>
</g>
<g>
</g>
<g>
</g>
<g>
</g>
<g>
</g>
<g>
</g>
<g>
</g>
<g>
</g>
<g>
</g>
<g>
</g>
<g>
</g>
<g>
</g>
<g>
</g>
<g>
</g>
<g>
</g>
<g>
</g>
</svg>
