<?xml version="1.0" encoding="iso-8859-1"?>
<!-- Generator: Adobe Illustrator 16.0.0, SVG Export Plug-In . SVG Version: 6.00 Build 0)  -->
<!DOCTYPE svg PUBLIC "-//W3C//DTD SVG 1.1//EN" "http://www.w3.org/Graphics/SVG/1.1/DTD/svg11.dtd">
<svg version="1.1" id="Capa_1" xmlns="http://www.w3.org/2000/svg" xmlns:xlink="http://www.w3.org/1999/xlink" x="0px" y="0px"
	 width="96.916px" height="96.916px" viewBox="0 0 96.916 96.916" style="enable-background:new 0 0 96.916 96.916;"
	 xml:space="preserve">
<g>
	<path d="M96.884,26.89l-1.268-6.931c-0.174-0.951-1.002-1.641-1.967-1.641c-0.004,0-0.006,0-0.01,0
		c-0.97,0.004-1.795,0.703-1.961,1.658L80.271,85.696l-58.135,0.002c-1.393,0-2.682-0.576-3.633-1.621
		c-1.09-1.201-1.697-2.992-1.551-4.527c0.426-3.699,3.1-6.385,6.354-6.385h48.516c0.975,0,1.809-0.703,1.971-1.666L85.151,4.351
		c0.098-0.581-0.064-1.175-0.445-1.625c-0.379-0.45-0.938-0.709-1.526-0.709H34.702c-11.059,0-21.855,8.994-24.068,20.042
		L0.276,72.776c-0.932,5.938,0.514,11.52,4.072,15.721c3.494,4.125,8.617,6.397,14.426,6.397l0.926-0.003
		c0.018,0,0.035,0.001,0.055,0.001c3.094,0.003,62.265,0.007,62.882,0.007c2.239,0,4.147-1.604,4.543-3.857l9.713-63.492
		C96.928,27.332,96.923,27.107,96.884,26.89z"/>
</g>
<g>
</g>
<g>
</g>
<g>
</g>
<g>
</g>
<g>
</g>
<g>
</g>
<g>
</g>
<g>
</g>
<g>
</g>
<g>
</g>
<g>
</g>
<g>
</g>
<g>
</g>
<g>
</g>
<g>
</g>
</svg>
