<?xml version="1.0" encoding="iso-8859-1"?>
<!-- Generator: Adobe Illustrator 16.0.0, SVG Export Plug-In . SVG Version: 6.00 Build 0)  -->
<!DOCTYPE svg PUBLIC "-//W3C//DTD SVG 1.1//EN" "http://www.w3.org/Graphics/SVG/1.1/DTD/svg11.dtd">
<svg version="1.1" id="Capa_1" xmlns="http://www.w3.org/2000/svg" xmlns:xlink="http://www.w3.org/1999/xlink" x="0px" y="0px"
	 width="94.954px" height="94.954px" viewBox="0 0 94.954 94.954" style="enable-background:new 0 0 94.954 94.954;"
	 xml:space="preserve">
<g>
	<path d="M93.197,90.157L62.926,31.211v-19.23h1.713c1.402,0,2.542-1.139,2.542-2.541V2.543c0-1.404-1.14-2.543-2.542-2.543H30.316
		c-1.403,0-2.542,1.139-2.542,2.543v6.896c0,1.402,1.139,2.541,2.542,2.541h1.713v19.229L1.757,90.157
		c-0.521,1.014-0.477,2.247,0.118,3.221c0.594,0.974,1.67,1.576,2.81,1.576H90.27c1.14,0,2.216-0.604,2.81-1.576
		C93.673,92.404,93.719,91.17,93.197,90.157z M23.534,62.166L38.249,33.51c0.238-0.463,0.364-0.982,0.364-1.504V11.981h17.729
		v20.027c0,0.52,0.126,1.039,0.363,1.504L71.423,62.17L23.534,62.166z"/>
</g>
<g>
</g>
<g>
</g>
<g>
</g>
<g>
</g>
<g>
</g>
<g>
</g>
<g>
</g>
<g>
</g>
<g>
</g>
<g>
</g>
<g>
</g>
<g>
</g>
<g>
</g>
<g>
</g>
<g>
</g>
</svg>
