<?xml version="1.0" encoding="iso-8859-1"?>
<!-- Generator: Adobe Illustrator 16.0.0, SVG Export Plug-In . SVG Version: 6.00 Build 0)  -->
<!DOCTYPE svg PUBLIC "-//W3C//DTD SVG 1.1//EN" "http://www.w3.org/Graphics/SVG/1.1/DTD/svg11.dtd">
<svg version="1.1" id="Capa_1" xmlns="http://www.w3.org/2000/svg" xmlns:xlink="http://www.w3.org/1999/xlink" x="0px" y="0px"
	 width="96.548px" height="96.548px" viewBox="0 0 96.548 96.548" style="enable-background:new 0 0 96.548 96.548;"
	 xml:space="preserve">
<g>
	<g>
		<path d="M80.531,58.515H42.004c-1.075,0-1.946,0.872-1.946,1.946v13.015c0,1.075,0.872,1.946,1.946,1.946h38.527
			c1.076,0,1.947-0.873,1.947-1.946V60.461C82.479,59.387,81.607,58.515,80.531,58.515z"/>
		<path d="M28.939,34.797H16.016c-1.075,0-1.946,0.871-1.946,1.946v2.812c0,1.075,0.871,1.946,1.946,1.946h12.923
			c1.075,0,1.946-0.871,1.946-1.946v-2.812C30.885,35.668,30.014,34.797,28.939,34.797z"/>
		<path d="M94.602,6.523H1.946C0.871,6.523,0,7.396,0,8.469v79.609c0,1.074,0.872,1.946,1.946,1.946h92.656
			c1.074,0,1.946-0.872,1.946-1.946V8.468C96.548,7.395,95.676,6.523,94.602,6.523z M88.197,80.114c0,1.074-0.871,1.946-1.945,1.946
			H10.296c-1.075,0-1.946-0.872-1.946-1.946V29.73c0-1.075,0.872-1.946,1.946-1.946h75.955c1.075,0,1.946,0.871,1.946,1.946V80.114
			L88.197,80.114z"/>
		<path d="M28.939,58.515H16.016c-1.075,0-1.946,0.872-1.946,1.946v2.811c0,1.075,0.871,1.945,1.946,1.945h12.923
			c1.075,0,1.946-0.87,1.946-1.945v-2.811C30.885,59.387,30.014,58.515,28.939,58.515z"/>
		<path d="M80.531,34.797H42.004c-1.075,0-1.946,0.871-1.946,1.946V49.76c0,1.074,0.872,1.945,1.946,1.945h38.527
			c1.076,0,1.947-0.871,1.947-1.945V36.743C82.479,35.668,81.607,34.797,80.531,34.797z"/>
	</g>
</g>
<g>
</g>
<g>
</g>
<g>
</g>
<g>
</g>
<g>
</g>
<g>
</g>
<g>
</g>
<g>
</g>
<g>
</g>
<g>
</g>
<g>
</g>
<g>
</g>
<g>
</g>
<g>
</g>
<g>
</g>
</svg>
