<?xml version="1.0" encoding="iso-8859-1"?>
<!-- Generator: Adobe Illustrator 16.0.0, SVG Export Plug-In . SVG Version: 6.00 Build 0)  -->
<!DOCTYPE svg PUBLIC "-//W3C//DTD SVG 1.1//EN" "http://www.w3.org/Graphics/SVG/1.1/DTD/svg11.dtd">
<svg version="1.1" id="Capa_1" xmlns="http://www.w3.org/2000/svg" xmlns:xlink="http://www.w3.org/1999/xlink" x="0px" y="0px"
	 width="91.828px" height="91.828px" viewBox="0 0 91.828 91.828" style="enable-background:new 0 0 91.828 91.828;"
	 xml:space="preserve">
<g>
	<path d="M78.957,0H12.873c-1.104,0-2,0.896-2,2v87.828c0,1.104,0.896,2,2,2h19.375c1.104,0,2-0.896,2-2V73.914h23.333v15.914
		c0,1.104,0.896,2,2,2h19.375c1.104,0,2-0.896,2-2V2C80.957,0.895,80.06,0,78.957,0z M32.998,58.997c0,0.829-0.671,1.5-1.5,1.5
		h-8.917c-0.829,0-1.5-0.671-1.5-1.5V50.08c0-0.829,0.671-1.5,1.5-1.5h8.917c0.829,0,1.5,0.671,1.5,1.5V58.997z M32.998,40.122
		c0,0.829-0.671,1.5-1.5,1.5h-8.917c-0.829,0-1.5-0.671-1.5-1.5v-8.917c0-0.829,0.671-1.5,1.5-1.5h8.917c0.829,0,1.5,0.671,1.5,1.5
		V40.122z M32.998,21.247c0,0.829-0.671,1.5-1.5,1.5h-8.917c-0.829,0-1.5-0.671-1.5-1.5V12.33c0-0.829,0.671-1.5,1.5-1.5h8.917
		c0.829,0,1.5,0.671,1.5,1.5V21.247z M51.873,58.997c0,0.829-0.671,1.5-1.5,1.5h-8.917c-0.829,0-1.5-0.671-1.5-1.5V50.08
		c0-0.829,0.671-1.5,1.5-1.5h8.917c0.829,0,1.5,0.671,1.5,1.5V58.997z M51.873,40.122c0,0.829-0.671,1.5-1.5,1.5h-8.917
		c-0.829,0-1.5-0.671-1.5-1.5v-8.917c0-0.829,0.671-1.5,1.5-1.5h8.917c0.829,0,1.5,0.671,1.5,1.5V40.122z M51.873,21.247
		c0,0.829-0.671,1.5-1.5,1.5h-8.917c-0.829,0-1.5-0.671-1.5-1.5V12.33c0-0.829,0.671-1.5,1.5-1.5h8.917c0.829,0,1.5,0.671,1.5,1.5
		V21.247z M70.748,58.997c0,0.829-0.671,1.5-1.5,1.5h-8.917c-0.829,0-1.5-0.671-1.5-1.5V50.08c0-0.829,0.671-1.5,1.5-1.5h8.917
		c0.829,0,1.5,0.671,1.5,1.5V58.997z M70.748,40.122c0,0.829-0.671,1.5-1.5,1.5h-8.917c-0.829,0-1.5-0.671-1.5-1.5v-8.917
		c0-0.829,0.671-1.5,1.5-1.5h8.917c0.829,0,1.5,0.671,1.5,1.5V40.122z M70.748,21.247c0,0.829-0.671,1.5-1.5,1.5h-8.917
		c-0.829,0-1.5-0.671-1.5-1.5V12.33c0-0.829,0.671-1.5,1.5-1.5h8.917c0.829,0,1.5,0.671,1.5,1.5V21.247z"/>
</g>
<g>
</g>
<g>
</g>
<g>
</g>
<g>
</g>
<g>
</g>
<g>
</g>
<g>
</g>
<g>
</g>
<g>
</g>
<g>
</g>
<g>
</g>
<g>
</g>
<g>
</g>
<g>
</g>
<g>
</g>
</svg>
