<?xml version="1.0" encoding="iso-8859-1"?>
<!-- Generator: Adobe Illustrator 16.0.0, SVG Export Plug-In . SVG Version: 6.00 Build 0)  -->
<!DOCTYPE svg PUBLIC "-//W3C//DTD SVG 1.1//EN" "http://www.w3.org/Graphics/SVG/1.1/DTD/svg11.dtd">
<svg version="1.1" id="Capa_1" xmlns="http://www.w3.org/2000/svg" xmlns:xlink="http://www.w3.org/1999/xlink" x="0px" y="0px"
	 width="96.667px" height="96.666px" viewBox="0 0 96.667 96.666" style="enable-background:new 0 0 96.667 96.666;"
	 xml:space="preserve">
<g>
	<path d="M88.663,0H8.004c-1.104,0-2,0.896-2,2v92.666c0,1.104,0.896,2,2,2h80.657c1.104,0,2-0.896,2-2V2
		C90.663,0.896,89.766,0,88.663,0z M51.014,46.997c0.42,0,0.82,0.183,1.096,0.501c0.277,0.318,0.399,0.741,0.339,1.157
		C51.19,57.3,43.651,63.818,34.912,63.818c-9.785,0-17.747-7.961-17.747-17.746c0-9.03,6.777-16.606,15.765-17.622
		c0.407-0.05,0.821,0.084,1.129,0.358c0.308,0.276,0.484,0.67,0.484,1.082v17.106L51.014,46.997L51.014,46.997z M36.836,44.82
		V26.879c0-0.222,0.092-0.434,0.253-0.585c0.161-0.151,0.377-0.229,0.6-0.215c9.563,0.63,17.004,8.329,17.31,17.91
		c0.007,0.217-0.074,0.427-0.226,0.583c-0.15,0.155-0.358,0.243-0.575,0.243L36.836,44.82z M80.055,84.5c0,0.828-0.671,1.5-1.5,1.5
		H19.751c-0.829,0-1.5-0.672-1.5-1.5v-5.751c0-0.828,0.671-1.5,1.5-1.5h58.804c0.829,0,1.5,0.672,1.5,1.5V84.5z M80.055,67.616
		c0,0.827-0.671,1.5-1.5,1.5H61.867c-0.829,0-1.5-0.673-1.5-1.5v-5.751c0-0.828,0.671-1.5,1.5-1.5h16.688c0.829,0,1.5,0.672,1.5,1.5
		V67.616z M80.055,54.627c0,0.828-0.671,1.5-1.5,1.5H61.867c-0.829,0-1.5-0.672-1.5-1.5V42.039c0-0.828,0.671-1.5,1.5-1.5h16.688
		c0.829,0,1.5,0.672,1.5,1.5V54.627z M80.055,34.801c0,0.828-0.671,1.5-1.5,1.5H61.867c-0.829,0-1.5-0.672-1.5-1.5V29.05
		c0-0.828,0.671-1.5,1.5-1.5h16.688c0.829,0,1.5,0.672,1.5,1.5V34.801z M80.055,17.917c0,0.828-0.671,1.5-1.5,1.5H19.751
		c-0.829,0-1.5-0.672-1.5-1.5v-5.751c0-0.828,0.671-1.5,1.5-1.5h58.804c0.829,0,1.5,0.672,1.5,1.5V17.917z"/>
</g>
<g>
</g>
<g>
</g>
<g>
</g>
<g>
</g>
<g>
</g>
<g>
</g>
<g>
</g>
<g>
</g>
<g>
</g>
<g>
</g>
<g>
</g>
<g>
</g>
<g>
</g>
<g>
</g>
<g>
</g>
</svg>
