<?xml version="1.0" encoding="iso-8859-1"?>
<!-- Generator: Adobe Illustrator 16.0.0, SVG Export Plug-In . SVG Version: 6.00 Build 0)  -->
<!DOCTYPE svg PUBLIC "-//W3C//DTD SVG 1.1//EN" "http://www.w3.org/Graphics/SVG/1.1/DTD/svg11.dtd">
<svg version="1.1" id="Capa_1" xmlns="http://www.w3.org/2000/svg" xmlns:xlink="http://www.w3.org/1999/xlink" x="0px" y="0px"
	 width="95.094px" height="95.094px" viewBox="0 0 95.094 95.094" style="enable-background:new 0 0 95.094 95.094;"
	 xml:space="preserve">
<g>
	<g>
		<path d="M76.47,0H18.624c-2.16,0-3.918,1.758-3.918,3.919v87.256c0,2.161,1.758,3.919,3.918,3.919H76.47
			c2.16,0,3.918-1.758,3.918-3.919V3.919C80.388,1.758,78.63,0,76.47,0z M22.543,7.837h50.008v40.512H22.543V7.837z M33.19,89.045
			H22.422v-6.282H33.19V89.045z M33.19,74.688H22.422v-6.281H33.19V74.688z M33.19,60.33H22.422v-6.281H33.19V60.33z M46.351,89.045
			H35.582v-6.282h10.769V89.045z M46.351,74.688H35.582v-6.281h10.769V74.688z M46.351,60.33H35.582v-6.281h10.769V60.33z
			 M59.512,89.045H48.743v-6.282h10.769V89.045z M59.512,74.688H48.743v-6.281h10.769V74.688z M59.512,60.33H48.743v-6.281h10.769
			V60.33z M72.672,89.045H61.903v-6.282h10.769V89.045z M72.672,74.688H61.903v-6.281h10.769V74.688z M72.672,60.33H61.903v-6.281
			h10.769V60.33z"/>
		<path d="M26.196,11.979v10.566L38.03,10.71H27.465C26.763,10.71,26.196,11.277,26.196,11.979z"/>
	</g>
</g>
<g>
</g>
<g>
</g>
<g>
</g>
<g>
</g>
<g>
</g>
<g>
</g>
<g>
</g>
<g>
</g>
<g>
</g>
<g>
</g>
<g>
</g>
<g>
</g>
<g>
</g>
<g>
</g>
<g>
</g>
</svg>
