<?xml version="1.0" encoding="iso-8859-1"?>
<!-- Generator: Adobe Illustrator 16.0.0, SVG Export Plug-In . SVG Version: 6.00 Build 0)  -->
<!DOCTYPE svg PUBLIC "-//W3C//DTD SVG 1.1//EN" "http://www.w3.org/Graphics/SVG/1.1/DTD/svg11.dtd">
<svg version="1.1" id="Capa_1" xmlns="http://www.w3.org/2000/svg" xmlns:xlink="http://www.w3.org/1999/xlink" x="0px" y="0px"
	 width="98.995px" height="98.996px" viewBox="0 0 98.995 98.996" style="enable-background:new 0 0 98.995 98.996;"
	 xml:space="preserve">
<g>
	<path d="M95.85,39.575h-8.99l-6.844-27.753c-0.349-1.41-1.604-2.395-3.058-2.395h-54.92c-1.452,0-2.709,0.985-3.057,2.394
		l-6.843,27.754h-8.99C1.412,39.575,0,40.988,0,42.723v27.286c0,1.736,1.412,3.148,3.148,3.148h3.585v13.262
		c0,1.736,1.412,3.147,3.148,3.147h11.072c1.736,0,3.148-1.411,3.148-3.147V73.158h50.793v13.262c0,1.736,1.412,3.148,3.147,3.148
		h11.072c1.735,0,3.147-1.412,3.147-3.148V73.158h3.586c1.735,0,3.147-1.412,3.147-3.147V42.724
		C98.997,40.988,97.585,39.575,95.85,39.575z M17.606,63.768c-4.224,0-7.66-3.437-7.66-7.66s3.437-7.66,7.66-7.66
		s7.659,3.436,7.659,7.66S21.83,63.768,17.606,63.768z M29.257,21.571h40.482l3.967,17.973H25.29L29.257,21.571z M81.216,63.768
		c-4.224,0-7.659-3.437-7.659-7.66s3.437-7.66,7.659-7.66c4.224,0,7.659,3.436,7.659,7.66S85.439,63.768,81.216,63.768z"/>
</g>
<g>
</g>
<g>
</g>
<g>
</g>
<g>
</g>
<g>
</g>
<g>
</g>
<g>
</g>
<g>
</g>
<g>
</g>
<g>
</g>
<g>
</g>
<g>
</g>
<g>
</g>
<g>
</g>
<g>
</g>
</svg>
