<?xml version="1.0" encoding="iso-8859-1"?>
<!-- Generator: Adobe Illustrator 16.0.0, SVG Export Plug-In . SVG Version: 6.00 Build 0)  -->
<!DOCTYPE svg PUBLIC "-//W3C//DTD SVG 1.1//EN" "http://www.w3.org/Graphics/SVG/1.1/DTD/svg11.dtd">
<svg version="1.1" id="Capa_1" xmlns="http://www.w3.org/2000/svg" xmlns:xlink="http://www.w3.org/1999/xlink" x="0px" y="0px"
	 width="96.702px" height="96.702px" viewBox="0 0 96.702 96.702" style="enable-background:new 0 0 96.702 96.702;"
	 xml:space="preserve">
<g>
	<g>
		<path d="M22.268,50.809c-0.135,0.485-0.576,0.821-1.08,0.821h-7.239c-0.355,0-0.689-0.169-0.901-0.454
			c-0.211-0.285-0.274-0.654-0.171-0.994l11.844-38.749c0.144-0.472,0.579-0.793,1.071-0.793h10.507
			c0.491,0,0.926,0.319,1.071,0.788l5.28,17.026h19.62V1.495C62.27,0.669,61.602,0,60.775,0H1.495C0.67,0,0,0.669,0,1.495v59.28
			c0,0.826,0.67,1.494,1.495,1.494h26.968V41.109h-3.5L22.268,50.809z"/>
		<path d="M31.029,18.747l-0.293-1.174h-0.118c-0.244,0.979-0.489,2.063-0.738,3.167c-0.369,1.637-0.749,3.321-1.149,4.741
			l-2.43,8.696h2.162v-4.229c0-0.825,0.669-1.494,1.494-1.494h3.725l-0.876-2.981C32.192,23.425,31.574,20.94,31.029,18.747z"/>
		<path d="M95.207,34.432H35.926c-0.825,0-1.494,0.669-1.494,1.494v59.281c0,0.826,0.669,1.495,1.494,1.495h59.281
			c0.825,0,1.495-0.669,1.495-1.495V35.926C96.703,35.101,96.033,34.432,95.207,34.432z M83.57,61.537
			c0,0.62-0.502,1.121-1.121,1.121l-5.235,0.002c-0.478,3.471-1.71,6.713-3.663,9.641c2.446,1.495,4.813,2.355,7.035,2.559
			c0.578,0.054,1.02,0.537,1.02,1.117v8.992c0,0.307-0.125,0.602-0.35,0.812c-0.208,0.197-0.484,0.308-0.771,0.308
			c-0.021,0-0.039,0-0.059-0.002c-6.349-0.337-11.714-3.329-15.097-5.778c-3.69,2.457-8.235,4.446-12.467,5.455
			c-0.294,0.071-0.606,0.019-0.864-0.146c-0.257-0.165-0.436-0.427-0.494-0.726l-1.763-8.819c-0.116-0.581,0.239-1.149,0.812-1.304
			c3.018-0.805,13.032-4.058,15.238-12.108v-0.002H48.685c-0.618,0-1.121-0.501-1.121-1.121v-8.97c0-0.619,0.503-1.121,1.121-1.121
			h11.276v-5.308c0-0.619,0.502-1.121,1.121-1.121h8.971c0.618,0,1.12,0.502,1.12,1.121v5.308h11.275c0.618,0,1.12,0.502,1.12,1.121
			v8.969H83.57z"/>
	</g>
</g>
<g>
</g>
<g>
</g>
<g>
</g>
<g>
</g>
<g>
</g>
<g>
</g>
<g>
</g>
<g>
</g>
<g>
</g>
<g>
</g>
<g>
</g>
<g>
</g>
<g>
</g>
<g>
</g>
<g>
</g>
</svg>
