<?xml version="1.0" encoding="iso-8859-1"?>
<!-- Generator: Adobe Illustrator 16.0.0, SVG Export Plug-In . SVG Version: 6.00 Build 0)  -->
<!DOCTYPE svg PUBLIC "-//W3C//DTD SVG 1.1//EN" "http://www.w3.org/Graphics/SVG/1.1/DTD/svg11.dtd">
<svg version="1.1" id="Capa_1" xmlns="http://www.w3.org/2000/svg" xmlns:xlink="http://www.w3.org/1999/xlink" x="0px" y="0px"
	 width="97.084px" height="97.084px" viewBox="0 0 97.084 97.084" style="enable-background:new 0 0 97.084 97.084;"
	 xml:space="preserve">
<g>
	<g>
		<path d="M61.148,52.703c0.92,0,1.67-0.749,1.67-1.67V5.72c0-0.92-0.75-1.67-1.67-1.67H1.67C0.749,4.05,0,4.8,0,5.72v45.313
			c0,0.921,0.75,1.67,1.67,1.67h22.114v14.592c0,0.642,0.374,1.233,0.953,1.509c0.217,0.104,0.462,0.158,0.71,0.158
			c0.391,0,0.768-0.132,1.063-0.372l19.484-15.888L61.148,52.703L61.148,52.703z"/>
		<path d="M95.414,28.121H66.246v26.338c0,0.921-0.75,1.67-1.67,1.67H49.421L34.265,68.487v6.617c0,0.92,0.75,1.67,1.67,1.67h4.381
			L59.8,92.662c0.296,0.239,0.673,0.372,1.063,0.372c0.248,0,0.492-0.055,0.709-0.158c0.58-0.275,0.953-0.868,0.953-1.509V76.774
			h32.889c0.921,0,1.67-0.75,1.67-1.67V29.792C97.084,28.87,96.335,28.121,95.414,28.121z"/>
	</g>
</g>
<g>
</g>
<g>
</g>
<g>
</g>
<g>
</g>
<g>
</g>
<g>
</g>
<g>
</g>
<g>
</g>
<g>
</g>
<g>
</g>
<g>
</g>
<g>
</g>
<g>
</g>
<g>
</g>
<g>
</g>
</svg>
