<?xml version="1.0" encoding="iso-8859-1"?>
<!-- Generator: Adobe Illustrator 16.0.0, SVG Export Plug-In . SVG Version: 6.00 Build 0)  -->
<!DOCTYPE svg PUBLIC "-//W3C//DTD SVG 1.1//EN" "http://www.w3.org/Graphics/SVG/1.1/DTD/svg11.dtd">
<svg version="1.1" id="Capa_1" xmlns="http://www.w3.org/2000/svg" xmlns:xlink="http://www.w3.org/1999/xlink" x="0px" y="0px"
	 width="98.168px" height="98.168px" viewBox="0 0 98.168 98.168" style="enable-background:new 0 0 98.168 98.168;"
	 xml:space="preserve">
<g>
	<path d="M49.084,6.272C22.019,6.272,0,21.837,0,40.97c0,10.685,6.713,20.541,18.449,27.143c-1.918,6.856-4.955,15.679-8.855,20.388
		c-0.536,0.646-0.629,1.545-0.237,2.289c0.36,0.683,1.063,1.105,1.833,1.105l0.188-0.01c0.901-0.082,22.076-2.16,35.874-16.244
		c0.607,0.018,1.219,0.027,1.832,0.027c27.064,0,49.084-15.565,49.084-34.699C98.168,21.837,76.148,6.272,49.084,6.272z
		 M27.34,69.731l1.674-6.119l-5.576-3.025C14.263,55.611,9,48.462,9,40.972c0-13.93,18.356-25.698,40.084-25.698
		c21.729,0,40.084,11.769,40.084,25.698c0,13.929-18.355,25.697-40.084,25.697c-0.602,0-1.249-0.012-1.98-0.035l-3.566-0.117
		l-2.47,2.574c-4.227,4.406-9.883,7.929-16.836,10.486C25.318,76.61,26.36,73.31,27.34,69.731z"/>
</g>
<g>
</g>
<g>
</g>
<g>
</g>
<g>
</g>
<g>
</g>
<g>
</g>
<g>
</g>
<g>
</g>
<g>
</g>
<g>
</g>
<g>
</g>
<g>
</g>
<g>
</g>
<g>
</g>
<g>
</g>
</svg>
