<?xml version="1.0" encoding="iso-8859-1"?>
<!-- Generator: Adobe Illustrator 16.0.0, SVG Export Plug-In . SVG Version: 6.00 Build 0)  -->
<!DOCTYPE svg PUBLIC "-//W3C//DTD SVG 1.1//EN" "http://www.w3.org/Graphics/SVG/1.1/DTD/svg11.dtd">
<svg version="1.1" id="Capa_1" xmlns="http://www.w3.org/2000/svg" xmlns:xlink="http://www.w3.org/1999/xlink" x="0px" y="0px"
	 width="92.5px" height="92.5px" viewBox="0 0 92.5 92.5" style="enable-background:new 0 0 92.5 92.5;" xml:space="preserve">
<g>
	<path d="M69.75,10v62.34L53.827,53.854l-7.577-8.797l-7.577,8.797L22.75,72.34V10H69.75 M75.75,0h-59c-2.209,0-4,1.791-4,4v84.5
		c0,1.672,1.04,3.168,2.607,3.75c0.455,0.168,0.927,0.25,1.393,0.25c1.143,0,2.256-0.49,3.031-1.391l26.469-30.73l26.469,30.73
		c0.775,0.9,1.891,1.391,3.032,1.391c0.466,0,0.938-0.082,1.392-0.25c1.567-0.582,2.607-2.078,2.607-3.75V4
		C79.75,1.791,77.959,0,75.75,0L75.75,0z"/>
</g>
<g>
</g>
<g>
</g>
<g>
</g>
<g>
</g>
<g>
</g>
<g>
</g>
<g>
</g>
<g>
</g>
<g>
</g>
<g>
</g>
<g>
</g>
<g>
</g>
<g>
</g>
<g>
</g>
<g>
</g>
</svg>
