<?xml version="1.0" encoding="iso-8859-1"?>
<!-- Generator: Adobe Illustrator 16.0.0, SVG Export Plug-In . SVG Version: 6.00 Build 0)  -->
<!DOCTYPE svg PUBLIC "-//W3C//DTD SVG 1.1//EN" "http://www.w3.org/Graphics/SVG/1.1/DTD/svg11.dtd">
<svg version="1.1" id="Capa_1" xmlns="http://www.w3.org/2000/svg" xmlns:xlink="http://www.w3.org/1999/xlink" x="0px" y="0px"
	 width="94px" height="94px" viewBox="0 0 94 94" style="enable-background:new 0 0 94 94;" xml:space="preserve">
<g>
	<path d="M46.907,0C33.814,0,21.674,5.244,12.721,14.766l-9.879-3.991c-0.66-0.266-1.417-0.161-1.98,0.278
		c-0.563,0.44-0.849,1.147-0.749,1.854l4.313,30.662c0.1,0.708,0.569,1.309,1.231,1.576c0.662,0.268,1.417,0.16,1.98-0.278
		l24.4-19.063c0.563-0.44,0.849-1.146,0.749-1.854s-0.569-1.309-1.231-1.576l-8.676-3.505C29.546,13.15,38.079,10,46.907,10
		c20.402,0,37,16.598,37,37c0,20.402-16.598,37-37,37c-13.487,0-25.903-7.325-32.403-19.117c-0.514-0.933-1.671-1.299-2.628-0.832
		l-5.399,2.633c-0.49,0.239-0.862,0.668-1.028,1.188s-0.113,1.084,0.147,1.563C13.814,84.587,29.644,94,46.907,94
		c25.916,0,47-21.084,47-47S72.823,0,46.907,0z"/>
	<g>
		<path d="M72.657,53.5H46.826c-2.209,0-4-1.791-4-4V19.25c0-2.209,1.791-4,4-4s4,1.791,4,4V45.5h21.831c2.209,0,4,1.791,4,4
			S74.866,53.5,72.657,53.5z"/>
	</g>
</g>
<g>
</g>
<g>
</g>
<g>
</g>
<g>
</g>
<g>
</g>
<g>
</g>
<g>
</g>
<g>
</g>
<g>
</g>
<g>
</g>
<g>
</g>
<g>
</g>
<g>
</g>
<g>
</g>
<g>
</g>
</svg>
