<?xml version="1.0" encoding="iso-8859-1"?>
<!-- Generator: Adobe Illustrator 16.0.0, SVG Export Plug-In . SVG Version: 6.00 Build 0)  -->
<!DOCTYPE svg PUBLIC "-//W3C//DTD SVG 1.1//EN" "http://www.w3.org/Graphics/SVG/1.1/DTD/svg11.dtd">
<svg version="1.1" id="Capa_1" xmlns="http://www.w3.org/2000/svg" xmlns:xlink="http://www.w3.org/1999/xlink" x="0px" y="0px"
	 width="95.355px" height="95.355px" viewBox="0 0 95.355 95.355" style="enable-background:new 0 0 95.355 95.355;"
	 xml:space="preserve">
<g>
	<path d="M54.629,42.211L83.168,3.412c0.479-0.652,0.55-1.516,0.186-2.236C82.989,0.453,82.25,0,81.442,0H13.914
		c-0.809,0-1.547,0.453-1.912,1.176c-0.365,0.721-0.293,1.584,0.187,2.236l28.54,38.799c0.039,0.054,0.081,0.105,0.125,0.155v45.97
		H31.05c-1.184,0-2.143,0.959-2.143,2.144v2.734c0,1.184,0.959,2.142,2.143,2.142h33.256c1.184,0,2.143-0.958,2.143-2.142v-2.734
		c0-1.185-0.959-2.144-2.143-2.144h-9.804v-45.97C54.547,42.317,54.589,42.265,54.629,42.211z"/>
</g>
<g>
</g>
<g>
</g>
<g>
</g>
<g>
</g>
<g>
</g>
<g>
</g>
<g>
</g>
<g>
</g>
<g>
</g>
<g>
</g>
<g>
</g>
<g>
</g>
<g>
</g>
<g>
</g>
<g>
</g>
</svg>
