<?xml version="1.0" encoding="iso-8859-1"?>
<!-- Generator: Adobe Illustrator 16.0.0, SVG Export Plug-In . SVG Version: 6.00 Build 0)  -->
<!DOCTYPE svg PUBLIC "-//W3C//DTD SVG 1.1//EN" "http://www.w3.org/Graphics/SVG/1.1/DTD/svg11.dtd">
<svg version="1.1" id="Capa_1" xmlns="http://www.w3.org/2000/svg" xmlns:xlink="http://www.w3.org/1999/xlink" x="0px" y="0px"
	 width="96.992px" height="96.992px" viewBox="0 0 96.992 96.992" style="enable-background:new 0 0 96.992 96.992;"
	 xml:space="preserve">
<g>
	<path d="M82.297,16.976L66.028,0.732C65.559,0.263,64.924,0,64.26,0H16.463c-1.381,0-2.5,1.119-2.5,2.5v91.992
		c0,1.381,1.119,2.5,2.5,2.5h64.066c1.381,0,2.5-1.119,2.5-2.5V18.744C83.029,18.081,82.766,17.445,82.297,16.976z M44.063,61.584
		c0.281,0.281,0.439,0.663,0.439,1.061c0,0.398-0.158,0.779-0.439,1.062l-2.596,2.597c-0.281,0.28-0.663,0.438-1.061,0.438
		s-0.779-0.158-1.061-0.438L22.604,49.557c-0.586-0.586-0.586-1.535,0-2.121l16.743-16.744c0.563-0.563,1.559-0.563,2.121,0
		l2.596,2.596c0.281,0.281,0.439,0.663,0.439,1.061s-0.158,0.779-0.439,1.061L30.975,48.496L44.063,61.584z M74.389,49.557
		L57.645,66.301c-0.28,0.281-0.662,0.439-1.061,0.439s-0.779-0.158-1.061-0.439l-2.596-2.596c-0.281-0.281-0.439-0.663-0.439-1.061
		c0-0.398,0.158-0.779,0.439-1.062l13.09-13.087L52.93,35.408c-0.281-0.281-0.439-0.663-0.439-1.061s0.158-0.779,0.439-1.061
		l2.596-2.596c0.281-0.281,0.662-0.439,1.061-0.439s0.779,0.158,1.061,0.439l16.744,16.744
		C74.975,48.021,74.975,48.971,74.389,49.557z M62.051,22.342c-0.337,0-0.658-0.134-0.896-0.372
		c-0.237-0.238-0.372-0.561-0.372-0.897l0.002-15.126L77.18,22.342H62.051z"/>
</g>
<g>
</g>
<g>
</g>
<g>
</g>
<g>
</g>
<g>
</g>
<g>
</g>
<g>
</g>
<g>
</g>
<g>
</g>
<g>
</g>
<g>
</g>
<g>
</g>
<g>
</g>
<g>
</g>
<g>
</g>
</svg>
