<?xml version="1.0" encoding="iso-8859-1"?>
<!-- Generator: Adobe Illustrator 16.0.0, SVG Export Plug-In . SVG Version: 6.00 Build 0)  -->
<!DOCTYPE svg PUBLIC "-//W3C//DTD SVG 1.1//EN" "http://www.w3.org/Graphics/SVG/1.1/DTD/svg11.dtd">
<svg version="1.1" id="Capa_1" xmlns="http://www.w3.org/2000/svg" xmlns:xlink="http://www.w3.org/1999/xlink" x="0px" y="0px"
	 width="96.992px" height="96.992px" viewBox="0 0 96.992 96.992" style="enable-background:new 0 0 96.992 96.992;"
	 xml:space="preserve">
<g>
	<g>
		<path d="M48.946,63.161h-2.903c-1.866,0-3.377,1.513-3.377,3.38c0,1.866,1.511,3.38,3.377,3.38h2.903
			c1.868,0,3.38-1.514,3.38-3.38C52.326,64.674,50.814,63.161,48.946,63.161z"/>
		<path d="M82.297,17.001L66.028,0.732C65.559,0.263,64.924,0,64.26,0H43.172v1.853h4.324V7.28h-4.324v2.247H40.12V0H16.463
			c-1.381,0-2.5,1.119-2.5,2.5v91.992c0,1.381,1.119,2.5,2.5,2.5h64.066c1.381,0,2.5-1.119,2.5-2.5V18.769
			C83.029,18.106,82.766,17.47,82.297,17.001z M47.496,9.822h4.324V7.575h3.052v9.919H51.82v-2.247h-4.324V9.822z M47.496,47.204
			v-5.425h4.324v-2.247h3.052v9.918H51.82v-2.247L47.496,47.204L47.496,47.204z M51.82,33.525v-2.246h-4.324v-5.427h4.324v-2.246
			h3.052v9.918L51.82,33.525L51.82,33.525z M40.12,15.639h3.052v2.246h4.324v5.426h-4.324v2.247H40.12V15.639z M40.12,31.563h3.052
			v2.247h4.324v5.425h-4.324v2.247H40.12V31.563z M47.496,72.162c-4.287,0-7.762-3.322-7.762-8.334
			c0-12.912,3.475-12.779,7.762-12.779s7.762-0.132,7.762,12.779C55.258,68.84,51.783,72.162,47.496,72.162z M62.051,22.342
			c-0.337,0-0.658-0.134-0.896-0.372c-0.237-0.238-0.372-0.561-0.372-0.897l0.002-15.126L77.18,22.342H62.051z"/>
	</g>
</g>
<g>
</g>
<g>
</g>
<g>
</g>
<g>
</g>
<g>
</g>
<g>
</g>
<g>
</g>
<g>
</g>
<g>
</g>
<g>
</g>
<g>
</g>
<g>
</g>
<g>
</g>
<g>
</g>
<g>
</g>
</svg>
