<?xml version="1.0" encoding="iso-8859-1"?>
<!-- Generator: Adobe Illustrator 16.0.0, SVG Export Plug-In . SVG Version: 6.00 Build 0)  -->
<!DOCTYPE svg PUBLIC "-//W3C//DTD SVG 1.1//EN" "http://www.w3.org/Graphics/SVG/1.1/DTD/svg11.dtd">
<svg version="1.1" id="Capa_1" xmlns="http://www.w3.org/2000/svg" xmlns:xlink="http://www.w3.org/1999/xlink" x="0px" y="0px"
	 width="96.991px" height="96.991px" viewBox="0 0 96.991 96.991" style="enable-background:new 0 0 96.991 96.991;"
	 xml:space="preserve">
<g>
	<path d="M84.813,40.106L73.244,28.535c-0.333-0.333-0.785-0.521-1.257-0.521H60.774V13.35c0-0.473-0.188-0.924-0.521-1.257
		L48.685,0.521C48.351,0.188,47.899,0,47.427,0H13.435c-0.982,0-1.778,0.796-1.778,1.778V67.2c0,0.981,0.796,1.778,1.778,1.778
		h22.781v26.234c0,0.982,0.796,1.778,1.777,1.778h45.562c0.982,0,1.778-0.796,1.778-1.778v-53.85
		C85.335,40.891,85.147,40.439,84.813,40.106z M17.347,5.69H45l0.014,9.142c0,0.239,0.096,0.469,0.265,0.639
		c0.169,0.169,0.398,0.264,0.638,0.264h9.17v47.556h-37.74V5.69z M79.646,91.305H41.906V68.979h17.092
		c0.981,0,1.776-0.795,1.776-1.777V33.704h8.783l0.015,9.142c0,0.239,0.096,0.469,0.265,0.639c0.17,0.169,0.399,0.264,0.639,0.264
		h9.17V91.305L79.646,91.305z"/>
</g>
<g>
</g>
<g>
</g>
<g>
</g>
<g>
</g>
<g>
</g>
<g>
</g>
<g>
</g>
<g>
</g>
<g>
</g>
<g>
</g>
<g>
</g>
<g>
</g>
<g>
</g>
<g>
</g>
<g>
</g>
</svg>
