<?xml version="1.0" encoding="iso-8859-1"?>
<!-- Generator: Adobe Illustrator 16.0.0, SVG Export Plug-In . SVG Version: 6.00 Build 0)  -->
<!DOCTYPE svg PUBLIC "-//W3C//DTD SVG 1.1//EN" "http://www.w3.org/Graphics/SVG/1.1/DTD/svg11.dtd">
<svg version="1.1" id="Capa_1" xmlns="http://www.w3.org/2000/svg" xmlns:xlink="http://www.w3.org/1999/xlink" x="0px" y="0px"
	 width="98px" height="98px" viewBox="0 0 98 98" style="enable-background:new 0 0 98 98;" xml:space="preserve">
<g>
	<g>
		<path d="M96,17.672H2c-1.104,0-2,0.896-2,2v10.184h98V19.672C98,18.567,97.104,17.672,96,17.672z"/>
		<path d="M0,78.328c0,1.104,0.896,2,2,2h94c1.104,0,2-0.896,2-2V45.285H0V78.328z M37.914,65.424c0-0.553,0.448-1,1-1h7.816
			c0.552,0,1,0.447,1,1v9.282c0,0.553-0.448,1-1,1h-7.816c-0.552,0-1-0.447-1-1V65.424z M21.849,65.424c0-0.553,0.448-1,1-1h7.816
			c0.552,0,1,0.447,1,1v9.282c0,0.553-0.448,1-1,1h-7.816c-0.552,0-1-0.447-1-1V65.424z M5.783,65.424c0-0.553,0.448-1,1-1h7.816
			c0.552,0,1,0.447,1,1v9.282c0,0.553-0.448,1-1,1H6.783c-0.552,0-1-0.447-1-1V65.424z"/>
	</g>
</g>
<g>
</g>
<g>
</g>
<g>
</g>
<g>
</g>
<g>
</g>
<g>
</g>
<g>
</g>
<g>
</g>
<g>
</g>
<g>
</g>
<g>
</g>
<g>
</g>
<g>
</g>
<g>
</g>
<g>
</g>
</svg>
