<?xml version="1.0" encoding="iso-8859-1"?>
<!-- Generator: Adobe Illustrator 16.0.0, SVG Export Plug-In . SVG Version: 6.00 Build 0)  -->
<!DOCTYPE svg PUBLIC "-//W3C//DTD SVG 1.1//EN" "http://www.w3.org/Graphics/SVG/1.1/DTD/svg11.dtd">
<svg version="1.1" id="Capa_1" xmlns="http://www.w3.org/2000/svg" xmlns:xlink="http://www.w3.org/1999/xlink" x="0px" y="0px"
	 width="94.943px" height="94.943px" viewBox="0 0 94.943 94.943" style="enable-background:new 0 0 94.943 94.943;"
	 xml:space="preserve">
<g>
	<path d="M93.03,64.154H79.827V23.849L93.864,9.81c0.748-0.747,0.748-1.959,0-2.707l-6.091-6.092
		C87.415,0.652,86.928,0.45,86.42,0.45s-0.994,0.202-1.354,0.561L70.983,15.098l-40.17-0.001V1.933c0-1.057-0.857-1.915-1.915-1.915
		H16.364c-1.058,0-1.914,0.857-1.914,1.915v13.164H1.914C0.857,15.097,0,15.954,0,17.011v12.535c0,1.057,0.857,1.915,1.914,1.915
		h12.535v40.875c0,4.511,3.67,8.181,8.182,8.181h40.833v12.494c0,1.058,0.856,1.915,1.914,1.915h12.535c0.008,0,0.014,0,0.02,0
		c1.058,0,1.914-0.857,1.914-1.915c0-0.092-0.008-0.183-0.02-0.272l-0.001-12.221h13.202c1.057,0,1.914-0.857,1.914-1.914V66.068
		C94.944,65.012,94.086,64.154,93.03,64.154z M63.465,40.212v23.942H39.522L63.465,40.212z M54.619,31.461L30.813,55.267V31.459
		L54.619,31.461z"/>
</g>
<g>
</g>
<g>
</g>
<g>
</g>
<g>
</g>
<g>
</g>
<g>
</g>
<g>
</g>
<g>
</g>
<g>
</g>
<g>
</g>
<g>
</g>
<g>
</g>
<g>
</g>
<g>
</g>
<g>
</g>
</svg>
