<?xml version="1.0" encoding="iso-8859-1"?>
<!-- Generator: Adobe Illustrator 16.0.0, SVG Export Plug-In . SVG Version: 6.00 Build 0)  -->
<!DOCTYPE svg PUBLIC "-//W3C//DTD SVG 1.1//EN" "http://www.w3.org/Graphics/SVG/1.1/DTD/svg11.dtd">
<svg version="1.1" id="Capa_1" xmlns="http://www.w3.org/2000/svg" xmlns:xlink="http://www.w3.org/1999/xlink" x="0px" y="0px"
	 width="95.871px" height="95.871px" viewBox="0 0 95.871 95.871" style="enable-background:new 0 0 95.871 95.871;"
	 xml:space="preserve">
<g>
	<g>
		<path d="M94.357,21.221L48.662,4.484c-0.475-0.167-1.005-0.164-1.479,0L1.571,20.757c-0.462,0.164-0.859,0.464-1.054,0.771
			C0.185,21.931,0,22.441,0,22.964V73.53c0,0.958,0.607,1.813,1.512,2.129L47.15,91.388c0.474,0.164,1.005,0.164,1.479,0
			l45.648-15.752c0.953-0.292,1.594-1.157,1.594-2.154V23.347C95.872,22.388,95.264,21.534,94.357,21.221z M47.958,36.904
			l-34.43-11.882l34.395-12.375l32.622,12.19L47.958,36.904z M87.916,69.678L52.839,81.547V43.926l35.077-12.859V69.678z"/>
	</g>
</g>
<g>
</g>
<g>
</g>
<g>
</g>
<g>
</g>
<g>
</g>
<g>
</g>
<g>
</g>
<g>
</g>
<g>
</g>
<g>
</g>
<g>
</g>
<g>
</g>
<g>
</g>
<g>
</g>
<g>
</g>
</svg>
