<?xml version="1.0" encoding="iso-8859-1"?>
<!-- Generator: Adobe Illustrator 16.0.0, SVG Export Plug-In . SVG Version: 6.00 Build 0)  -->
<!DOCTYPE svg PUBLIC "-//W3C//DTD SVG 1.1//EN" "http://www.w3.org/Graphics/SVG/1.1/DTD/svg11.dtd">
<svg version="1.1" id="Capa_1" xmlns="http://www.w3.org/2000/svg" xmlns:xlink="http://www.w3.org/1999/xlink" x="0px" y="0px"
	 width="98.667px" height="98.667px" viewBox="0 0 98.667 98.667" style="enable-background:new 0 0 98.667 98.667;"
	 xml:space="preserve">
<g>
	<g>
		<path d="M96.666,37.358H2c-1.104,0-2,0.896-2,2v19.949c0,1.104,0.896,2,2,2h94.667c1.104,0,2-0.896,2-2V39.358
			C98.666,38.254,97.771,37.358,96.666,37.358z M83.797,54.333h-26.8c-2.761,0-5-2.237-5-5c0-2.762,2.239-5,5-5h26.8
			c2.762,0,5,2.238,5,5C88.797,52.096,86.559,54.333,83.797,54.333z"/>
		<path d="M96.666,68.782H2c-1.104,0-2,0.895-2,2V90.73c0,1.104,0.896,2,2,2h94.667c1.104,0,2-0.896,2-2V70.782
			C98.666,69.677,97.771,68.782,96.666,68.782z M83.797,85.333H25.996c-2.761,0-5-2.237-5-5c0-2.762,2.239-5,5-5h57.801
			c2.762,0,5,2.238,5,5C88.797,83.096,86.559,85.333,83.797,85.333z"/>
		<path d="M96.666,5.937H2c-1.104,0-2,0.896-2,2v19.948c0,1.104,0.896,2,2,2h94.667c1.104,0,2-0.896,2-2V7.937
			C98.666,6.832,97.771,5.937,96.666,5.937z M83.797,23.333h-39.2c-2.761,0-5-2.238-5-5s2.239-5,5-5h39.2c2.762,0,5,2.238,5,5
			S86.559,23.333,83.797,23.333z"/>
	</g>
</g>
<g>
</g>
<g>
</g>
<g>
</g>
<g>
</g>
<g>
</g>
<g>
</g>
<g>
</g>
<g>
</g>
<g>
</g>
<g>
</g>
<g>
</g>
<g>
</g>
<g>
</g>
<g>
</g>
<g>
</g>
</svg>
