<?xml version="1.0" encoding="iso-8859-1"?>
<!-- Generator: Adobe Illustrator 16.0.0, SVG Export Plug-In . SVG Version: 6.00 Build 0)  -->
<!DOCTYPE svg PUBLIC "-//W3C//DTD SVG 1.1//EN" "http://www.w3.org/Graphics/SVG/1.1/DTD/svg11.dtd">
<svg version="1.1" id="Capa_1" xmlns="http://www.w3.org/2000/svg" xmlns:xlink="http://www.w3.org/1999/xlink" x="0px" y="0px"
	 width="96.414px" height="96.414px" viewBox="0 0 96.414 96.414" style="enable-background:new 0 0 96.414 96.414;"
	 xml:space="preserve">
<g>
	<g>
		<path d="M94.241,0.476H2.173C0.973,0.476,0,1.45,0,2.648v25.984c0,1.201,0.973,2.173,2.173,2.173h92.068
			c1.2,0,2.173-0.972,2.173-2.173V2.647C96.414,1.449,95.441,0.476,94.241,0.476z M22.677,20.543c0,0.899-0.73,1.63-1.63,1.63
			H10.183c-0.899,0-1.629-0.73-1.629-1.63V9.68c0-0.899,0.729-1.629,1.629-1.629h10.864c0.899,0,1.63,0.729,1.63,1.629V20.543z
			 M44.404,20.543c0,0.899-0.729,1.63-1.629,1.63H31.911c-0.899,0-1.63-0.73-1.63-1.63V9.68c0-0.899,0.73-1.629,1.63-1.629h10.864
			c0.899,0,1.629,0.729,1.629,1.629V20.543z M66.133,20.543c0,0.899-0.73,1.63-1.63,1.63H53.639c-0.898,0-1.629-0.73-1.629-1.63
			V9.68c0-0.899,0.729-1.629,1.629-1.629h10.864c0.899,0,1.63,0.729,1.63,1.629V20.543z M87.859,20.543
			c0,0.899-0.729,1.63-1.629,1.63H75.367c-0.898,0-1.631-0.73-1.631-1.63V9.68c0-0.899,0.73-1.629,1.631-1.629H86.23
			c0.899,0,1.629,0.729,1.629,1.629V20.543z"/>
		<path d="M94.241,38.743H2.173c-1.2,0-2.173,0.972-2.173,2.173v52.85c0,1.198,0.973,2.173,2.173,2.173h92.068
			c1.2,0,2.173-0.975,2.173-2.173v-52.85C96.414,39.714,95.441,38.743,94.241,38.743z M8.554,50.7c0-0.9,0.729-1.631,1.629-1.631
			h10.864c0.899,0,1.63,0.73,1.63,1.631v10.863c0,0.898-0.73,1.629-1.63,1.629H10.183c-0.899,0-1.629-0.729-1.629-1.629V50.7z
			 M44.404,85.464c0,0.9-0.729,1.631-1.629,1.631H10.183c-0.899,0-1.629-0.729-1.629-1.631V74.602c0-0.899,0.729-1.63,1.629-1.63
			h32.593c0.899,0,1.629,0.729,1.629,1.63v10.862H44.404z M44.404,61.563c0,0.898-0.729,1.629-1.629,1.629H31.911
			c-0.899,0-1.63-0.729-1.63-1.629V50.7c0-0.9,0.73-1.631,1.63-1.631h10.864c0.899,0,1.629,0.73,1.629,1.631V61.563z M66.133,85.464
			c0,0.9-0.73,1.631-1.63,1.631H53.639c-0.898,0-1.629-0.729-1.629-1.631V74.602c0-0.899,0.729-1.63,1.629-1.63h10.864
			c0.899,0,1.63,0.729,1.63,1.63V85.464z M87.859,85.464c0,0.9-0.729,1.631-1.629,1.631H75.367c-0.898,0-1.631-0.729-1.631-1.631
			V74.602c0-0.899,0.73-1.63,1.631-1.63H86.23c0.899,0,1.629,0.729,1.629,1.63V85.464z M87.859,61.563
			c0,0.898-0.729,1.629-1.629,1.629H53.639c-0.898,0-1.629-0.729-1.629-1.629V50.7c0-0.9,0.729-1.631,1.629-1.631h32.594
			c0.898,0,1.629,0.73,1.629,1.631v10.863H87.859z"/>
	</g>
</g>
<g>
</g>
<g>
</g>
<g>
</g>
<g>
</g>
<g>
</g>
<g>
</g>
<g>
</g>
<g>
</g>
<g>
</g>
<g>
</g>
<g>
</g>
<g>
</g>
<g>
</g>
<g>
</g>
<g>
</g>
</svg>
