<?xml version="1.0" encoding="iso-8859-1"?>
<!-- Generator: Adobe Illustrator 16.0.0, SVG Export Plug-In . SVG Version: 6.00 Build 0)  -->
<!DOCTYPE svg PUBLIC "-//W3C//DTD SVG 1.1//EN" "http://www.w3.org/Graphics/SVG/1.1/DTD/svg11.dtd">
<svg version="1.1" id="Capa_1" xmlns="http://www.w3.org/2000/svg" xmlns:xlink="http://www.w3.org/1999/xlink" x="0px" y="0px"
	 width="97.101px" height="97.101px" viewBox="0 0 97.101 97.101" style="enable-background:new 0 0 97.101 97.101;"
	 xml:space="preserve">
<g>
	<path d="M79.87,12.166C79.87,5.458,74.414,0,67.706,0C61,0,55.541,5.458,55.541,12.166c0,3.939,1.891,7.437,4.803,9.661
		c-2.768,5.206-8.141,7.45-14.78,10.2c-3.533,1.463-7.384,3.061-10.84,5.349V23.085c4.041-1.98,6.837-6.124,6.837-10.918
		c0-6.708-5.459-12.166-12.166-12.166c-6.707,0-12.164,5.457-12.164,12.165c0,4.794,2.796,8.938,6.835,10.918v50.933
		c-4.039,1.979-6.835,6.124-6.835,10.918c0,6.708,5.457,12.166,12.164,12.166c6.707,0,12.166-5.457,12.166-12.165
		c0-4.794-2.796-8.938-6.837-10.918V57.996c0-9.5,5.117-12.062,14.919-16.122c7.598-3.146,17.334-7.209,21.429-18.027
		C76.145,22.383,79.87,17.705,79.87,12.166z M29.395,5.33c3.77,0,6.836,3.067,6.836,6.836c0,3.769-3.066,6.836-6.836,6.836
		c-3.768,0-6.835-3.066-6.835-6.836C22.559,8.396,25.626,5.33,29.395,5.33z M29.395,91.771c-3.768,0-6.835-3.066-6.835-6.836
		c0-3.769,3.067-6.836,6.835-6.836c3.77,0,6.836,3.066,6.836,6.836C36.23,88.706,33.163,91.771,29.395,91.771z M67.706,19.002
		c-3.77,0-6.836-3.066-6.836-6.836c0-3.771,3.066-6.836,6.836-6.836c3.769,0,6.835,3.067,6.835,6.836
		C74.541,15.935,71.475,19.002,67.706,19.002z"/>
</g>
<g>
</g>
<g>
</g>
<g>
</g>
<g>
</g>
<g>
</g>
<g>
</g>
<g>
</g>
<g>
</g>
<g>
</g>
<g>
</g>
<g>
</g>
<g>
</g>
<g>
</g>
<g>
</g>
<g>
</g>
</svg>
