<?xml version="1.0" encoding="iso-8859-1"?>
<!-- Generator: Adobe Illustrator 16.0.0, SVG Export Plug-In . SVG Version: 6.00 Build 0)  -->
<!DOCTYPE svg PUBLIC "-//W3C//DTD SVG 1.1//EN" "http://www.w3.org/Graphics/SVG/1.1/DTD/svg11.dtd">
<svg version="1.1" id="Capa_1" xmlns="http://www.w3.org/2000/svg" xmlns:xlink="http://www.w3.org/1999/xlink" x="0px" y="0px"
	 width="94.027px" height="94.027px" viewBox="0 0 94.027 94.027" style="enable-background:new 0 0 94.027 94.027;"
	 xml:space="preserve">
<g>
	<g>
		<g>
			<path d="M66.262,92.864c-7.015,0-13.338-5.651-16.111-14.401c-2.547-8.033-14.325-10.33-15.66-10.566
				c-4.433-0.786-7.646-4.621-7.646-9.117V19.312c0-3.405,1.862-6.527,4.858-8.146C34.797,9.495,50.98,1.164,65.831,1.164
				c8.853,0,15.864,2.828,20.841,8.407c6.166,6.907,8.471,17.584,6.856,31.734C91.657,57.737,83.768,63.7,77.576,65.821
				c2.486,9.394,2.129,16.586-1.079,21.435C74.131,90.821,70.401,92.864,66.262,92.864z M37.067,57.982
				c4.478,0.916,18.835,4.799,22.827,17.392c1.496,4.72,4.396,7.269,6.367,7.269c0.851,0,1.4-0.563,1.715-1.033
				c1.854-2.801,1.182-9.561-1.801-18.076l-2.367-6.76l7.16-0.041c6.784-0.041,11.189-5.93,12.403-16.583
				c1.271-11.133-0.187-19.13-4.327-23.771c-2.996-3.357-7.318-4.99-13.214-4.99c-11.812,0-25.622,6.859-28.765,8.505v38.089H37.067
				z"/>
		</g>
		<g>
			<path d="M17.987,9.879H2.024C0.906,9.879,0,10.784,0,11.903v51.786c0,1.119,0.906,2.025,2.024,2.025h15.963
				c1.119,0,2.024-0.906,2.024-2.025V11.904C20.011,10.785,19.106,9.879,17.987,9.879z M10.006,21.776
				c-2.162,0-3.923-1.76-3.923-3.922s1.761-3.922,3.923-3.922c2.162,0,3.921,1.76,3.921,3.922S12.168,21.776,10.006,21.776z"/>
		</g>
	</g>
</g>
<g>
</g>
<g>
</g>
<g>
</g>
<g>
</g>
<g>
</g>
<g>
</g>
<g>
</g>
<g>
</g>
<g>
</g>
<g>
</g>
<g>
</g>
<g>
</g>
<g>
</g>
<g>
</g>
<g>
</g>
</svg>
