<?xml version="1.0" encoding="iso-8859-1"?>
<!-- Generator: Adobe Illustrator 16.0.0, SVG Export Plug-In . SVG Version: 6.00 Build 0)  -->
<!DOCTYPE svg PUBLIC "-//W3C//DTD SVG 1.1//EN" "http://www.w3.org/Graphics/SVG/1.1/DTD/svg11.dtd">
<svg version="1.1" id="Capa_1" xmlns="http://www.w3.org/2000/svg" xmlns:xlink="http://www.w3.org/1999/xlink" x="0px" y="0px"
	 width="96.941px" height="96.941px" viewBox="0 0 96.941 96.941" style="enable-background:new 0 0 96.941 96.941;"
	 xml:space="preserve">
<g>
	<g>
		<path d="M93.283,0H3.659c-1.104,0-2,0.896-2,2v59.168c0,1.104,0.896,2,2,2h7.364c1.104,0,2-0.896,2-2V11.363h70.895v49.805
			c0,1.104,0.896,2,2,2h7.364c1.104,0,2-0.896,2-2V2C95.283,0.896,94.388,0,93.283,0z"/>
		<path d="M70.417,60.219c-0.781-0.781-2.047-0.781-2.828,0l-12.162,12.16V19.737c0-1.104-0.896-2-2-2h-9.912c-1.104,0-2,0.896-2,2
			V72.38L29.353,60.22c-0.781-0.78-2.047-0.78-2.828,0l-6.389,6.388c-0.375,0.375-0.586,0.883-0.586,1.414
			c0,0.529,0.211,1.038,0.586,1.413l26.921,26.921c0.391,0.392,0.902,0.586,1.414,0.586s1.023-0.194,1.415-0.586l26.92-26.921
			c0.375-0.375,0.586-0.884,0.586-1.413c0-0.531-0.211-1.039-0.586-1.414L70.417,60.219z"/>
	</g>
</g>
<g>
</g>
<g>
</g>
<g>
</g>
<g>
</g>
<g>
</g>
<g>
</g>
<g>
</g>
<g>
</g>
<g>
</g>
<g>
</g>
<g>
</g>
<g>
</g>
<g>
</g>
<g>
</g>
<g>
</g>
</svg>
