<?xml version="1.0" encoding="iso-8859-1"?>
<!-- Generator: Adobe Illustrator 16.0.0, SVG Export Plug-In . SVG Version: 6.00 Build 0)  -->
<!DOCTYPE svg PUBLIC "-//W3C//DTD SVG 1.1//EN" "http://www.w3.org/Graphics/SVG/1.1/DTD/svg11.dtd">
<svg version="1.1" id="Capa_1" xmlns="http://www.w3.org/2000/svg" xmlns:xlink="http://www.w3.org/1999/xlink" x="0px" y="0px"
	 width="97.832px" height="97.832px" viewBox="0 0 97.832 97.832" style="enable-background:new 0 0 97.832 97.832;"
	 xml:space="preserve">
<g>
	<path d="M92.402,53.824c0.367-1.621,0.578-3.301,0.578-5.031c0-12.551-10.174-22.727-22.726-22.727
		c-2.485,0-4.871,0.413-7.108,1.15c-5.502-8.327-14.94-13.824-25.668-13.824c-16.98,0-30.746,13.765-30.746,30.746
		c0,2.692,0.349,5.303,0.998,7.792C3.063,55.145,0,60.52,0,66.615c0,9.844,7.979,17.824,17.824,17.824h62.184
		c9.846,0,17.824-7.98,17.824-17.824C97.832,61.592,95.748,57.063,92.402,53.824z M65.807,59.479L49.412,75.873
		c-0.133,0.133-0.309,0.205-0.496,0.205c-0.188,0-0.363-0.072-0.495-0.205L32.026,59.479c-0.132-0.132-0.206-0.309-0.206-0.495
		s0.073-0.362,0.206-0.495l4.624-4.623c0.264-0.266,0.726-0.266,0.991,0l7.054,7.053V30.623c0-0.386,0.315-0.701,0.701-0.701h7.042
		c0.387,0,0.701,0.314,0.701,0.701v30.295l7.053-7.053c0.266-0.266,0.728-0.266,0.992,0l4.623,4.623
		c0.133,0.133,0.207,0.309,0.207,0.495S65.938,59.347,65.807,59.479z"/>
</g>
<g>
</g>
<g>
</g>
<g>
</g>
<g>
</g>
<g>
</g>
<g>
</g>
<g>
</g>
<g>
</g>
<g>
</g>
<g>
</g>
<g>
</g>
<g>
</g>
<g>
</g>
<g>
</g>
<g>
</g>
</svg>
