<?xml version="1.0" encoding="iso-8859-1"?>
<!-- Generator: Adobe Illustrator 16.0.0, SVG Export Plug-In . SVG Version: 6.00 Build 0)  -->
<!DOCTYPE svg PUBLIC "-//W3C//DTD SVG 1.1//EN" "http://www.w3.org/Graphics/SVG/1.1/DTD/svg11.dtd">
<svg version="1.1" id="Capa_1" xmlns="http://www.w3.org/2000/svg" xmlns:xlink="http://www.w3.org/1999/xlink" x="0px" y="0px"
	 width="96.943px" height="96.942px" viewBox="0 0 96.943 96.942" style="enable-background:new 0 0 96.943 96.942;"
	 xml:space="preserve">
<g>
	<g>
		<path d="M3.66,96.942h89.623c1.104,0,2-0.896,2-2V35.774c0-1.104-0.896-2-2-2h-7.364c-1.104,0-2,0.896-2,2v49.805H13.025V35.774
			c0-1.104-0.896-2-2-2H3.66c-1.104,0-2,0.896-2,2v59.168C1.66,96.045,2.556,96.942,3.66,96.942z"/>
		<path d="M26.526,36.723c0.781,0.781,2.047,0.781,2.828,0l12.162-12.16v52.643c0,1.104,0.896,2,2,2h9.912c1.104,0,2-0.896,2-2
			V24.563l12.162,12.16c0.781,0.781,2.047,0.781,2.828,0l6.389-6.387c0.375-0.375,0.586-0.885,0.586-1.414
			c0-0.531-0.211-1.039-0.586-1.414L49.886,0.586C49.495,0.196,48.984,0,48.472,0s-1.023,0.195-1.414,0.586L20.137,27.508
			c-0.375,0.375-0.586,0.883-0.586,1.414c0,0.529,0.211,1.039,0.586,1.414L26.526,36.723z"/>
	</g>
</g>
<g>
</g>
<g>
</g>
<g>
</g>
<g>
</g>
<g>
</g>
<g>
</g>
<g>
</g>
<g>
</g>
<g>
</g>
<g>
</g>
<g>
</g>
<g>
</g>
<g>
</g>
<g>
</g>
<g>
</g>
</svg>
