<?xml version="1.0" encoding="iso-8859-1"?>
<!-- Generator: Adobe Illustrator 16.0.0, SVG Export Plug-In . SVG Version: 6.00 Build 0)  -->
<!DOCTYPE svg PUBLIC "-//W3C//DTD SVG 1.1//EN" "http://www.w3.org/Graphics/SVG/1.1/DTD/svg11.dtd">
<svg version="1.1" id="Capa_1" xmlns="http://www.w3.org/2000/svg" xmlns:xlink="http://www.w3.org/1999/xlink" x="0px" y="0px"
	 width="95.749px" height="95.749px" viewBox="0 0 95.749 95.749" style="enable-background:new 0 0 95.749 95.749;"
	 xml:space="preserve">
<g>
	<g>
		<path d="M93.204,0H2.546C1.14,0,0,1.14,0,2.546v90.657c0,1.406,1.14,2.546,2.546,2.546h90.657c1.406,0,2.546-1.14,2.546-2.546
			V2.546C95.75,1.14,94.609,0,93.204,0z M38.283,36.701c0,1.125-0.912,2.037-2.037,2.037h-3.565v45.128
			c0,1.125-0.912,2.036-2.037,2.036H19.608c-1.125,0-2.037-0.911-2.037-2.036V38.738h-3.565c-1.125,0-2.037-0.912-2.037-2.037V29.74
			c0-1.125,0.912-2.037,2.037-2.037h3.565V11.884c0-1.125,0.912-2.037,2.037-2.037h11.036c1.125,0,2.037,0.912,2.037,2.037v15.819
			h3.565c1.125,0,2.037,0.912,2.037,2.037V36.701z M83.781,50.592c0,1.125-0.912,2.037-2.037,2.037H78.18v31.237
			c0,1.125-0.912,2.036-2.037,2.036H65.105c-1.125,0-2.037-0.911-2.037-2.036V52.629h-3.564c-1.125,0-2.037-0.912-2.037-2.037
			v-6.961c0-1.125,0.912-2.037,2.037-2.037h3.564v-29.71c0-1.125,0.912-2.037,2.037-2.037h11.037c1.125,0,2.037,0.912,2.037,2.037
			v29.71h3.564c1.125,0,2.037,0.912,2.037,2.037V50.592L83.781,50.592z"/>
	</g>
</g>
<g>
</g>
<g>
</g>
<g>
</g>
<g>
</g>
<g>
</g>
<g>
</g>
<g>
</g>
<g>
</g>
<g>
</g>
<g>
</g>
<g>
</g>
<g>
</g>
<g>
</g>
<g>
</g>
<g>
</g>
</svg>
