<?xml version="1.0" encoding="iso-8859-1"?>
<!-- Generator: Adobe Illustrator 16.0.0, SVG Export Plug-In . SVG Version: 6.00 Build 0)  -->
<!DOCTYPE svg PUBLIC "-//W3C//DTD SVG 1.1//EN" "http://www.w3.org/Graphics/SVG/1.1/DTD/svg11.dtd">
<svg version="1.1" id="Capa_1" xmlns="http://www.w3.org/2000/svg" xmlns:xlink="http://www.w3.org/1999/xlink" x="0px" y="0px"
	 width="98.331px" height="98.331px" viewBox="0 0 98.331 98.331" style="enable-background:new 0 0 98.331 98.331;"
	 xml:space="preserve">
<g>
	<path d="M56.77,97.756L86.892,84.45c1.751-0.771,2.896-2.206,3.232-3.813l0.02,0.006l4.618-15.44l-0.028-0.009
		c0.18-0.934,0.094-1.921-0.314-2.873c-0.167-0.39-0.385-0.764-0.647-1.116L49.82,2.564c-1.778-2.374-5.402-3.249-8.254-1.989
		L11.441,13.881c-1.403,0.62-2.417,1.663-2.939,2.881l-0.007-0.001l-4.62,15.44l0.002,0.002c-0.483,1.186-0.512,2.529,0.036,3.808
		c0.168,0.391,0.385,0.765,0.648,1.117l43.95,58.639C50.29,98.142,53.916,99.015,56.77,97.756z M57.155,77.375
		c0,0-42.392-56.486-43.213-57.654c-0.822-1.169,0.428-1.607,0.428-1.607L43.607,5.197c0.779-0.344,1.824-0.065,2.169,0.396
		l42.887,57.145c0,0,1.111,1.578-0.348,2.229c-1.261,0.563-28.988,12.807-28.988,12.807C58.547,78.115,57.501,77.837,57.155,77.375z
		"/>
</g>
<g>
</g>
<g>
</g>
<g>
</g>
<g>
</g>
<g>
</g>
<g>
</g>
<g>
</g>
<g>
</g>
<g>
</g>
<g>
</g>
<g>
</g>
<g>
</g>
<g>
</g>
<g>
</g>
<g>
</g>
</svg>
