<?xml version="1.0" encoding="iso-8859-1"?>
<!-- Generator: Adobe Illustrator 16.0.0, SVG Export Plug-In . SVG Version: 6.00 Build 0)  -->
<!DOCTYPE svg PUBLIC "-//W3C//DTD SVG 1.1//EN" "http://www.w3.org/Graphics/SVG/1.1/DTD/svg11.dtd">
<svg version="1.1" id="Capa_1" xmlns="http://www.w3.org/2000/svg" xmlns:xlink="http://www.w3.org/1999/xlink" x="0px" y="0px"
	 width="97.033px" height="97.033px" viewBox="0 0 97.033 97.033" style="enable-background:new 0 0 97.033 97.033;"
	 xml:space="preserve">
<g>
	<path d="M95.034,14.399H84.046V2.699c0-1.104-0.896-2-2-2H65.523c-1.104,0-2,0.896-2,2v11.701H33.511V2.699c0-1.104-0.896-2-2-2
		H14.988c-1.104,0-2,0.896-2,2v11.701H2c-1.104,0-2,0.896-2,2v77.935c0,1.104,0.896,2,2,2h93.033c1.104,0,2-0.896,2-2V16.399
		C97.034,15.294,96.139,14.399,95.034,14.399z M69.332,6.506h8.907v21.732c0,0.829-0.673,1.5-1.5,1.5h-5.907
		c-0.828,0-1.5-0.671-1.5-1.5V6.506z M18.794,6.506h8.907v21.732c0,0.829-0.672,1.5-1.5,1.5h-5.907c-0.828,0-1.5-0.671-1.5-1.5
		V6.506z M86.678,84.511c0,0.828-0.673,1.5-1.5,1.5H11.857c-0.828,0-1.5-0.672-1.5-1.5V44.705c0-0.829,0.672-1.5,1.5-1.5h73.321
		c0.827,0,1.5,0.671,1.5,1.5V84.511z"/>
</g>
<g>
</g>
<g>
</g>
<g>
</g>
<g>
</g>
<g>
</g>
<g>
</g>
<g>
</g>
<g>
</g>
<g>
</g>
<g>
</g>
<g>
</g>
<g>
</g>
<g>
</g>
<g>
</g>
<g>
</g>
</svg>
