<?xml version="1.0" encoding="iso-8859-1"?>
<!-- Generator: Adobe Illustrator 16.0.0, SVG Export Plug-In . SVG Version: 6.00 Build 0)  -->
<!DOCTYPE svg PUBLIC "-//W3C//DTD SVG 1.1//EN" "http://www.w3.org/Graphics/SVG/1.1/DTD/svg11.dtd">
<svg version="1.1" id="Capa_1" xmlns="http://www.w3.org/2000/svg" xmlns:xlink="http://www.w3.org/1999/xlink" x="0px" y="0px"
	 width="97.109px" height="97.109px" viewBox="0 0 97.109 97.109" style="enable-background:new 0 0 97.109 97.109;"
	 xml:space="preserve">
<g>
	<path d="M96.357,46.973l-17.563-14.01c-0.601-0.479-1.423-0.573-2.114-0.239c-0.692,0.333-1.133,1.034-1.133,1.802v4.631H57.934
		V21.543h4.631c0.007,0,0.013,0,0.02,0c1.104,0,2-0.896,2-2c0-0.562-0.23-1.069-0.604-1.433L50.118,0.733
		c-0.759-0.952-2.368-0.952-3.127,0L32.982,18.297c-0.479,0.601-0.572,1.422-0.238,2.115c0.333,0.692,1.034,1.132,1.802,1.132h4.632
		v17.614H21.563v-4.631c0-0.768-0.44-1.469-1.132-1.802c-0.693-0.333-1.514-0.24-2.115,0.239L0.753,46.973
		C0.277,47.352,0,47.928,0,48.535c0,0.608,0.277,1.185,0.753,1.563l17.563,14.009c0.601,0.479,1.421,0.572,2.115,0.238
		c0.692-0.333,1.132-1.034,1.132-1.803v-4.631h17.614v17.613h-4.632c-0.768,0-1.469,0.44-1.802,1.133
		c-0.333,0.691-0.241,1.514,0.238,2.114L46.99,96.336c0.379,0.476,0.955,0.753,1.563,0.753s1.184-0.277,1.563-0.753l14.01-17.563
		c0.479-0.601,0.572-1.422,0.239-2.114s-1.034-1.133-1.803-1.133h-4.631V57.914h17.615v4.632c0,0.768,0.439,1.469,1.131,1.802
		c0.692,0.334,1.515,0.241,2.115-0.238l17.562-14.009c0.477-0.379,0.754-0.955,0.754-1.563
		C97.109,47.93,96.833,47.353,96.357,46.973z"/>
</g>
<g>
</g>
<g>
</g>
<g>
</g>
<g>
</g>
<g>
</g>
<g>
</g>
<g>
</g>
<g>
</g>
<g>
</g>
<g>
</g>
<g>
</g>
<g>
</g>
<g>
</g>
<g>
</g>
<g>
</g>
</svg>
