<?xml version="1.0" encoding="iso-8859-1"?>
<!-- Generator: Adobe Illustrator 16.0.0, SVG Export Plug-In . SVG Version: 6.00 Build 0)  -->
<!DOCTYPE svg PUBLIC "-//W3C//DTD SVG 1.1//EN" "http://www.w3.org/Graphics/SVG/1.1/DTD/svg11.dtd">
<svg version="1.1" id="Capa_1" xmlns="http://www.w3.org/2000/svg" xmlns:xlink="http://www.w3.org/1999/xlink" x="0px" y="0px"
	 width="95.448px" height="95.448px" viewBox="0 0 95.448 95.448" style="enable-background:new 0 0 95.448 95.448;"
	 xml:space="preserve">
<g>
	<g>
		<path d="M47.724,30.68c-4.711,0-8.542,3.832-8.542,8.542s3.832,8.542,8.542,8.542c4.709,0,8.542-3.832,8.542-8.542
			S52.436,30.68,47.724,30.68z"/>
		<path d="M92.789,10.928H2.659C1.193,10.928,0,12.121,0,13.587v51.271c0,1.467,1.193,2.659,2.659,2.659h90.13
			c1.466,0,2.659-1.192,2.659-2.659V13.587C95.448,12.121,94.255,10.928,92.789,10.928z M76.602,40.568
			c-0.525,0.58-13.043,14.22-28.877,14.22c-15.835,0-28.352-13.64-28.877-14.221c-0.69-0.764-0.69-1.926,0-2.69
			c0.525-0.58,13.042-14.22,28.877-14.22c15.834,0,28.352,13.64,28.877,14.221C77.292,38.641,77.292,39.804,76.602,40.568z"/>
		<path d="M64.396,74.131h-5.351v-2.889H36.402v2.889h-5.35c-1.381,0-2.5,1.119-2.5,2.5v5.389c0,1.381,1.119,2.5,2.5,2.5h33.344
			c1.381,0,2.5-1.119,2.5-2.5v-5.389C66.896,75.25,65.777,74.131,64.396,74.131z"/>
	</g>
</g>
<g>
</g>
<g>
</g>
<g>
</g>
<g>
</g>
<g>
</g>
<g>
</g>
<g>
</g>
<g>
</g>
<g>
</g>
<g>
</g>
<g>
</g>
<g>
</g>
<g>
</g>
<g>
</g>
<g>
</g>
</svg>
