<?xml version="1.0" encoding="iso-8859-1"?>
<!-- Generator: Adobe Illustrator 16.0.0, SVG Export Plug-In . SVG Version: 6.00 Build 0)  -->
<!DOCTYPE svg PUBLIC "-//W3C//DTD SVG 1.1//EN" "http://www.w3.org/Graphics/SVG/1.1/DTD/svg11.dtd">
<svg version="1.1" id="Capa_1" xmlns="http://www.w3.org/2000/svg" xmlns:xlink="http://www.w3.org/1999/xlink" x="0px" y="0px"
	 width="94.021px" height="94.021px" viewBox="0 0 94.021 94.021" style="enable-background:new 0 0 94.021 94.021;"
	 xml:space="preserve">
<g>
	<path d="M79.776,16.481L64.004,0.709C63.551,0.255,62.934,0,62.291,0H15.959c-1.34,0-2.424,1.085-2.424,2.424v89.173
		c0,1.339,1.084,2.424,2.424,2.424h62.104c1.338,0,2.422-1.084,2.422-2.424V18.195C80.485,17.55,80.229,16.935,79.776,16.481z
		 M72.731,86.265H21.289V7.755h37.693L59,20.215c0,0.326,0.131,0.639,0.361,0.871c0.23,0.23,0.543,0.359,0.869,0.359h12.5
		L72.731,86.265L72.731,86.265z"/>
</g>
<g>
</g>
<g>
</g>
<g>
</g>
<g>
</g>
<g>
</g>
<g>
</g>
<g>
</g>
<g>
</g>
<g>
</g>
<g>
</g>
<g>
</g>
<g>
</g>
<g>
</g>
<g>
</g>
<g>
</g>
</svg>
