<?xml version="1.0" encoding="iso-8859-1"?>
<!-- Generator: Adobe Illustrator 16.0.0, SVG Export Plug-In . SVG Version: 6.00 Build 0)  -->
<!DOCTYPE svg PUBLIC "-//W3C//DTD SVG 1.1//EN" "http://www.w3.org/Graphics/SVG/1.1/DTD/svg11.dtd">
<svg version="1.1" id="Capa_1" xmlns="http://www.w3.org/2000/svg" xmlns:xlink="http://www.w3.org/1999/xlink" x="0px" y="0px"
	 width="97.1px" height="97.101px" viewBox="0 0 97.1 97.101" style="enable-background:new 0 0 97.1 97.101;" xml:space="preserve"
	>
<g>
	<path d="M91.59,1.071C91.204,0.409,90.494,0,89.726,0H7.375C6.607,0,5.897,0.409,5.511,1.071C5.124,1.735,5.119,2.554,5.499,3.222
		L32.798,51.32v32.138c0,0.866,0.52,1.649,1.318,1.987l27.19,11.485c0.27,0.113,0.555,0.17,0.839,0.17
		c0.418,0,0.833-0.12,1.192-0.358c0.603-0.4,0.965-1.074,0.965-1.799V51.32L91.601,3.222C91.981,2.554,91.976,1.735,91.59,1.071z"/>
</g>
<g>
</g>
<g>
</g>
<g>
</g>
<g>
</g>
<g>
</g>
<g>
</g>
<g>
</g>
<g>
</g>
<g>
</g>
<g>
</g>
<g>
</g>
<g>
</g>
<g>
</g>
<g>
</g>
<g>
</g>
</svg>
