<?xml version="1.0" encoding="iso-8859-1"?>
<!-- Generator: Adobe Illustrator 16.0.0, SVG Export Plug-In . SVG Version: 6.00 Build 0)  -->
<!DOCTYPE svg PUBLIC "-//W3C//DTD SVG 1.1//EN" "http://www.w3.org/Graphics/SVG/1.1/DTD/svg11.dtd">
<svg version="1.1" id="Capa_1" xmlns="http://www.w3.org/2000/svg" xmlns:xlink="http://www.w3.org/1999/xlink" x="0px" y="0px"
	 width="93.43px" height="93.43px" viewBox="0 0 93.43 93.43" style="enable-background:new 0 0 93.43 93.43;" xml:space="preserve"
	>
<g>
	<g>
		<path d="M30.563,8.201v35.905c0,1.461-0.18,2.56-0.383,3.329c-8.328-4.404-14.421-5.537-18.13-3.365
			c-3.288,1.925-3.327,5.584-3.327,5.739c0.002,6.047,7.112,8.76,8.094,9.105C27.016,63.648,30.311,69.005,31.153,73
			c-2.745,0.039-4.969,2.277-4.969,5.031V88.39c0,2.779,2.261,5.04,5.039,5.04h46.941c2.779,0,5.039-2.261,5.039-5.04V78.033
			c0-2.611-2.004-4.74-4.549-4.99c0.354-1.204,0.828-2.044,1.428-3.08c0.756-1.311,1.699-2.939,2.746-5.79
			c2.801-7.622,1.654-20.851,1.604-21.409l-0.021-0.163c-1.286-6.845-5.883-7.846-8.926-8.506c-1.129-0.245-2.195-0.48-2.805-0.919
			c-2.998-2.924-6.244-4.383-9.012-4.741c-2.362-0.232-3.52-0.153-5.393-0.53c-1.754-0.537-6.951-1.73-11.318,1.075
			c-0.016-7.378-0.045-20.465-0.045-22.063c0-2.77-3.305-5.32-3.305-5.32C42.249,0.597,40.578,0,38.763,0
			C34.242,0.001,30.563,3.68,30.563,8.201z M77.604,78.592v9.239h-45.82v-9.239H77.604z"/>
		<circle cx="37.478" cy="83.205" r="3.266"/>
	</g>
</g>
<g>
</g>
<g>
</g>
<g>
</g>
<g>
</g>
<g>
</g>
<g>
</g>
<g>
</g>
<g>
</g>
<g>
</g>
<g>
</g>
<g>
</g>
<g>
</g>
<g>
</g>
<g>
</g>
<g>
</g>
</svg>
