<?xml version="1.0" encoding="iso-8859-1"?>
<!-- Generator: Adobe Illustrator 16.0.0, SVG Export Plug-In . SVG Version: 6.00 Build 0)  -->
<!DOCTYPE svg PUBLIC "-//W3C//DTD SVG 1.1//EN" "http://www.w3.org/Graphics/SVG/1.1/DTD/svg11.dtd">
<svg version="1.1" id="Capa_1" xmlns="http://www.w3.org/2000/svg" xmlns:xlink="http://www.w3.org/1999/xlink" x="0px" y="0px"
	 width="93.429px" height="93.429px" viewBox="0 0 93.429 93.429" style="enable-background:new 0 0 93.429 93.429;"
	 xml:space="preserve">
<g>
	<g>
		<path d="M0,38.763c0,1.814,0.598,3.484,1.597,4.844c0,0,2.551,3.305,5.32,3.305c1.598,0,14.685,0.028,22.063,0.045
			c-2.805,4.366-1.611,9.563-1.074,11.317c0.377,1.873,0.298,3.029,0.53,5.394c0.357,2.767,1.816,6.013,4.74,9.012
			c0.438,0.607,0.674,1.677,0.919,2.804c0.66,3.043,1.661,7.641,8.506,8.926l0.163,0.022c0.558,0.052,13.787,1.196,21.409-1.604
			c2.851-1.046,4.479-1.989,5.789-2.746c1.035-0.599,1.876-1.073,3.08-1.429c0.25,2.547,2.379,4.551,4.989,4.551H88.39
			c2.778,0,5.039-2.262,5.039-5.039V31.222c0-2.779-2.261-5.039-5.039-5.039H78.031c-2.754,0-4.993,2.223-5.031,4.969
			c-3.996-0.844-9.354-4.137-14.087-14.337c-0.347-0.981-3.06-8.092-9.105-8.093c-0.155,0-3.814,0.039-5.739,3.326
			c-2.172,3.709-1.039,9.803,3.365,18.13c-0.769,0.203-1.868,0.384-3.329,0.384H8.2C3.679,30.562,0,34.242,0,38.763z M78.592,31.783
			h9.239v45.82h-9.239V31.783z"/>
		<circle cx="83.203" cy="37.476" r="3.266"/>
	</g>
</g>
<g>
</g>
<g>
</g>
<g>
</g>
<g>
</g>
<g>
</g>
<g>
</g>
<g>
</g>
<g>
</g>
<g>
</g>
<g>
</g>
<g>
</g>
<g>
</g>
<g>
</g>
<g>
</g>
<g>
</g>
</svg>
