<?xml version="1.0" encoding="iso-8859-1"?>
<!-- Generator: Adobe Illustrator 16.0.0, SVG Export Plug-In . SVG Version: 6.00 Build 0)  -->
<!DOCTYPE svg PUBLIC "-//W3C//DTD SVG 1.1//EN" "http://www.w3.org/Graphics/SVG/1.1/DTD/svg11.dtd">
<svg version="1.1" id="Capa_1" xmlns="http://www.w3.org/2000/svg" xmlns:xlink="http://www.w3.org/1999/xlink" x="0px" y="0px"
	 width="95.529px" height="95.528px" viewBox="0 0 95.529 95.528" style="enable-background:new 0 0 95.529 95.528;"
	 xml:space="preserve">
<g>
	<g>
		<path d="M16.5,0h-5.925C8.18,0,6.232,1.948,6.232,4.343c0,2.158,1.617,4.006,3.763,4.298v84.887c0,1.104,0.896,2,2,2h3.085
			c1.104,0,2-0.896,2-2V8.641h0.002c2.144-0.292,3.761-2.14,3.761-4.298C20.843,1.949,18.895,0,16.5,0z"/>
		<path d="M88.005,9.313c-4.561-1.73-9.215-2.571-14.231-2.571c-6.647,0-13.089,1.491-19.317,2.934
			c-6.172,1.431-12.554,2.909-19.09,2.909c-4.531,0-8.739-0.699-12.863-2.139c-0.612-0.212-1.369-0.491-1.369-0.491v46.532
			c4.562,1.729,9.217,2.571,14.232,2.571c6.639,0,13.075-1.488,19.309-2.933c6.179-1.431,12.566-2.909,19.1-2.909
			c4.532,0,8.739,0.698,12.862,2.137c0.61,0.211,1.289,0.117,1.817-0.258c0.527-0.375,0.842-0.982,0.842-1.631V11.183
			C89.294,10.352,88.783,9.608,88.005,9.313z M43.485,42.84c-3.643,0.979-6.473,1.663-9.251,1.663
			c-3.243,0-6.364-0.963-10.392-3.214v-12.49c3.956,2.148,7.102,3.073,10.393,3.073c2.831,0,5.658-0.666,9.25-1.628V42.84z
			 M64.65,50.854c-4.66,0.91-8.224,1.812-12.33,2.851c-2.41,0.61-4.897,1.239-7.834,1.927V43.945
			c4.079-1.123,7.221-2.352,10.264-3.541c2.953-1.154,6-2.345,9.902-3.435L64.65,50.854z M54.39,25.319
			c-2.953,1.119-6.002,2.275-9.905,3.362V14.815c4.075-0.871,7.106-1.6,10.309-2.37c2.91-0.699,5.912-1.422,9.855-2.284
			l0.002,11.694C60.576,22.975,57.432,24.166,54.39,25.319z M85.294,36.769c-3.956-2.149-7.104-3.074-10.396-3.074
			c-2.832,0-5.656,0.665-9.246,1.626V22.727c3.641-0.979,6.469-1.661,9.248-1.661c3.244,0,6.366,0.963,10.396,3.215v12.488H85.294z"
			/>
	</g>
</g>
<g>
</g>
<g>
</g>
<g>
</g>
<g>
</g>
<g>
</g>
<g>
</g>
<g>
</g>
<g>
</g>
<g>
</g>
<g>
</g>
<g>
</g>
<g>
</g>
<g>
</g>
<g>
</g>
<g>
</g>
</svg>
