<?xml version="1.0" encoding="iso-8859-1"?>
<!-- Generator: Adobe Illustrator 16.0.0, SVG Export Plug-In . SVG Version: 6.00 Build 0)  -->
<!DOCTYPE svg PUBLIC "-//W3C//DTD SVG 1.1//EN" "http://www.w3.org/Graphics/SVG/1.1/DTD/svg11.dtd">
<svg version="1.1" id="Capa_1" xmlns="http://www.w3.org/2000/svg" xmlns:xlink="http://www.w3.org/1999/xlink" x="0px" y="0px"
	 width="95.529px" height="95.528px" viewBox="0 0 95.529 95.528" style="enable-background:new 0 0 95.529 95.528;"
	 xml:space="preserve">
<g>
	<g>
		<g>
			<path d="M16.5,0h-5.925C8.18,0,6.232,1.948,6.232,4.343c0,2.158,1.617,4.006,3.763,4.298v84.887c0,1.104,0.896,2,2,2h3.085
				c1.104,0,2-0.896,2-2V8.641h0.002c2.144-0.292,3.761-2.14,3.761-4.298C20.843,1.949,18.895,0,16.5,0z"/>
			<path d="M73.774,12.742c3.332,0,6.47,0.433,9.521,1.317v34.137c-3.076-0.656-6.228-0.979-9.521-0.979
				c-7.217,0-13.944,1.559-20.452,3.064c-5.898,1.365-11.998,2.777-17.956,2.777c-2.862,0-5.584-0.319-8.232-0.973V17.86
				c2.667,0.485,5.396,0.725,8.232,0.725c7.225,0,13.945-1.558,20.444-3.063C61.708,14.155,67.81,12.742,73.774,12.742
				 M73.774,6.742c-6.647,0-13.089,1.491-19.317,2.934c-6.172,1.431-12.554,2.909-19.09,2.909c-4.531,0-8.739-0.699-12.863-2.139
				c-0.612-0.212-1.369-0.441-1.369-0.441v46.482c4.562,1.729,9.217,2.571,14.232,2.571c6.639,0,13.075-1.488,19.309-2.933
				c6.179-1.431,12.566-2.909,19.1-2.909c4.532,0,8.739,0.698,12.862,2.137c0.214,0.074,0.437,0.111,0.657,0.111
				c0.41,0,0.816-0.125,1.16-0.369c0.527-0.375,0.842-0.982,0.842-1.631V11.183c0-0.831-0.514-1.575-1.29-1.87
				C83.447,7.582,78.791,6.742,73.774,6.742L73.774,6.742z"/>
		</g>
	</g>
</g>
<g>
</g>
<g>
</g>
<g>
</g>
<g>
</g>
<g>
</g>
<g>
</g>
<g>
</g>
<g>
</g>
<g>
</g>
<g>
</g>
<g>
</g>
<g>
</g>
<g>
</g>
<g>
</g>
<g>
</g>
</svg>
