<?xml version="1.0" encoding="iso-8859-1"?>
<!-- Generator: Adobe Illustrator 16.0.0, SVG Export Plug-In . SVG Version: 6.00 Build 0)  -->
<!DOCTYPE svg PUBLIC "-//W3C//DTD SVG 1.1//EN" "http://www.w3.org/Graphics/SVG/1.1/DTD/svg11.dtd">
<svg version="1.1" id="Capa_1" xmlns="http://www.w3.org/2000/svg" xmlns:xlink="http://www.w3.org/1999/xlink" x="0px" y="0px"
	 width="97.677px" height="97.677px" viewBox="0 0 97.677 97.677" style="enable-background:new 0 0 97.677 97.677;"
	 xml:space="preserve">
<g>
	<path d="M95.678,29.616H22.907c-1.104,0-2,0.896-2,2v42.84h-6.444V23.219h59.092c0.008,0,0.016,0,0.02,0c1.105,0,2-0.896,2-2
		c0-0.322-0.074-0.625-0.209-0.895l-3.435-10.207c-0.272-0.814-1.036-1.362-1.896-1.362H2c-1.104,0-2,0.896-2,2v76.166
		c0,1.104,0.896,2,2,2h78.668c0.079,0,0.175-0.009,0.271-0.023h14.737c1.104,0,2-0.896,2-2V31.616
		C97.678,30.512,96.781,29.616,95.678,29.616z"/>
</g>
<g>
</g>
<g>
</g>
<g>
</g>
<g>
</g>
<g>
</g>
<g>
</g>
<g>
</g>
<g>
</g>
<g>
</g>
<g>
</g>
<g>
</g>
<g>
</g>
<g>
</g>
<g>
</g>
<g>
</g>
</svg>
