<?xml version="1.0" encoding="iso-8859-1"?>
<!-- Generator: Adobe Illustrator 16.0.0, SVG Export Plug-In . SVG Version: 6.00 Build 0)  -->
<!DOCTYPE svg PUBLIC "-//W3C//DTD SVG 1.1//EN" "http://www.w3.org/Graphics/SVG/1.1/DTD/svg11.dtd">
<svg version="1.1" id="Capa_1" xmlns="http://www.w3.org/2000/svg" xmlns:xlink="http://www.w3.org/1999/xlink" x="0px" y="0px"
	 width="99px" height="99px" viewBox="0 0 99 99" style="enable-background:new 0 0 99 99;" xml:space="preserve">
<g>
	<path d="M75.125,25.016V25h-51.25v0.016C10.634,25.349,0,36.179,0,49.5C0,63.031,10.969,74,24.5,74
		c10.667,0,19.736-6.818,23.1-16.333h3.8C54.764,67.182,63.833,74,74.5,74C88.031,74,99,63.031,99,49.5
		C99,36.179,88.366,25.349,75.125,25.016z M34.583,53.212c0,0.193-0.157,0.351-0.351,0.351h-7.336v7.336
		c0,0.194-0.157,0.353-0.351,0.353h-7.424c-0.193,0-0.351-0.157-0.351-0.353v-7.336h-7.336c-0.193,0-0.351-0.156-0.351-0.351v-7.424
		c0-0.193,0.157-0.351,0.351-0.351h7.336v-7.336c0-0.194,0.157-0.352,0.351-0.352h7.424c0.193,0,0.351,0.157,0.351,0.352v7.336
		h7.336c0.193,0,0.351,0.157,0.351,0.351V53.212z M73.958,45.604c-2.278,2.278-5.972,2.278-8.25,0s-2.278-5.971,0-8.249
		s5.972-2.278,8.249,0C76.236,39.634,76.236,43.326,73.958,45.604z M85.979,57.625c-2.277,2.277-5.971,2.277-8.248,0
		c-2.278-2.277-2.278-5.971,0-8.249c2.277-2.278,5.971-2.278,8.25,0C88.257,51.654,88.257,55.348,85.979,57.625z"/>
</g>
<g>
</g>
<g>
</g>
<g>
</g>
<g>
</g>
<g>
</g>
<g>
</g>
<g>
</g>
<g>
</g>
<g>
</g>
<g>
</g>
<g>
</g>
<g>
</g>
<g>
</g>
<g>
</g>
<g>
</g>
</svg>
