<?xml version="1.0" encoding="iso-8859-1"?>
<!-- Generator: Adobe Illustrator 16.0.0, SVG Export Plug-In . SVG Version: 6.00 Build 0)  -->
<!DOCTYPE svg PUBLIC "-//W3C//DTD SVG 1.1//EN" "http://www.w3.org/Graphics/SVG/1.1/DTD/svg11.dtd">
<svg version="1.1" id="Capa_1" xmlns="http://www.w3.org/2000/svg" xmlns:xlink="http://www.w3.org/1999/xlink" x="0px" y="0px"
	 width="97.5px" height="97.5px" viewBox="0 0 97.5 97.5" style="enable-background:new 0 0 97.5 97.5;" xml:space="preserve">
<g>
	<path d="M93.503,16.535H80.771l0.17-0.226c0.088-0.11,0.135-0.175,0.205-0.282c1.769-2.799,1.816-6.154,0.135-9.206
		C78.961,2.614,74.023,0,68.39,0C59.345,0,52.203,5.641,48.75,9.003C45.297,5.641,38.155,0,29.108,0
		c-5.632,0-10.572,2.614-12.891,6.822c-1.682,3.052-1.637,6.4,0.111,9.168c0.081,0.13,0.155,0.229,0.206,0.287l0.194,0.258H3.996
		c-1.104,0-2,0.896-2,2v25.649c0,1.104,0.896,2,2,2h3.36V95.5c0,1.104,0.896,2,2,2h78.789c1.104,0,2-0.896,2-2V46.185h3.36
		c1.104,0,2-0.896,2-2v-25.65C95.503,17.431,94.609,16.535,93.503,16.535z M27.6,14.753c-3.316,0-5.56-0.659-6.315-1.856
		c-0.77-1.219-0.397-2.443,0.05-3.256C22.3,7.888,24.917,5.84,29.109,5.84c5.918,0,10.995,3.328,14.213,6.119
		C38.965,13.233,32.703,14.753,27.6,14.753z M53.738,88.584h-9.979V45.233h9.979V88.584z M76.214,12.896
		c-0.756,1.197-2.998,1.856-6.312,1.856c-5.096-0.001-11.363-1.521-15.723-2.795l0,0c3.215-2.791,8.289-6.118,14.209-6.118
		c4.193,0,6.809,2.048,7.775,3.801C76.613,10.453,76.986,11.678,76.214,12.896z"/>
</g>
<g>
</g>
<g>
</g>
<g>
</g>
<g>
</g>
<g>
</g>
<g>
</g>
<g>
</g>
<g>
</g>
<g>
</g>
<g>
</g>
<g>
</g>
<g>
</g>
<g>
</g>
<g>
</g>
<g>
</g>
</svg>
