<?xml version="1.0" encoding="iso-8859-1"?>
<!-- Generator: Adobe Illustrator 16.0.0, SVG Export Plug-In . SVG Version: 6.00 Build 0)  -->
<!DOCTYPE svg PUBLIC "-//W3C//DTD SVG 1.1//EN" "http://www.w3.org/Graphics/SVG/1.1/DTD/svg11.dtd">
<svg version="1.1" id="Capa_1" xmlns="http://www.w3.org/2000/svg" xmlns:xlink="http://www.w3.org/1999/xlink" x="0px" y="0px"
	 width="96.231px" height="96.231px" viewBox="0 0 96.231 96.231" style="enable-background:new 0 0 96.231 96.231;"
	 xml:space="preserve">
<g>
	<path d="M48.116,5.17C22.125,5.17,0.542,27.891,0,55.816c-0.01,0.537,0.196,1.057,0.572,1.439c0.269,0.273,0.608,0.463,0.977,0.548
		V84.51c0,1.104,0.896,2,2,2h0.726v2.552c0,1.104,0.896,2,2,2h13.652c1.104,0,2-0.896,2-2V52.221c0-1.104-0.896-2-2-2h-8.966
		c2.948-19.715,18.92-34.584,37.154-34.584S82.321,30.506,85.268,50.22l0.001,0.001h-8.966c-1.104,0-2,0.896-2,2v36.841
		c0,1.104,0.896,2,2,2h13.652c1.104,0,2-0.896,2-2V86.51h0.728c1.104,0,2-0.896,2-2V57.804c0.368-0.085,0.708-0.272,0.977-0.548
		c0.376-0.385,0.582-0.902,0.572-1.439C95.689,27.89,74.105,5.17,48.116,5.17z"/>
</g>
<g>
</g>
<g>
</g>
<g>
</g>
<g>
</g>
<g>
</g>
<g>
</g>
<g>
</g>
<g>
</g>
<g>
</g>
<g>
</g>
<g>
</g>
<g>
</g>
<g>
</g>
<g>
</g>
<g>
</g>
</svg>
