<?xml version="1.0" encoding="iso-8859-1"?>
<!-- Generator: Adobe Illustrator 16.0.0, SVG Export Plug-In . SVG Version: 6.00 Build 0)  -->
<!DOCTYPE svg PUBLIC "-//W3C//DTD SVG 1.1//EN" "http://www.w3.org/Graphics/SVG/1.1/DTD/svg11.dtd">
<svg version="1.1" id="Capa_1" xmlns="http://www.w3.org/2000/svg" xmlns:xlink="http://www.w3.org/1999/xlink" x="0px" y="0px"
	 width="96.998px" height="96.998px" viewBox="0 0 96.998 96.998" style="enable-background:new 0 0 96.998 96.998;"
	 xml:space="preserve">
<g>
	<path d="M0,20.667v55.664c0,1.104,0.896,2,2,2h92.998c1.104,0,2-0.896,2-2V20.667c0-1.104-0.896-2-2-2H2
		C0.895,18.667,0,19.562,0,20.667z M87.839,53.948c0,0.828-0.672,1.5-1.5,1.5H57.1c-0.828,0-1.5-0.672-1.5-1.5V43.05
		c0-0.828,0.672-1.5,1.5-1.5h29.239c0.828,0,1.5,0.672,1.5,1.5V53.948z M9.159,64.978c0-0.828,0.672-1.5,1.5-1.5h75.68
		c0.828,0,1.5,0.672,1.5,1.5v3.842c0,0.828-0.672,1.5-1.5,1.5h-75.68c-0.828,0-1.5-0.672-1.5-1.5V64.978z M9.159,46.578
		c0-0.828,0.672-1.5,1.5-1.5h33.92c0.828,0,1.5,0.672,1.5,1.5v3.842c0,0.828-0.672,1.5-1.5,1.5h-33.92c-0.828,0-1.5-0.672-1.5-1.5
		V46.578z M9.159,28.179c0-0.828,0.672-1.5,1.5-1.5h75.68c0.828,0,1.5,0.672,1.5,1.5v3.841c0,0.828-0.672,1.5-1.5,1.5h-75.68
		c-0.828,0-1.5-0.672-1.5-1.5V28.179z"/>
</g>
<g>
</g>
<g>
</g>
<g>
</g>
<g>
</g>
<g>
</g>
<g>
</g>
<g>
</g>
<g>
</g>
<g>
</g>
<g>
</g>
<g>
</g>
<g>
</g>
<g>
</g>
<g>
</g>
<g>
</g>
</svg>
