<?xml version="1.0" encoding="iso-8859-1"?>
<!-- Generator: Adobe Illustrator 16.0.0, SVG Export Plug-In . SVG Version: 6.00 Build 0)  -->
<!DOCTYPE svg PUBLIC "-//W3C//DTD SVG 1.1//EN" "http://www.w3.org/Graphics/SVG/1.1/DTD/svg11.dtd">
<svg version="1.1" id="Capa_1" xmlns="http://www.w3.org/2000/svg" xmlns:xlink="http://www.w3.org/1999/xlink" x="0px" y="0px"
	 width="96.998px" height="96.998px" viewBox="0 0 96.998 96.998" style="enable-background:new 0 0 96.998 96.998;"
	 xml:space="preserve">
<g>
	<path d="M94.998,18.667H2c-1.104,0-2,0.896-2,2v55.664c0,1.104,0.896,2,2,2h92.998c1.104,0,2-0.896,2-2V20.667
		C96.998,19.562,96.104,18.667,94.998,18.667z M9.159,43.05c0-0.828,0.672-1.5,1.5-1.5h29.24c0.828,0,1.5,0.672,1.5,1.5v10.898
		c0,0.828-0.672,1.5-1.5,1.5h-29.24c-0.828,0-1.5-0.672-1.5-1.5V43.05z M87.839,68.819c0,0.828-0.672,1.5-1.5,1.5h-75.68
		c-0.828,0-1.5-0.672-1.5-1.5v-3.842c0-0.828,0.672-1.5,1.5-1.5h75.68c0.828,0,1.5,0.672,1.5,1.5V68.819z M87.839,50.42
		c0,0.828-0.672,1.5-1.5,1.5h-33.92c-0.828,0-1.5-0.672-1.5-1.5v-3.842c0-0.828,0.672-1.5,1.5-1.5h33.92c0.828,0,1.5,0.672,1.5,1.5
		V50.42z M87.839,32.02c0,0.828-0.672,1.5-1.5,1.5h-75.68c-0.828,0-1.5-0.672-1.5-1.5v-3.841c0-0.828,0.672-1.5,1.5-1.5h75.68
		c0.828,0,1.5,0.672,1.5,1.5V32.02z"/>
</g>
<g>
</g>
<g>
</g>
<g>
</g>
<g>
</g>
<g>
</g>
<g>
</g>
<g>
</g>
<g>
</g>
<g>
</g>
<g>
</g>
<g>
</g>
<g>
</g>
<g>
</g>
<g>
</g>
<g>
</g>
</svg>
