<?xml version="1.0" encoding="iso-8859-1"?>
<!-- Generator: Adobe Illustrator 16.0.0, SVG Export Plug-In . SVG Version: 6.00 Build 0)  -->
<!DOCTYPE svg PUBLIC "-//W3C//DTD SVG 1.1//EN" "http://www.w3.org/Graphics/SVG/1.1/DTD/svg11.dtd">
<svg version="1.1" id="Capa_1" xmlns="http://www.w3.org/2000/svg" xmlns:xlink="http://www.w3.org/1999/xlink" x="0px" y="0px"
	 width="96.992px" height="96.992px" viewBox="0 0 96.992 96.992" style="enable-background:new 0 0 96.992 96.992;"
	 xml:space="preserve">
<g>
	<path d="M82.297,17.002L66.028,0.732C65.559,0.263,64.924,0,64.26,0H16.463c-1.381,0-2.5,1.119-2.5,2.5v91.992
		c0,1.381,1.119,2.5,2.5,2.5h64.066c1.381,0,2.5-1.119,2.5-2.5V18.769C83.029,18.105,82.766,17.471,82.297,17.002z M62.559,37.701
		c3.465,0,6.271,2.809,6.271,6.271s-2.809,6.271-6.271,6.271c-3.461,0-6.271-2.809-6.271-6.271S59.098,37.701,62.559,37.701z
		 M75.207,89.66l-52.843,0.027V59.299c3.644-5.738,8.62-10.775,14.904-10.826c14.658-0.119,22.613,26.926,22.613,26.926
		s5.721-12.959,15.325-8.062L75.207,89.66L75.207,89.66z M62.051,22.342c-0.337,0-0.658-0.133-0.896-0.371
		c-0.237-0.238-0.372-0.561-0.372-0.897l0.002-15.126L77.18,22.343L62.051,22.342L62.051,22.342z"/>
</g>
<g>
</g>
<g>
</g>
<g>
</g>
<g>
</g>
<g>
</g>
<g>
</g>
<g>
</g>
<g>
</g>
<g>
</g>
<g>
</g>
<g>
</g>
<g>
</g>
<g>
</g>
<g>
</g>
<g>
</g>
</svg>
