<?xml version="1.0" encoding="iso-8859-1"?>
<!-- Generator: Adobe Illustrator 16.0.0, SVG Export Plug-In . SVG Version: 6.00 Build 0)  -->
<!DOCTYPE svg PUBLIC "-//W3C//DTD SVG 1.1//EN" "http://www.w3.org/Graphics/SVG/1.1/DTD/svg11.dtd">
<svg version="1.1" id="Capa_1" xmlns="http://www.w3.org/2000/svg" xmlns:xlink="http://www.w3.org/1999/xlink" x="0px" y="0px"
	 width="95.75px" height="95.75px" viewBox="0 0 95.75 95.75" style="enable-background:new 0 0 95.75 95.75;" xml:space="preserve"
	>
<g>
	<path d="M93.203,0H2.547C1.141,0,0,1.141,0,2.546v90.657c0,1.406,1.141,2.546,2.547,2.546h90.656c1.406,0,2.547-1.14,2.547-2.546
		V2.546C95.75,1.141,94.609,0,93.203,0z M69.693,18.811c5.373,0,9.729,4.355,9.729,9.729c0,5.373-4.356,9.729-9.729,9.729
		s-9.729-4.355-9.729-9.729C59.965,23.166,64.32,18.811,69.693,18.811z M8.313,87.675c0.5-11,6.25-32.375,14.625-40.25
		c7.5-7,13.875-0.875,18.875,6.25c4.625,6.625,8.651,12.484,12.042,16.167c5.582,5.583,10.353-2.878,16.207-5.667
		c8.531-4.063,15.563,17.063,17.375,23.525L8.313,87.675z"/>
</g>
<g>
</g>
<g>
</g>
<g>
</g>
<g>
</g>
<g>
</g>
<g>
</g>
<g>
</g>
<g>
</g>
<g>
</g>
<g>
</g>
<g>
</g>
<g>
</g>
<g>
</g>
<g>
</g>
<g>
</g>
</svg>
