<?xml version="1.0" encoding="iso-8859-1"?>
<!-- Generator: Adobe Illustrator 16.0.0, SVG Export Plug-In . SVG Version: 6.00 Build 0)  -->
<!DOCTYPE svg PUBLIC "-//W3C//DTD SVG 1.1//EN" "http://www.w3.org/Graphics/SVG/1.1/DTD/svg11.dtd">
<svg version="1.1" id="Capa_1" xmlns="http://www.w3.org/2000/svg" xmlns:xlink="http://www.w3.org/1999/xlink" x="0px" y="0px"
	 width="97.5px" height="97.5px" viewBox="0 0 97.5 97.5" style="enable-background:new 0 0 97.5 97.5;" xml:space="preserve">
<g>
	<g>
		<path d="M91.875,61.75H75.007c-0.53,0-1.039,0.211-1.414,0.586L54.178,81.75c-1.449,1.449-3.378,2.248-5.428,2.248
			c-2.046,0-3.972-0.796-5.42-2.24L23.907,62.336c-0.375-0.375-0.884-0.586-1.414-0.586H5.625c-1.104,0-2,0.896-2,2V95.5
			c0,1.104,0.896,2,2,2h86.25c1.104,0,2-0.896,2-2V63.75C93.875,62.646,92.979,61.75,91.875,61.75z"/>
		<path d="M47.336,76.57c0.375,0.375,0.884,0.587,1.414,0.587s1.039-0.212,1.414-0.587l26.359-26.36c0.781-0.78,0.781-2.047,0-2.828
			l-6.597-6.598c-0.375-0.375-0.884-0.586-1.413-0.586c-0.531,0-1.039,0.211-1.414,0.586L55.838,52.045V2c0-1.104-0.896-2-2-2
			H43.662c-1.104,0-2,0.896-2,2v50.045L30.4,40.784c-0.781-0.781-2.048-0.781-2.828,0l-6.598,6.598
			c-0.375,0.375-0.586,0.884-0.586,1.414s0.211,1.039,0.586,1.414L47.336,76.57z"/>
	</g>
</g>
<g>
</g>
<g>
</g>
<g>
</g>
<g>
</g>
<g>
</g>
<g>
</g>
<g>
</g>
<g>
</g>
<g>
</g>
<g>
</g>
<g>
</g>
<g>
</g>
<g>
</g>
<g>
</g>
<g>
</g>
</svg>
