<?xml version="1.0" encoding="iso-8859-1"?>
<!-- Generator: Adobe Illustrator 16.0.0, SVG Export Plug-In . SVG Version: 6.00 Build 0)  -->
<!DOCTYPE svg PUBLIC "-//W3C//DTD SVG 1.1//EN" "http://www.w3.org/Graphics/SVG/1.1/DTD/svg11.dtd">
<svg version="1.1" id="Capa_1" xmlns="http://www.w3.org/2000/svg" xmlns:xlink="http://www.w3.org/1999/xlink" x="0px" y="0px"
	 width="97.5px" height="97.5px" viewBox="0 0 97.5 97.5" style="enable-background:new 0 0 97.5 97.5;" xml:space="preserve">
<g>
	<g>
		<path d="M42.79,0H2C0.896,0,0,0.896,0,2v40.79c0,1.104,0.896,2,2,2h40.79c1.104,0,2-0.896,2-2V2C44.79,0.896,43.894,0,42.79,0z
			 M14.161,7.912c0.232-0.561,0.779-0.926,1.386-0.926h13.697c0.607,0,1.154,0.365,1.386,0.926s0.104,1.206-0.325,1.635
			l-6.849,6.848c-0.293,0.293-0.677,0.439-1.061,0.439s-0.768-0.146-1.061-0.439l-6.848-6.848
			C14.057,9.118,13.929,8.473,14.161,7.912z M8.485,30.743c-0.193,0-0.388-0.037-0.574-0.114c-0.561-0.232-0.926-0.779-0.926-1.386
			V15.547c0-0.606,0.365-1.153,0.926-1.386c0.561-0.233,1.206-0.104,1.635,0.325l6.848,6.848c0.281,0.281,0.439,0.663,0.439,1.061
			s-0.158,0.779-0.439,1.061l-6.848,6.849C9.26,30.591,8.876,30.743,8.485,30.743z M30.628,36.878
			c-0.232,0.561-0.779,0.926-1.386,0.926H15.546c-0.606,0-1.154-0.365-1.386-0.926s-0.104-1.206,0.325-1.635l6.849-6.849
			c0.281-0.281,0.663-0.439,1.061-0.439s0.779,0.158,1.061,0.439l6.848,6.849C30.732,35.672,30.861,36.317,30.628,36.878z
			 M37.803,29.243c0,0.606-0.366,1.153-0.926,1.386c-0.186,0.077-0.381,0.114-0.574,0.114c-0.391,0-0.774-0.152-1.061-0.439
			l-6.848-6.849c-0.586-0.586-0.586-1.535,0-2.121l6.848-6.848c0.428-0.429,1.074-0.559,1.635-0.325
			c0.561,0.232,0.926,0.779,0.926,1.386V29.243z"/>
		<path d="M95.5,52.71H54.71c-1.104,0-2,0.896-2,2V95.5c0,1.104,0.896,2,2,2H95.5c1.104,0,2-0.896,2-2V54.71
			C97.5,53.605,96.604,52.71,95.5,52.71z M66.871,60.622c0.232-0.562,0.779-0.927,1.386-0.927h13.697
			c0.606,0,1.153,0.365,1.386,0.927s0.104,1.206-0.324,1.635l-6.85,6.849c-0.281,0.281-0.663,0.439-1.061,0.439
			c-0.398,0-0.779-0.158-1.062-0.439l-6.849-6.849C66.768,61.828,66.639,61.184,66.871,60.622z M61.195,83.453
			c-0.192,0-0.387-0.037-0.573-0.114c-0.562-0.231-0.927-0.778-0.927-1.386V68.257c0-0.606,0.365-1.153,0.927-1.386
			s1.207-0.104,1.635,0.324l6.849,6.85c0.281,0.281,0.438,0.663,0.438,1.061c0,0.398-0.157,0.779-0.438,1.062l-6.849,6.849
			C61.971,83.301,61.586,83.453,61.195,83.453z M83.338,89.588c-0.232,0.561-0.779,0.926-1.386,0.926H68.256
			c-0.607,0-1.154-0.365-1.386-0.926s-0.104-1.206,0.325-1.635l6.849-6.848c0.586-0.586,1.535-0.586,2.121,0l6.849,6.848
			C83.441,88.382,83.57,89.027,83.338,89.588z M90.514,81.953c0,0.605-0.365,1.152-0.926,1.386
			c-0.186,0.077-0.381,0.114-0.574,0.114c-0.391,0-0.773-0.152-1.061-0.439l-6.848-6.848c-0.281-0.281-0.439-0.663-0.439-1.061
			c0-0.398,0.158-0.779,0.439-1.062l6.848-6.849c0.428-0.43,1.07-0.56,1.635-0.325c0.561,0.231,0.926,0.778,0.926,1.386V81.953z"/>
		<path d="M42.79,52.71H2c-1.104,0-2,0.896-2,2V95.5c0,1.104,0.896,2,2,2h40.79c1.104,0,2-0.896,2-2V54.71
			C44.79,53.605,43.894,52.71,42.79,52.71z M37.804,89.014c0,0.828-0.671,1.5-1.5,1.5H8.486c-0.829,0-1.5-0.672-1.5-1.5V61.195
			c0-0.827,0.671-1.5,1.5-1.5h27.817c0.829,0,1.5,0.673,1.5,1.5L37.804,89.014L37.804,89.014z"/>
		<path d="M95.5,0H54.71c-1.104,0-2,0.896-2,2v40.79c0,1.104,0.896,2,2,2H95.5c1.104,0,2-0.896,2-2V2C97.5,0.896,96.604,0,95.5,0z
			 M90.514,36.304c0,0.828-0.671,1.5-1.5,1.5H61.197c-0.829,0-1.5-0.672-1.5-1.5V8.486c0-0.828,0.671-1.5,1.5-1.5h27.816
			c0.829,0,1.5,0.672,1.5,1.5V36.304z"/>
	</g>
</g>
<g>
</g>
<g>
</g>
<g>
</g>
<g>
</g>
<g>
</g>
<g>
</g>
<g>
</g>
<g>
</g>
<g>
</g>
<g>
</g>
<g>
</g>
<g>
</g>
<g>
</g>
<g>
</g>
<g>
</g>
</svg>
