<?xml version="1.0" encoding="iso-8859-1"?>
<!-- Generator: Adobe Illustrator 16.0.0, SVG Export Plug-In . SVG Version: 6.00 Build 0)  -->
<!DOCTYPE svg PUBLIC "-//W3C//DTD SVG 1.1//EN" "http://www.w3.org/Graphics/SVG/1.1/DTD/svg11.dtd">
<svg version="1.1" id="Capa_1" xmlns="http://www.w3.org/2000/svg" xmlns:xlink="http://www.w3.org/1999/xlink" x="0px" y="0px"
	 width="97.124px" height="97.125px" viewBox="0 0 97.124 97.125" style="enable-background:new 0 0 97.124 97.125;"
	 xml:space="preserve">
<g>
	<g>
		<path d="M33.708,48.562c0,8.189,6.663,14.854,14.854,14.854s14.854-6.664,14.854-14.854c0-8.19-6.664-14.853-14.854-14.853
			S33.708,40.372,33.708,48.562z"/>
		<path d="M25.184,40.859c0-11.347,10.389-20.579,23.157-20.579c12.321,0,22.276,8.847,23.156,20.578
			c0.271,3.649,2.92,6.298,6.297,6.298c3.474,0,6.298-2.825,6.298-6.297c0-18.292-16.037-33.174-35.751-33.174
			c-17.104,0-31.869,11.303-35.105,26.877H2c-1.104,0-2,0.896-2,2v8.595c0,1.104,0.896,2,2,2h16.888
			C22.654,47.156,25.184,44.626,25.184,40.859z"/>
		<path d="M95.125,49.968H78.236c-3.766,0-6.295,2.529-6.295,6.297c0,11.347-10.389,20.579-23.158,20.579
			c-12.321,0-22.276-8.847-23.156-20.578c-0.267-3.59-2.974-6.298-6.297-6.298c-3.473,0-6.298,2.824-6.298,6.297
			c0,18.292,16.038,33.174,35.751,33.174c17.104,0,31.869-11.303,35.105-26.876h11.235c1.104,0,2-0.896,2-2v-8.595
			C97.125,50.863,96.229,49.968,95.125,49.968z"/>
	</g>
</g>
<g>
</g>
<g>
</g>
<g>
</g>
<g>
</g>
<g>
</g>
<g>
</g>
<g>
</g>
<g>
</g>
<g>
</g>
<g>
</g>
<g>
</g>
<g>
</g>
<g>
</g>
<g>
</g>
<g>
</g>
</svg>
