<?xml version="1.0" encoding="iso-8859-1"?>
<!-- Generator: Adobe Illustrator 16.0.0, SVG Export Plug-In . SVG Version: 6.00 Build 0)  -->
<!DOCTYPE svg PUBLIC "-//W3C//DTD SVG 1.1//EN" "http://www.w3.org/Graphics/SVG/1.1/DTD/svg11.dtd">
<svg version="1.1" id="Capa_1" xmlns="http://www.w3.org/2000/svg" xmlns:xlink="http://www.w3.org/1999/xlink" x="0px" y="0px"
	 width="95.994px" height="95.994px" viewBox="0 0 95.994 95.994" style="enable-background:new 0 0 95.994 95.994;"
	 xml:space="preserve">
<g>
	<path d="M94.043,15.944V5.489C94.043,2.458,91.585,0,88.555,0h-60.84c-3.031,0-5.489,2.458-5.489,5.489v8.438H11.048
		c-5.016,0-9.097,4.081-9.097,9.097l0.016,0.389c0.404,4.979,4.273,45.492,22.819,52.01c-1.535,0.976-2.56,2.677-2.56,4.627v10.455
		c0,3.031,2.458,5.489,5.489,5.489h60.838c3.031,0,5.489-2.458,5.489-5.489V80.05c0-2.933-2.308-5.308-5.203-5.459V21.403
		C91.734,21.252,94.043,18.877,94.043,15.944z M11.62,23.533h15.809V66.18C18.063,62.18,12.86,37.027,11.62,23.533z"/>
</g>
<g>
</g>
<g>
</g>
<g>
</g>
<g>
</g>
<g>
</g>
<g>
</g>
<g>
</g>
<g>
</g>
<g>
</g>
<g>
</g>
<g>
</g>
<g>
</g>
<g>
</g>
<g>
</g>
<g>
</g>
</svg>
