<?xml version="1.0" encoding="iso-8859-1"?>
<!-- Generator: Adobe Illustrator 16.0.0, SVG Export Plug-In . SVG Version: 6.00 Build 0)  -->
<!DOCTYPE svg PUBLIC "-//W3C//DTD SVG 1.1//EN" "http://www.w3.org/Graphics/SVG/1.1/DTD/svg11.dtd">
<svg version="1.1" id="Capa_1" xmlns="http://www.w3.org/2000/svg" xmlns:xlink="http://www.w3.org/1999/xlink" x="0px" y="0px"
	 width="98.48px" height="98.48px" viewBox="0 0 98.48 98.48" style="enable-background:new 0 0 98.48 98.48;" xml:space="preserve"
	>
<g>
	<g>
		<path d="M85.442,15.55c-0.179-2.11-1.382-3.698-2.714-3.572c-0.678,0.058-1.264,0.527-1.651,1.325
			c-0.356,0.734-0.508,1.677-0.426,2.651c0.171,2.039,1.278,3.577,2.579,3.577c0.045,0,0.09-0.002,0.135-0.006
			C84.708,19.412,85.621,17.665,85.442,15.55z"/>
		<path d="M86.303,5.059C83.106,1.797,78.83,0,74.262,0c-4.437,0-8.623,1.709-11.791,4.813c-2.293,2.245-3.888,5.094-4.611,8.241
			H9.373c-1.104,0-2,0.896-2,2V96.48c0,1.104,0.896,2,2,2h59.928c1.104,0,2-0.896,2-2V33.441c0.979,0.174,1.979,0.262,2.972,0.262
			c4.433,0,8.616-1.708,11.782-4.81C92.693,22.391,92.805,11.699,86.303,5.059z M83.374,25.667c-2.375,2.327-5.515,3.608-8.84,3.608
			c-2.592,0-5.081-0.776-7.198-2.245l-0.253-0.175L49.818,43.766c-0.227,0.221-0.517,0.365-0.829,0.412l-2.003,0.298
			c-0.074,0.011-0.148,0.016-0.222,0.016c-0.563,0-1.086-0.317-1.342-0.833c-0.29-0.582-0.171-1.284,0.293-1.739l18.437-18.058
			l-0.17-0.254c-3.342-5.042-2.629-11.773,1.693-16.008c2.379-2.329,5.521-3.612,8.85-3.612c3.427,0,6.636,1.348,9.033,3.796
			C88.438,12.766,88.354,20.788,83.374,25.667z"/>
	</g>
</g>
<g>
</g>
<g>
</g>
<g>
</g>
<g>
</g>
<g>
</g>
<g>
</g>
<g>
</g>
<g>
</g>
<g>
</g>
<g>
</g>
<g>
</g>
<g>
</g>
<g>
</g>
<g>
</g>
<g>
</g>
</svg>
