<?xml version="1.0" encoding="iso-8859-1"?>
<!-- Generator: Adobe Illustrator 16.0.0, SVG Export Plug-In . SVG Version: 6.00 Build 0)  -->
<!DOCTYPE svg PUBLIC "-//W3C//DTD SVG 1.1//EN" "http://www.w3.org/Graphics/SVG/1.1/DTD/svg11.dtd">
<svg version="1.1" id="Capa_1" xmlns="http://www.w3.org/2000/svg" xmlns:xlink="http://www.w3.org/1999/xlink" x="0px" y="0px"
	 width="97.154px" height="97.154px" viewBox="0 0 97.154 97.154" style="enable-background:new 0 0 97.154 97.154;"
	 xml:space="preserve">
<g>
	<path d="M95.155,37.07H49.782c-0.69-1.78-0.075-2.836,0.132-3.121c0.428-0.589,2.219-1.399,4.087-2.246
		c4.54-1.974,7.431-5.197,7.931-8.843c0.383-2.81-0.655-5.61-3.004-8.098c-0.396-0.419-0.961-0.656-1.529-0.625
		c-0.576,0.021-1.114,0.29-1.479,0.737l-1.464,1.803c-0.62,0.763-0.593,1.864,0.063,2.596c0.888,0.989,1.279,1.909,1.166,2.734
		c-0.187,1.371-1.801,2.875-4.239,3.935c-5.69,2.575-8.626,4.24-7.911,11.126H2c-1.104,0-2,0.896-2,2v41.953c0,1.104,0.896,2,2,2
		h93.154c1.104,0,2-0.896,2-2V39.07C97.155,37.966,96.26,37.07,95.155,37.07z M34.924,45.612c0-0.829,0.671-1.5,1.5-1.5h4.353
		c0.829,0,1.5,0.671,1.5,1.5v4.351c0,0.829-0.671,1.5-1.5,1.5h-4.353c-0.829,0-1.5-0.671-1.5-1.5V45.612z M22.32,45.612
		c0-0.829,0.671-1.5,1.5-1.5h4.352c0.829,0,1.5,0.671,1.5,1.5v4.351c0,0.829-0.671,1.5-1.5,1.5H23.82c-0.829,0-1.5-0.671-1.5-1.5
		V45.612z M22.32,58.216c0-0.829,0.671-1.5,1.5-1.5h4.352c0.829,0,1.5,0.671,1.5,1.5v4.353c0,0.829-0.671,1.5-1.5,1.5H23.82
		c-0.829,0-1.5-0.671-1.5-1.5V58.216z M17.069,75.171c0,0.829-0.671,1.5-1.5,1.5h-4.352c-0.829,0-1.5-0.671-1.5-1.5v-4.352
		c0-0.829,0.671-1.5,1.5-1.5h4.352c0.829,0,1.5,0.671,1.5,1.5V75.171z M17.069,62.567c0,0.829-0.671,1.5-1.5,1.5h-4.352
		c-0.829,0-1.5-0.671-1.5-1.5v-4.354c0-0.828,0.671-1.5,1.5-1.5h4.352c0.829,0,1.5,0.672,1.5,1.5V62.567z M17.069,49.963
		c0,0.829-0.671,1.5-1.5,1.5h-4.352c-0.829,0-1.5-0.671-1.5-1.5v-4.351c0-0.829,0.671-1.5,1.5-1.5h4.352c0.829,0,1.5,0.671,1.5,1.5
		V49.963z M42.276,75.171c0,0.829-0.671,1.5-1.5,1.5H23.82c-0.829,0-1.5-0.671-1.5-1.5v-4.352c0-0.829,0.671-1.5,1.5-1.5h16.956
		c0.829,0,1.5,0.671,1.5,1.5V75.171z M54.88,75.171c0,0.829-0.671,1.5-1.5,1.5h-4.352c-0.829,0-1.5-0.671-1.5-1.5v-4.352
		c0-0.829,0.671-1.5,1.5-1.5h4.352c0.829,0,1.5,0.671,1.5,1.5V75.171z M54.88,62.567c0,0.829-0.671,1.5-1.5,1.5h-17
		c-0.829,0-1.5-0.671-1.5-1.5v-4.354c0-0.828,0.671-1.5,1.5-1.5h10.622c0.29,0,0.525-0.234,0.525-0.524V45.612
		c0-0.829,0.671-1.5,1.5-1.5h4.352c0.829,0,1.5,0.671,1.5,1.5L54.88,62.567L54.88,62.567z M70.109,73.07c0,0.829-0.672,1.5-1.5,1.5
		h-4.352c-0.83,0-1.5-0.671-1.5-1.5v-4.352c0-0.829,0.67-1.5,1.5-1.5h4.352c0.828,0,1.5,0.671,1.5,1.5V73.07z M70.109,62.567
		c0,0.829-0.672,1.5-1.5,1.5h-4.352c-0.83,0-1.5-0.671-1.5-1.5v-4.354c0-0.828,0.67-1.5,1.5-1.5h4.352c0.828,0,1.5,0.672,1.5,1.5
		V62.567z M70.109,52.064c0,0.829-0.672,1.5-1.5,1.5h-4.352c-0.83,0-1.5-0.671-1.5-1.5v-4.352c0-0.829,0.67-1.5,1.5-1.5h4.352
		c0.828,0,1.5,0.671,1.5,1.5V52.064z M80.613,73.07c0,0.829-0.672,1.5-1.5,1.5H74.76c-0.828,0-1.5-0.671-1.5-1.5v-4.352
		c0-0.829,0.672-1.5,1.5-1.5h4.354c0.828,0,1.5,0.671,1.5,1.5V73.07z M80.613,62.567c0,0.829-0.672,1.5-1.5,1.5H74.76
		c-0.828,0-1.5-0.671-1.5-1.5v-4.354c0-0.828,0.672-1.5,1.5-1.5h4.354c0.828,0,1.5,0.672,1.5,1.5V62.567z M80.613,52.064
		c0,0.829-0.672,1.5-1.5,1.5H74.76c-0.828,0-1.5-0.671-1.5-1.5v-4.352c0-0.829,0.672-1.5,1.5-1.5h4.354c0.828,0,1.5,0.671,1.5,1.5
		V52.064z M91.116,73.07c0,0.829-0.671,1.5-1.5,1.5h-4.353c-0.828,0-1.5-0.671-1.5-1.5V58.216c0-0.829,0.672-1.5,1.5-1.5h4.353
		c0.829,0,1.5,0.671,1.5,1.5V73.07z M91.116,52.064c0,0.829-0.671,1.5-1.5,1.5h-4.353c-0.828,0-1.5-0.671-1.5-1.5v-4.352
		c0-0.829,0.672-1.5,1.5-1.5h4.353c0.829,0,1.5,0.671,1.5,1.5V52.064z"/>
</g>
<g>
</g>
<g>
</g>
<g>
</g>
<g>
</g>
<g>
</g>
<g>
</g>
<g>
</g>
<g>
</g>
<g>
</g>
<g>
</g>
<g>
</g>
<g>
</g>
<g>
</g>
<g>
</g>
<g>
</g>
</svg>
