<?xml version="1.0" encoding="iso-8859-1"?>
<!-- Generator: Adobe Illustrator 16.0.0, SVG Export Plug-In . SVG Version: 6.00 Build 0)  -->
<!DOCTYPE svg PUBLIC "-//W3C//DTD SVG 1.1//EN" "http://www.w3.org/Graphics/SVG/1.1/DTD/svg11.dtd">
<svg version="1.1" id="Capa_1" xmlns="http://www.w3.org/2000/svg" xmlns:xlink="http://www.w3.org/1999/xlink" x="0px" y="0px"
	 width="97.614px" height="97.614px" viewBox="0 0 97.614 97.614" style="enable-background:new 0 0 97.614 97.614;"
	 xml:space="preserve">
<g>
	<path d="M91.653,48.806l4.889-6.98c0.304-0.435,0.423-0.972,0.332-1.495c-0.092-0.522-0.388-0.987-0.823-1.292l-6.98-4.887
		l2.206-8.233c0.138-0.512,0.064-1.058-0.2-1.518c-0.266-0.46-0.702-0.794-1.214-0.932l-8.231-2.204l-0.743-8.494
		c-0.046-0.528-0.3-1.017-0.707-1.358c-0.407-0.341-0.936-0.512-1.46-0.46l-8.489,0.746l-3.604-7.723
		c-0.466-1-1.654-1.433-2.658-0.967l-7.723,3.602l-6.026-6.026c-0.781-0.78-2.047-0.78-2.828,0l-6.026,6.026l-7.723-3.602
		c-0.48-0.224-1.032-0.249-1.529-0.067c-0.499,0.182-0.904,0.553-1.128,1.034L27.385,11.7l-8.49-0.743
		c-0.529-0.051-1.054,0.119-1.46,0.46c-0.406,0.341-0.661,0.83-0.707,1.358l-0.743,8.489L7.752,23.47
		c-0.512,0.137-0.949,0.472-1.214,0.932c-0.265,0.46-0.337,1.005-0.2,1.518l2.206,8.232L1.563,39.04
		c-0.435,0.304-0.73,0.769-0.823,1.291c-0.092,0.522,0.027,1.06,0.332,1.495l4.888,6.98l-4.889,6.981
		c-0.304,0.436-0.423,0.973-0.332,1.495c0.092,0.522,0.388,0.987,0.823,1.291l6.981,4.889l-2.206,8.23
		c-0.138,0.512-0.065,1.058,0.2,1.518c0.265,0.461,0.702,0.795,1.214,0.933l8.232,2.206l0.743,8.494
		c0.046,0.527,0.3,1.017,0.707,1.357c0.406,0.34,0.931,0.506,1.46,0.46l8.489-0.746l3.602,7.724c0.224,0.48,0.63,0.853,1.128,1.034
		c0.5,0.183,1.05,0.156,1.53-0.067l7.722-3.603l6.026,6.026c0.39,0.391,0.902,0.586,1.414,0.586c0.512,0,1.023-0.195,1.414-0.586
		l6.026-6.024l7.723,3.601c1.003,0.467,2.191,0.033,2.658-0.967l3.602-7.725l8.49,0.743c0.523,0.045,1.053-0.12,1.46-0.46
		c0.406-0.341,0.661-0.83,0.707-1.357l0.743-8.489l8.232-2.207c0.513-0.137,0.948-0.472,1.214-0.933
		c0.266-0.459,0.337-1.005,0.199-1.518l-2.206-8.231l6.982-4.887c0.436-0.305,0.73-0.769,0.823-1.292
		c0.092-0.521-0.027-1.06-0.332-1.495L91.653,48.806z"/>
</g>
<g>
</g>
<g>
</g>
<g>
</g>
<g>
</g>
<g>
</g>
<g>
</g>
<g>
</g>
<g>
</g>
<g>
</g>
<g>
</g>
<g>
</g>
<g>
</g>
<g>
</g>
<g>
</g>
<g>
</g>
</svg>
