<?xml version="1.0" encoding="iso-8859-1"?>
<!-- Generator: Adobe Illustrator 16.0.0, SVG Export Plug-In . SVG Version: 6.00 Build 0)  -->
<!DOCTYPE svg PUBLIC "-//W3C//DTD SVG 1.1//EN" "http://www.w3.org/Graphics/SVG/1.1/DTD/svg11.dtd">
<svg version="1.1" id="Capa_1" xmlns="http://www.w3.org/2000/svg" xmlns:xlink="http://www.w3.org/1999/xlink" x="0px" y="0px"
	 width="95.749px" height="95.749px" viewBox="0 0 95.749 95.749" style="enable-background:new 0 0 95.749 95.749;"
	 xml:space="preserve">
<g>
	<g>
		<path d="M17.438,27.952h15.75c0.829,0,1.5-0.671,1.5-1.5v-5.644c0-0.829-0.671-1.5-1.5-1.5h-15.75c-0.829,0-1.5,0.671-1.5,1.5
			v5.644C15.938,27.281,16.609,27.952,17.438,27.952z"/>
		<path d="M43.563,27.952h34.75c0.83,0,1.5-0.671,1.5-1.5v-5.644c0-0.829-0.67-1.5-1.5-1.5h-34.75c-0.829,0-1.5,0.671-1.5,1.5v5.644
			C42.063,27.281,42.734,27.952,43.563,27.952z"/>
		<path d="M93.204,0H2.546C1.14,0,0,1.14,0,2.546v90.657c0,1.406,1.14,2.546,2.546,2.546h90.657c1.406,0,2.546-1.14,2.546-2.546
			V2.546C95.75,1.14,94.609,0,93.204,0z M9.523,12.278c0-1.228,0.996-2.223,2.224-2.223h72.256c1.228,0,2.224,0.995,2.224,2.223
			v22.751c0,1.228-0.996,2.223-2.224,2.223H11.747c-1.228,0-2.224-0.995-2.224-2.223V12.278z M21.063,77.375
			c0,0.829-0.671,1.5-1.5,1.5h-8.75c-0.829,0-1.5-0.671-1.5-1.5V71.73c0-0.828,0.671-1.5,1.5-1.5h8.75c0.829,0,1.5,0.672,1.5,1.5
			V77.375z M21.063,57.375c0,0.829-0.671,1.5-1.5,1.5h-8.75c-0.829,0-1.5-0.671-1.5-1.5V51.73c0-0.828,0.671-1.5,1.5-1.5h8.75
			c0.829,0,1.5,0.672,1.5,1.5V57.375z M55.188,77.375c0,0.829-0.67,1.5-1.5,1.5h-23.75c-0.829,0-1.5-0.671-1.5-1.5V71.73
			c0-0.828,0.671-1.5,1.5-1.5h23.75c0.83,0,1.5,0.672,1.5,1.5V77.375z M55.188,57.375c0,0.829-0.67,1.5-1.5,1.5h-23.75
			c-0.829,0-1.5-0.671-1.5-1.5V51.73c0-0.828,0.671-1.5,1.5-1.5h23.75c0.83,0,1.5,0.672,1.5,1.5V57.375z M86.438,77.375
			c0,0.829-0.67,1.5-1.5,1.5h-20.75c-0.828,0-1.5-0.671-1.5-1.5V51.73c0-0.828,0.672-1.5,1.5-1.5h20.75c0.83,0,1.5,0.672,1.5,1.5
			V77.375z"/>
	</g>
</g>
<g>
</g>
<g>
</g>
<g>
</g>
<g>
</g>
<g>
</g>
<g>
</g>
<g>
</g>
<g>
</g>
<g>
</g>
<g>
</g>
<g>
</g>
<g>
</g>
<g>
</g>
<g>
</g>
<g>
</g>
</svg>
