<?xml version="1.0" encoding="iso-8859-1"?>
<!-- Generator: Adobe Illustrator 16.0.0, SVG Export Plug-In . SVG Version: 6.00 Build 0)  -->
<!DOCTYPE svg PUBLIC "-//W3C//DTD SVG 1.1//EN" "http://www.w3.org/Graphics/SVG/1.1/DTD/svg11.dtd">
<svg version="1.1" id="Capa_1" xmlns="http://www.w3.org/2000/svg" xmlns:xlink="http://www.w3.org/1999/xlink" x="0px" y="0px"
	 width="94.527px" height="94.527px" viewBox="0 0 94.527 94.527" style="enable-background:new 0 0 94.527 94.527;"
	 xml:space="preserve">
<g>
	<path d="M87.35,0.439c-4.94,3.046-22.9,5.141-22.9,5.141c-50.983,6.316-39.358,55.185-38.666,58.558
		C46.689,49.651,61.654,31.581,61.85,31.34l0.015,0.012c1.721-2.081,4.107-2.505,6.091-0.666c2.017,1.87,0.7,4.811-1.019,6.906
		c-0.729,0.888-12.113,14.626-29.142,28.058c-8.874,6.632-22.788,15.317-32.82,19.428c-2.509,1.028-3.708,3.895-2.68,6.402
		c0.777,1.899,2.609,3.048,4.542,3.048c0.62,0,1.25-0.119,1.859-0.368c8.903-3.648,22.883-13.007,33.182-20.468
		C94.098,77.51,99.074-6.784,87.35,0.439z"/>
</g>
<g>
</g>
<g>
</g>
<g>
</g>
<g>
</g>
<g>
</g>
<g>
</g>
<g>
</g>
<g>
</g>
<g>
</g>
<g>
</g>
<g>
</g>
<g>
</g>
<g>
</g>
<g>
</g>
<g>
</g>
</svg>
