<?xml version="1.0" encoding="iso-8859-1"?>
<!-- Generator: Adobe Illustrator 16.0.0, SVG Export Plug-In . SVG Version: 6.00 Build 0)  -->
<!DOCTYPE svg PUBLIC "-//W3C//DTD SVG 1.1//EN" "http://www.w3.org/Graphics/SVG/1.1/DTD/svg11.dtd">
<svg version="1.1" id="Capa_1" xmlns="http://www.w3.org/2000/svg" xmlns:xlink="http://www.w3.org/1999/xlink" x="0px" y="0px"
	 width="98.421px" height="98.421px" viewBox="0 0 98.421 98.421" style="enable-background:new 0 0 98.421 98.421;"
	 xml:space="preserve">
<g>
	<g>
		<path d="M10.047,49.211c0-0.638,0.341-1.228,0.893-1.546l28.083-16.217v-2.707c0-0.638-0.341-1.229-0.894-1.547
			c-0.553-0.319-1.233-0.319-1.785,0L0.894,47.665C0.342,47.983,0,48.573,0,49.211c0,0.639,0.342,1.229,0.894,1.546l35.45,20.471
			c0.276,0.159,0.585,0.238,0.893,0.238c0.308,0,0.616-0.08,0.893-0.238c0.553-0.319,0.894-0.909,0.894-1.548v-2.706L10.939,50.757
			C10.388,50.439,10.047,49.85,10.047,49.211z"/>
		<path d="M98.1,66.104l-1.08-1.551C79.652,40.797,54.827,37.344,54.578,37.312h-0.001v-8.572c0-0.638-0.341-1.229-0.894-1.547
			c-0.554-0.319-1.233-0.319-1.787,0l-35.45,20.471c-0.553,0.319-0.894,0.909-0.894,1.546c0,0.639,0.341,1.229,0.894,1.546
			l35.45,20.471c0.276,0.159,0.586,0.238,0.894,0.238s0.616-0.08,0.894-0.238c0.553-0.319,0.894-0.909,0.894-1.548l0.001-9.101
			c0.509-0.221,4.48-1.883,11.09-1.883c8.832,0,18.059,2.834,27.421,8.423c0.04,0.023,0.71,0.402,1.019,0.586l1.619,0.957
			c0.725,0.429,1.647,0.292,2.219-0.323C98.516,67.725,98.58,66.793,98.1,66.104z"/>
	</g>
</g>
<g>
</g>
<g>
</g>
<g>
</g>
<g>
</g>
<g>
</g>
<g>
</g>
<g>
</g>
<g>
</g>
<g>
</g>
<g>
</g>
<g>
</g>
<g>
</g>
<g>
</g>
<g>
</g>
<g>
</g>
</svg>
