<?xml version="1.0" encoding="iso-8859-1"?>
<!-- Generator: Adobe Illustrator 16.0.0, SVG Export Plug-In . SVG Version: 6.00 Build 0)  -->
<!DOCTYPE svg PUBLIC "-//W3C//DTD SVG 1.1//EN" "http://www.w3.org/Graphics/SVG/1.1/DTD/svg11.dtd">
<svg version="1.1" id="Capa_1" xmlns="http://www.w3.org/2000/svg" xmlns:xlink="http://www.w3.org/1999/xlink" x="0px" y="0px"
	 width="98.148px" height="98.149px" viewBox="0 0 98.148 98.149" style="enable-background:new 0 0 98.148 98.149;"
	 xml:space="preserve">
<g>
	<path d="M79.007,42.809c-10.712-13.517-25.166-24.057-41.798-30.48l-0.4-0.154L38.08,5c0.13-0.729-0.14-1.476-0.709-1.953
		c-0.567-0.479-1.348-0.616-2.046-0.362L1.369,15.018c-0.698,0.254-1.208,0.859-1.337,1.591c-0.129,0.73,0.141,1.476,0.709,1.953
		l27.654,23.245c0.568,0.477,1.348,0.617,2.046,0.362c0.698-0.254,1.208-0.86,1.337-1.591l1.181-6.674l0.609,0.273
		c25.028,11.225,41.503,34.002,42.999,59.447c0.064,1.099,0.973,1.956,2.073,1.957l17.43,0.008c0.001,0,0.001,0,0.001,0
		c0.57,0,1.115-0.233,1.508-0.646c0.394-0.414,0.599-0.971,0.567-1.54C97.187,75.139,90.39,57.172,79.007,42.809z"/>
</g>
<g>
</g>
<g>
</g>
<g>
</g>
<g>
</g>
<g>
</g>
<g>
</g>
<g>
</g>
<g>
</g>
<g>
</g>
<g>
</g>
<g>
</g>
<g>
</g>
<g>
</g>
<g>
</g>
<g>
</g>
</svg>
