<?xml version="1.0" encoding="iso-8859-1"?>
<!-- Generator: Adobe Illustrator 16.0.0, SVG Export Plug-In . SVG Version: 6.00 Build 0)  -->
<!DOCTYPE svg PUBLIC "-//W3C//DTD SVG 1.1//EN" "http://www.w3.org/Graphics/SVG/1.1/DTD/svg11.dtd">
<svg version="1.1" id="Capa_1" xmlns="http://www.w3.org/2000/svg" xmlns:xlink="http://www.w3.org/1999/xlink" x="0px" y="0px"
	 width="95.933px" height="95.933px" viewBox="0 0 95.933 95.933" style="enable-background:new 0 0 95.933 95.933;"
	 xml:space="preserve">
<g>
	<path d="M81.884,14.048c-18.731-18.731-49.103-18.731-67.835,0c-18.732,18.732-18.732,49.104,0,67.836
		c18.732,18.73,49.104,18.73,67.835,0C100.615,63.152,100.615,32.78,81.884,14.048z M58.266,12.293c0.096-0.429,0.375-0.794,0.762-1
		c0.39-0.205,0.849-0.23,1.256-0.068c5.521,2.192,10.474,5.458,14.722,9.705c4.246,4.247,7.512,9.199,9.703,14.719
		c0.161,0.408,0.137,0.867-0.068,1.256c-0.205,0.388-0.569,0.666-1,0.762L60.693,42.78c-0.011,0.002-0.021,0.001-0.029,0.003
		c-0.68-1.666-1.69-3.199-3.004-4.513c-1.312-1.31-2.842-2.318-4.506-2.998c0.002-0.01,0-0.021,0.002-0.03L58.266,12.293z
		 M52.182,52.18c-1.129,1.127-2.625,1.746-4.215,1.746s-3.086-0.619-4.213-1.744c-1.127-1.129-1.746-2.625-1.746-4.215
		c0-1.591,0.619-3.087,1.744-4.213c1.129-1.127,2.625-1.746,4.215-1.746s3.086,0.619,4.213,1.744
		c1.127,1.128,1.746,2.624,1.746,4.215C53.926,49.557,53.307,51.053,52.182,52.18z M11.227,35.649
		c2.191-5.519,5.457-10.471,9.703-14.719c4.25-4.248,9.201-7.513,14.721-9.705c0.408-0.162,0.867-0.137,1.256,0.068
		c0.387,0.206,0.666,0.571,0.762,1l5.111,22.948c0.002,0.01,0,0.021,0.002,0.03c-1.665,0.681-3.197,1.69-4.511,3.002
		c-1.311,1.312-2.319,2.843-3,4.508c-0.009-0.002-0.019-0.001-0.028-0.003l-22.948-5.112c-0.43-0.096-0.795-0.374-1-0.762
		S11.065,36.057,11.227,35.649z M37.668,83.639c-0.096,0.43-0.375,0.795-0.764,1c-0.219,0.115-0.459,0.175-0.701,0.175
		c-0.188,0-0.375-0.035-0.553-0.106c-5.523-2.193-10.477-5.459-14.721-9.703c-4.246-4.248-7.512-9.199-9.703-14.721
		c-0.162-0.408-0.137-0.867,0.068-1.256s0.57-0.666,1-0.762l22.947-5.112c0.01-0.002,0.02,0,0.029-0.002
		c0.681,1.666,1.69,3.198,3.004,4.513c1.312,1.309,2.842,2.317,4.506,2.997c-0.002,0.011,0,0.021-0.002,0.029L37.668,83.639z
		 M84.707,60.282c-2.191,5.521-5.457,10.474-9.703,14.72s-9.197,7.51-14.721,9.705c-0.178,0.07-0.365,0.105-0.553,0.105
		c-0.242,0-0.482-0.059-0.701-0.174c-0.39-0.207-0.668-0.571-0.765-1l-5.11-22.949c-0.002-0.01,0-0.02-0.002-0.029
		c1.664-0.681,3.196-1.689,4.51-3.002c1.312-1.312,2.32-2.842,3-4.508c0.01,0.002,0.02,0,0.029,0.002l22.946,5.111
		c0.431,0.097,0.795,0.375,1,0.763C84.844,59.416,84.869,59.875,84.707,60.282z"/>
</g>
<g>
</g>
<g>
</g>
<g>
</g>
<g>
</g>
<g>
</g>
<g>
</g>
<g>
</g>
<g>
</g>
<g>
</g>
<g>
</g>
<g>
</g>
<g>
</g>
<g>
</g>
<g>
</g>
<g>
</g>
</svg>
