<?xml version="1.0" encoding="iso-8859-1"?>
<!-- Generator: Adobe Illustrator 16.0.0, SVG Export Plug-In . SVG Version: 6.00 Build 0)  -->
<!DOCTYPE svg PUBLIC "-//W3C//DTD SVG 1.1//EN" "http://www.w3.org/Graphics/SVG/1.1/DTD/svg11.dtd">
<svg version="1.1" id="Capa_1" xmlns="http://www.w3.org/2000/svg" xmlns:xlink="http://www.w3.org/1999/xlink" x="0px" y="0px"
	 width="97px" height="97px" viewBox="0 0 97 97" style="enable-background:new 0 0 97 97;" xml:space="preserve">
<g>
	<path d="M48.5,0C21.758,0,0,21.757,0,48.5S21.758,97,48.5,97S97,75.243,97,48.5S75.242,0,48.5,0z M23.457,48.5
		c0-13.809,11.234-25.043,25.043-25.043c13.809,0,25.043,11.234,25.043,25.043c0,13.809-11.234,25.043-25.043,25.043
		C34.691,73.543,23.457,62.309,23.457,48.5z M77.805,60.992c1.641-3.838,2.553-8.061,2.553-12.492c0-4.431-0.912-8.654-2.553-12.492
		l7.812-7.813c3.312,6.031,5.201,12.951,5.201,20.305c0,7.354-1.889,14.273-5.202,20.307L77.805,60.992z M68.807,11.383
		l-7.813,7.813c-3.839-1.642-8.062-2.554-12.493-2.554c-4.431,0-8.654,0.912-12.493,2.554l-7.813-7.813
		C34.227,8.07,41.146,6.181,48.5,6.181C55.854,6.181,62.773,8.07,68.807,11.383z M11.384,28.194l7.813,7.813
		c-1.642,3.838-2.554,8.061-2.554,12.492c0,4.433,0.912,8.653,2.555,12.493l-7.813,7.812C8.07,62.773,6.182,55.854,6.182,48.5
		C6.182,41.146,8.07,34.226,11.384,28.194z M28.194,85.617l7.813-7.812c3.839,1.641,8.061,2.553,12.492,2.553
		c4.431,0,8.653-0.912,12.492-2.553l7.813,7.812c-6.031,3.312-12.951,5.201-20.305,5.201C41.146,90.818,34.227,88.93,28.194,85.617z
		"/>
</g>
<g>
</g>
<g>
</g>
<g>
</g>
<g>
</g>
<g>
</g>
<g>
</g>
<g>
</g>
<g>
</g>
<g>
</g>
<g>
</g>
<g>
</g>
<g>
</g>
<g>
</g>
<g>
</g>
<g>
</g>
</svg>
