<?xml version="1.0" encoding="iso-8859-1"?>
<!-- Generator: Adobe Illustrator 16.0.0, SVG Export Plug-In . SVG Version: 6.00 Build 0)  -->
<!DOCTYPE svg PUBLIC "-//W3C//DTD SVG 1.1//EN" "http://www.w3.org/Graphics/SVG/1.1/DTD/svg11.dtd">
<svg version="1.1" id="Capa_1" xmlns="http://www.w3.org/2000/svg" xmlns:xlink="http://www.w3.org/1999/xlink" x="0px" y="0px"
	 width="97.562px" height="97.562px" viewBox="0 0 97.562 97.562" style="enable-background:new 0 0 97.562 97.562;"
	 xml:space="preserve">
<g>
	<path d="M79.545,27.006C78.258,8.37,63.527,0.012,48.801,0c-0.006,0-0.013,0-0.02,0s-0.014,0-0.02,0
		C34.034,0.012,19.304,8.37,18.017,27.005c-0.133,1.325-0.177,2.65-0.108,3.992c0.08,1.547,0.259,3.095,0.587,4.613
		c0.809,3.784,2.355,7.255,4.622,10.407c0.778,1.081,13.078,18.189,14.251,29.534C36.605,75.602,36,76.229,36,77.006v12.883
		c0,4.23,3.442,7.673,7.674,7.673h10.214c4.231,0,7.675-3.441,7.675-7.673V77.006c0-0.775-0.605-1.404-1.369-1.455
		c1.173-11.344,13.474-28.453,14.251-29.533c2.267-3.152,3.812-6.623,4.622-10.407c0.329-1.518,0.507-3.065,0.587-4.613
		C79.721,29.656,79.677,28.331,79.545,27.006z M70.944,31.111c-0.063,1.21-0.196,2.275-0.411,3.269
		c-0.563,2.624-1.65,5.071-3.231,7.271c-2.724,3.782-10.676,15.43-13.027,25.479H43.289c-2.353-10.05-10.304-21.697-13.027-25.477
		c-1.583-2.203-2.671-4.651-3.235-7.285c-0.213-0.986-0.347-2.052-0.408-3.255c-0.047-0.887-0.021-1.787,0.076-2.751l0.009-0.081
		l0.004-0.081C27.68,14.139,38.74,9.119,48.781,9.111h0.013C58.822,9.119,69.882,14.139,70.856,28.2l0.003,0.081l0.009,0.081
		C70.965,29.327,70.99,30.227,70.944,31.111z"/>
</g>
<g>
</g>
<g>
</g>
<g>
</g>
<g>
</g>
<g>
</g>
<g>
</g>
<g>
</g>
<g>
</g>
<g>
</g>
<g>
</g>
<g>
</g>
<g>
</g>
<g>
</g>
<g>
</g>
<g>
</g>
</svg>
