<?xml version="1.0" encoding="iso-8859-1"?>
<!-- Generator: Adobe Illustrator 16.0.0, SVG Export Plug-In . SVG Version: 6.00 Build 0)  -->
<!DOCTYPE svg PUBLIC "-//W3C//DTD SVG 1.1//EN" "http://www.w3.org/Graphics/SVG/1.1/DTD/svg11.dtd">
<svg version="1.1" id="Capa_1" xmlns="http://www.w3.org/2000/svg" xmlns:xlink="http://www.w3.org/1999/xlink" x="0px" y="0px"
	 width="90.852px" height="90.852px" viewBox="0 0 90.852 90.852" style="enable-background:new 0 0 90.852 90.852;"
	 xml:space="preserve">
<g>
	<g>
		<path d="M83.05,83.873c-4.13,4.629-10.198,6.979-18.037,6.979c-15.455,0-32.887-8.986-36.225-10.789
			c-0.654-0.354-1.063-1.037-1.063-1.781V31.471c0-0.982,0.706-1.822,1.672-1.994c3.476-0.613,21.037-4.4,25.554-18.645
			C56.972,4.453,61.32,0,65.523,0c1.885,0,3.543,0.938,4.672,2.639c3.201,4.838,1.955,15.256-3.422,28.588
			c1.412-0.328,2.848-0.496,4.266-0.496c5.738,0,15.699,2.922,17.929,22.479C90.58,67.35,88.59,77.668,83.05,83.873z"/>
		<path d="M21.354,80.535V28.748c0-1.117-0.905-2.023-2.024-2.023H3.366c-1.117,0-2.024,0.906-2.024,2.023v51.787
			c0,1.119,0.907,2.024,2.024,2.024h15.963C20.448,82.561,21.354,81.654,21.354,80.535z M15.271,74.586
			c0,2.162-1.76,3.922-3.922,3.922c-2.162,0-3.922-1.76-3.922-3.922s1.76-3.922,3.922-3.922
			C13.511,70.664,15.271,72.424,15.271,74.586z"/>
	</g>
</g>
<g>
</g>
<g>
</g>
<g>
</g>
<g>
</g>
<g>
</g>
<g>
</g>
<g>
</g>
<g>
</g>
<g>
</g>
<g>
</g>
<g>
</g>
<g>
</g>
<g>
</g>
<g>
</g>
<g>
</g>
</svg>
