<?xml version="1.0" encoding="iso-8859-1"?>
<!-- Generator: Adobe Illustrator 16.0.0, SVG Export Plug-In . SVG Version: 6.00 Build 0)  -->
<!DOCTYPE svg PUBLIC "-//W3C//DTD SVG 1.1//EN" "http://www.w3.org/Graphics/SVG/1.1/DTD/svg11.dtd">
<svg version="1.1" id="Capa_1" xmlns="http://www.w3.org/2000/svg" xmlns:xlink="http://www.w3.org/1999/xlink" x="0px" y="0px"
	 width="96.186px" height="96.186px" viewBox="0 0 96.186 96.186" style="enable-background:new 0 0 96.186 96.186;"
	 xml:space="preserve">
<g>
	<path d="M95.133,0H1.053C0.472,0,0,0.473,0,1.053v94.08c0,0.581,0.473,1.053,1.053,1.053h94.08c0.581,0,1.053-0.473,1.053-1.053
		V1.053C96.186,0.473,95.713,0,95.133,0z M16.264,84.986c-4.395,0-7.958-3.563-7.958-7.959c0-4.395,3.563-7.957,7.958-7.957
		s7.957,3.563,7.957,7.957C24.221,81.422,20.658,84.986,16.264,84.986z M16.264,56.051c-4.395,0-7.958-3.562-7.958-7.958
		c0-4.395,3.563-7.958,7.958-7.958s7.957,3.563,7.957,7.958C24.221,52.488,20.658,56.051,16.264,56.051z M16.264,27.114
		c-4.395,0-7.958-3.563-7.958-7.957s3.563-7.958,7.958-7.958s7.957,3.563,7.957,7.958S20.658,27.114,16.264,27.114z M87.287,83.486
		c0,0.828-0.67,1.5-1.5,1.5H31.398c-0.829,0-1.5-0.672-1.5-1.5V70.572c0-0.83,0.671-1.5,1.5-1.5h54.389c0.83,0,1.5,0.67,1.5,1.5
		V83.486z M87.287,54.551c0,0.829-0.67,1.5-1.5,1.5H31.398c-0.829,0-1.5-0.671-1.5-1.5V41.635c0-0.829,0.671-1.5,1.5-1.5h54.389
		c0.83,0,1.5,0.671,1.5,1.5V54.551z M87.287,25.614c0,0.829-0.67,1.5-1.5,1.5H31.398c-0.829,0-1.5-0.671-1.5-1.5V12.7
		c0-0.829,0.671-1.5,1.5-1.5h54.389c0.83,0,1.5,0.671,1.5,1.5V25.614z"/>
</g>
<g>
</g>
<g>
</g>
<g>
</g>
<g>
</g>
<g>
</g>
<g>
</g>
<g>
</g>
<g>
</g>
<g>
</g>
<g>
</g>
<g>
</g>
<g>
</g>
<g>
</g>
<g>
</g>
<g>
</g>
</svg>
