<?xml version="1.0" encoding="iso-8859-1"?>
<!-- Generator: Adobe Illustrator 16.0.0, SVG Export Plug-In . SVG Version: 6.00 Build 0)  -->
<!DOCTYPE svg PUBLIC "-//W3C//DTD SVG 1.1//EN" "http://www.w3.org/Graphics/SVG/1.1/DTD/svg11.dtd">
<svg version="1.1" id="Capa_1" xmlns="http://www.w3.org/2000/svg" xmlns:xlink="http://www.w3.org/1999/xlink" x="0px" y="0px"
	 width="95.938px" height="95.938px" viewBox="0 0 95.938 95.938" style="enable-background:new 0 0 95.938 95.938;"
	 xml:space="preserve">
<g>
	<path d="M94.908,0H1.03C0.463,0,0,0.462,0,1.03v93.878c0,0.566,0.462,1.029,1.03,1.029h93.878c0.566,0,1.029-0.462,1.029-1.029
		V1.03C95.938,0.463,95.475,0,94.908,0z M18.335,72.402c-4.091,0-7.409-3.317-7.409-7.41c0-4.09,3.318-7.407,7.409-7.407
		c4.091,0,7.409,3.317,7.409,7.407C25.744,69.085,22.426,72.402,18.335,72.402z M18.335,23.377c-4.091,0-7.409-3.317-7.409-7.408
		c0-4.092,3.318-7.409,7.409-7.409c4.091,0,7.409,3.317,7.409,7.409C25.744,20.059,22.426,23.377,18.335,23.377z M84.811,85.879
		c0,0.829-0.672,1.5-1.5,1.5H32.878c-0.829,0-1.5-0.671-1.5-1.5V59.085c0-0.829,0.671-1.5,1.5-1.5h50.432c0.828,0,1.5,0.671,1.5,1.5
		V85.879z M84.811,36.853c0,0.829-0.672,1.5-1.5,1.5H32.878c-0.829,0-1.5-0.671-1.5-1.5V10.059c0-0.829,0.671-1.5,1.5-1.5h50.432
		c0.828,0,1.5,0.671,1.5,1.5V36.853z"/>
</g>
<g>
</g>
<g>
</g>
<g>
</g>
<g>
</g>
<g>
</g>
<g>
</g>
<g>
</g>
<g>
</g>
<g>
</g>
<g>
</g>
<g>
</g>
<g>
</g>
<g>
</g>
<g>
</g>
<g>
</g>
</svg>
