<?xml version="1.0" encoding="iso-8859-1"?>
<!-- Generator: Adobe Illustrator 16.0.0, SVG Export Plug-In . SVG Version: 6.00 Build 0)  -->
<!DOCTYPE svg PUBLIC "-//W3C//DTD SVG 1.1//EN" "http://www.w3.org/Graphics/SVG/1.1/DTD/svg11.dtd">
<svg version="1.1" id="Capa_1" xmlns="http://www.w3.org/2000/svg" xmlns:xlink="http://www.w3.org/1999/xlink" x="0px" y="0px"
	 width="95px" height="95px" viewBox="0 0 95 95" style="enable-background:new 0 0 95 95;" xml:space="preserve">
<g>
	<g>
		<path d="M85,46.069v30.277H10V26.013h32.169l11.749-10H2c-1.104,0-2,0.896-2,2v66.333c0,1.104,0.896,2,2,2h91c1.104,0,2-0.896,2-2
			V36.292L85,46.069z"/>
		<path d="M26.714,55.262c-0.423,0.896-0.126,1.966,0.698,2.516c0.339,0.228,0.726,0.338,1.109,0.338
			c0.548,0,1.09-0.226,1.481-0.656c18.6-20.485,36.109-23.547,44.895-23.549v8.354c0,0.809,0.486,1.538,1.233,1.848
			c0.748,0.309,1.606,0.139,2.181-0.434l15.803-15.805c0.781-0.781,0.781-2.047,0-2.828L78.311,9.24
			c-0.572-0.572-1.432-0.744-2.18-0.434c-0.747,0.31-1.234,1.039-1.234,1.848v7.371C45.909,20.879,31.544,45.017,26.714,55.262z"/>
	</g>
</g>
<g>
</g>
<g>
</g>
<g>
</g>
<g>
</g>
<g>
</g>
<g>
</g>
<g>
</g>
<g>
</g>
<g>
</g>
<g>
</g>
<g>
</g>
<g>
</g>
<g>
</g>
<g>
</g>
<g>
</g>
</svg>
