<?xml version="1.0" encoding="iso-8859-1"?>
<!-- Generator: Adobe Illustrator 16.0.0, SVG Export Plug-In . SVG Version: 6.00 Build 0)  -->
<!DOCTYPE svg PUBLIC "-//W3C//DTD SVG 1.1//EN" "http://www.w3.org/Graphics/SVG/1.1/DTD/svg11.dtd">
<svg version="1.1" id="Capa_1" xmlns="http://www.w3.org/2000/svg" xmlns:xlink="http://www.w3.org/1999/xlink" x="0px" y="0px"
	 width="98.639px" height="98.639px" viewBox="0 0 98.639 98.639" style="enable-background:new 0 0 98.639 98.639;"
	 xml:space="preserve">
<g>
	<g>
		<path d="M84.947,16.633l-5.294-5.294c-0.375-0.375-0.884-0.586-1.414-0.586s-1.039,0.211-1.414,0.586L59.544,28.62h-20.45
			l-17.28-17.281c-0.75-0.75-2.078-0.75-2.828,0l-5.294,5.294c-0.781,0.781-0.781,2.047,0,2.828l19.454,19.455v57.723
			c0,1.104,0.896,2,2,2h9.081c1.104,0,2-0.896,2-2V65.415h6.186v31.224c0,1.104,0.896,2,2,2h9.081c1.104,0,2-0.896,2-2V38.916
			l19.454-19.455C85.729,18.68,85.729,17.414,84.947,16.633z"/>
		<path d="M49.319,26.806c7.391,0,13.402-6.013,13.402-13.403S56.71,0,49.319,0c-7.392,0-13.403,6.012-13.403,13.403
			S41.928,26.806,49.319,26.806z"/>
	</g>
</g>
<g>
</g>
<g>
</g>
<g>
</g>
<g>
</g>
<g>
</g>
<g>
</g>
<g>
</g>
<g>
</g>
<g>
</g>
<g>
</g>
<g>
</g>
<g>
</g>
<g>
</g>
<g>
</g>
<g>
</g>
</svg>
