<?xml version="1.0" encoding="iso-8859-1"?>
<!-- Generator: Adobe Illustrator 16.0.0, SVG Export Plug-In . SVG Version: 6.00 Build 0)  -->
<!DOCTYPE svg PUBLIC "-//W3C//DTD SVG 1.1//EN" "http://www.w3.org/Graphics/SVG/1.1/DTD/svg11.dtd">
<svg version="1.1" id="Capa_1" xmlns="http://www.w3.org/2000/svg" xmlns:xlink="http://www.w3.org/1999/xlink" x="0px" y="0px"
	 width="95px" height="95px" viewBox="0 0 95 95" style="enable-background:new 0 0 95 95;" xml:space="preserve">
<g>
	<g>
		<path d="M94.141,28.961c-0.539-0.373-1.229-0.459-1.841-0.229l-25.446,9.512c0.776-1.416,1.479-2.805,2.086-4.131
			c1.375-3.01,2.072-6.254,2.072-9.639c0-12.964-10.548-23.511-23.512-23.511S23.989,11.51,23.989,24.475
			c0,1.205,0.095,2.428,0.282,3.631L1.34,36.121C0.537,36.4,0,37.158,0,38.008V88.33c0,0.648,0.313,1.256,0.843,1.631
			c0.528,0.375,1.206,0.469,1.817,0.256l27.16-9.49l32.536,13.164c0.24,0.099,0.494,0.146,0.75,0.146
			c0.235,0,0.473-0.041,0.697-0.125l29.896-11.137C94.48,82.484,95,81.736,95,80.9V30.605C95,29.949,94.68,29.336,94.141,28.961z
			 M62.68,31.221c-4.16,9.102-12.134,18.707-14.479,21.434c-0.176,0.204-0.431,0.321-0.701,0.321s-0.525-0.117-0.7-0.321
			c-2.346-2.729-10.32-12.335-14.478-21.434c-0.965-2.113-1.454-4.398-1.454-6.789c0-9.172,7.462-16.633,16.632-16.633
			c9.171,0,16.632,7.461,16.632,16.633C64.132,26.822,63.643,29.107,62.68,31.221z"/>
		<path d="M47.5,15.791c-4.763,0-8.639,3.877-8.639,8.641c0,4.764,3.876,8.638,8.639,8.638c4.764,0,8.639-3.875,8.639-8.639
			C56.139,19.667,52.264,15.791,47.5,15.791z"/>
	</g>
</g>
<g>
</g>
<g>
</g>
<g>
</g>
<g>
</g>
<g>
</g>
<g>
</g>
<g>
</g>
<g>
</g>
<g>
</g>
<g>
</g>
<g>
</g>
<g>
</g>
<g>
</g>
<g>
</g>
<g>
</g>
</svg>
