<?xml version="1.0" encoding="iso-8859-1"?>
<!-- Generator: Adobe Illustrator 16.0.0, SVG Export Plug-In . SVG Version: 6.00 Build 0)  -->
<!DOCTYPE svg PUBLIC "-//W3C//DTD SVG 1.1//EN" "http://www.w3.org/Graphics/SVG/1.1/DTD/svg11.dtd">
<svg version="1.1" id="Capa_1" xmlns="http://www.w3.org/2000/svg" xmlns:xlink="http://www.w3.org/1999/xlink" x="0px" y="0px"
	 width="97.699px" height="97.698px" viewBox="0 0 97.699 97.698" style="enable-background:new 0 0 97.699 97.698;"
	 xml:space="preserve">
<g>
	<g>
		<path d="M48.849,25.702c7.086,0,12.852-5.765,12.852-12.851S55.935,0,48.849,0S35.997,5.765,35.997,12.85
			S41.763,25.702,48.849,25.702z"/>
		<path d="M84.888,37.595c0.486-0.426,0.736-1.06,0.672-1.704c-0.064-0.643-0.434-1.216-0.996-1.537
			c-2.807-1.609-13.678-6.858-35.715-6.858c-22.043,0-32.91,5.25-35.717,6.859c-0.561,0.321-0.932,0.894-0.994,1.537
			c-0.064,0.644,0.188,1.278,0.674,1.703c1.84,1.61,7.945,5.487,24.826,6.711c-3.256,4.52-6.588,10.094-9.902,16.568
			c-11.492,22.438-10.902,32.168-10.115,35.31c0.156,0.627,0.607,1.14,1.209,1.375c0.602,0.236,1.279,0.168,1.82-0.185
			c2.711-1.762,12.336-9.036,22.387-28.664c1.531-2.991,1.807-3.526,4.799-9.343l1.013-1.973l1.016,1.974
			c2.99,5.815,3.266,6.351,4.796,9.343C64.715,88.342,74.34,95.614,77.049,97.375c0.329,0.215,0.709,0.323,1.09,0.323
			c0.248,0,0.496-0.046,0.731-0.14c0.601-0.235,1.052-0.748,1.207-1.375c0.789-3.14,1.381-12.865-10.112-35.311
			c-3.314-6.475-6.646-12.048-9.904-16.567l0,0C76.943,43.083,83.046,39.205,84.888,37.595z"/>
	</g>
</g>
<g>
</g>
<g>
</g>
<g>
</g>
<g>
</g>
<g>
</g>
<g>
</g>
<g>
</g>
<g>
</g>
<g>
</g>
<g>
</g>
<g>
</g>
<g>
</g>
<g>
</g>
<g>
</g>
<g>
</g>
</svg>
