<?xml version="1.0" encoding="iso-8859-1"?>
<!-- Generator: Adobe Illustrator 16.0.0, SVG Export Plug-In . SVG Version: 6.00 Build 0)  -->
<!DOCTYPE svg PUBLIC "-//W3C//DTD SVG 1.1//EN" "http://www.w3.org/Graphics/SVG/1.1/DTD/svg11.dtd">
<svg version="1.1" id="Capa_1" xmlns="http://www.w3.org/2000/svg" xmlns:xlink="http://www.w3.org/1999/xlink" x="0px" y="0px"
	 width="95.578px" height="95.578px" viewBox="0 0 95.578 95.578" style="enable-background:new 0 0 95.578 95.578;"
	 xml:space="preserve">
<g>
	<path d="M93.578,9.471H2c-1.104,0-2,0.896-2,2v50.127c0,1.105,0.896,2,2,2h60.042v20.51c0,0.809,0.487,1.537,1.235,1.848
		c0.246,0.103,0.507,0.152,0.765,0.152c0.521,0,1.032-0.203,1.415-0.586L87.38,63.598h6.198c1.104,0,2-0.895,2-2V11.471
		C95.578,10.367,94.682,9.471,93.578,9.471z M87.379,51.887c0,0.828-0.671,1.5-1.5,1.5H9.699c-0.829,0-1.5-0.672-1.5-1.5v-6.613
		c0-0.828,0.671-1.5,1.5-1.5h76.18c0.829,0,1.5,0.672,1.5,1.5V51.887z M87.379,26.25c0,0.828-0.671,1.5-1.5,1.5H9.699
		c-0.829,0-1.5-0.672-1.5-1.5v-6.613c0-0.828,0.671-1.5,1.5-1.5h76.18c0.829,0,1.5,0.672,1.5,1.5V26.25z"/>
</g>
<g>
</g>
<g>
</g>
<g>
</g>
<g>
</g>
<g>
</g>
<g>
</g>
<g>
</g>
<g>
</g>
<g>
</g>
<g>
</g>
<g>
</g>
<g>
</g>
<g>
</g>
<g>
</g>
<g>
</g>
</svg>
