<?xml version="1.0" encoding="iso-8859-1"?>
<!-- Generator: Adobe Illustrator 16.0.0, SVG Export Plug-In . SVG Version: 6.00 Build 0)  -->
<!DOCTYPE svg PUBLIC "-//W3C//DTD SVG 1.1//EN" "http://www.w3.org/Graphics/SVG/1.1/DTD/svg11.dtd">
<svg version="1.1" id="Capa_1" xmlns="http://www.w3.org/2000/svg" xmlns:xlink="http://www.w3.org/1999/xlink" x="0px" y="0px"
	 width="95.098px" height="95.098px" viewBox="0 0 95.098 95.098" style="enable-background:new 0 0 95.098 95.098;"
	 xml:space="preserve">
<g>
	<g>
		<path d="M92.961,0H2.137C0.959,0,0,0.958,0,2.137v90.824c0,1.178,0.958,2.137,2.137,2.137h90.824c1.178,0,2.137-0.958,2.137-2.137
			V2.137C95.098,0.959,94.139,0,92.961,0z M86.1,86.1H8.998V8.998H86.1V86.1z"/>
		<path d="M17.858,57.257H77.24c0.447,0,0.809-0.362,0.809-0.81V38.65c0-0.447-0.361-0.809-0.809-0.809H17.858
			c-0.447,0-0.809,0.362-0.809,0.809v17.797C17.049,56.895,17.411,57.257,17.858,57.257z"/>
	</g>
</g>
<g>
</g>
<g>
</g>
<g>
</g>
<g>
</g>
<g>
</g>
<g>
</g>
<g>
</g>
<g>
</g>
<g>
</g>
<g>
</g>
<g>
</g>
<g>
</g>
<g>
</g>
<g>
</g>
<g>
</g>
</svg>
