<?xml version="1.0" encoding="iso-8859-1"?>
<!-- Generator: Adobe Illustrator 16.0.0, SVG Export Plug-In . SVG Version: 6.00 Build 0)  -->
<!DOCTYPE svg PUBLIC "-//W3C//DTD SVG 1.1//EN" "http://www.w3.org/Graphics/SVG/1.1/DTD/svg11.dtd">
<svg version="1.1" id="Capa_1" xmlns="http://www.w3.org/2000/svg" xmlns:xlink="http://www.w3.org/1999/xlink" x="0px" y="0px"
	 width="95.098px" height="95.098px" viewBox="0 0 95.098 95.098" style="enable-background:new 0 0 95.098 95.098;"
	 xml:space="preserve">
<g>
	<path d="M92.961,0H2.137C0.959,0,0,0.958,0,2.137v90.824c0,1.178,0.958,2.137,2.137,2.137h90.824c1.178,0,2.137-0.958,2.137-2.137
		V2.137C95.098,0.959,94.139,0,92.961,0z M84.382,55.502c0,0.925-0.75,1.674-1.674,1.674H12.39c-0.925,0-1.674-0.75-1.674-1.674
		V39.596c0-0.925,0.75-1.674,1.674-1.674h70.318c0.925,0,1.674,0.75,1.674,1.674V55.502z"/>
</g>
<g>
</g>
<g>
</g>
<g>
</g>
<g>
</g>
<g>
</g>
<g>
</g>
<g>
</g>
<g>
</g>
<g>
</g>
<g>
</g>
<g>
</g>
<g>
</g>
<g>
</g>
<g>
</g>
<g>
</g>
</svg>
