<?xml version="1.0" encoding="iso-8859-1"?>
<!-- Generator: Adobe Illustrator 16.0.0, SVG Export Plug-In . SVG Version: 6.00 Build 0)  -->
<!DOCTYPE svg PUBLIC "-//W3C//DTD SVG 1.1//EN" "http://www.w3.org/Graphics/SVG/1.1/DTD/svg11.dtd">
<svg version="1.1" id="Capa_1" xmlns="http://www.w3.org/2000/svg" xmlns:xlink="http://www.w3.org/1999/xlink" x="0px" y="0px"
	 width="95.093px" height="95.094px" viewBox="0 0 95.093 95.094" style="enable-background:new 0 0 95.093 95.094;"
	 xml:space="preserve">
<g>
	<g>
		<path d="M66.869,0H28.225c-2.16,0-3.918,1.758-3.918,3.919v87.256c0,2.161,1.758,3.919,3.918,3.919H66.87
			c2.159,0,3.918-1.758,3.918-3.919V3.919C70.787,1.758,69.029,0,66.869,0z M32.144,7.837h30.807v40.512H32.144V7.837z
			 M41.254,85.547h-9v-5.25h9V85.547z M41.254,73.547h-9v-5.25h9V73.547z M41.254,61.547h-9v-5.25h9V61.547z M52.254,85.547h-9
			v-5.25h9V85.547z M52.254,73.547h-9v-5.25h9V73.547z M52.254,61.547h-9v-5.25h9V61.547z M63.254,85.547h-9v-5.25h9V85.547z
			 M63.254,73.547h-9v-5.25h9V73.547z M63.254,61.547h-9v-5.25h9V61.547z"/>
		<path d="M35.796,12.005v10.794L47.884,10.71H37.091C36.376,10.71,35.796,11.29,35.796,12.005z"/>
	</g>
</g>
<g>
</g>
<g>
</g>
<g>
</g>
<g>
</g>
<g>
</g>
<g>
</g>
<g>
</g>
<g>
</g>
<g>
</g>
<g>
</g>
<g>
</g>
<g>
</g>
<g>
</g>
<g>
</g>
<g>
</g>
</svg>
