<?xml version="1.0" encoding="iso-8859-1"?>
<!-- Generator: Adobe Illustrator 16.0.0, SVG Export Plug-In . SVG Version: 6.00 Build 0)  -->
<!DOCTYPE svg PUBLIC "-//W3C//DTD SVG 1.1//EN" "http://www.w3.org/Graphics/SVG/1.1/DTD/svg11.dtd">
<svg version="1.1" id="Capa_1" xmlns="http://www.w3.org/2000/svg" xmlns:xlink="http://www.w3.org/1999/xlink" x="0px" y="0px"
	 width="93.666px" height="93.666px" viewBox="0 0 93.666 93.666" style="enable-background:new 0 0 93.666 93.666;"
	 xml:space="preserve">
<g>
	<g>
		<path d="M91.666,21.833H2c-1.104,0-2,0.896-2,2v46c0,1.104,0.896,2,2,2h89.666c1.104,0,2-0.896,2-2v-46
			C93.666,22.729,92.771,21.833,91.666,21.833z M87.666,50.985c0,0.752-0.557,1.387-1.303,1.486
			c-6.26,0.836-11.204,5.793-12.022,12.055c-0.097,0.748-0.733,1.307-1.487,1.307H20.812c-0.753,0-1.39-0.559-1.487-1.307
			c-0.818-6.262-5.763-11.219-12.023-12.055C6.557,52.372,6,51.737,6,50.985V42.68c0-0.752,0.557-1.387,1.302-1.487
			c6.26-0.835,11.205-5.792,12.023-12.055c0.097-0.746,0.734-1.305,1.487-1.305h52.042c0.754,0,1.391,0.559,1.487,1.306
			c0.818,6.263,5.763,11.22,12.022,12.055c0.746,0.1,1.303,0.735,1.303,1.487V50.985z"/>
		<path d="M46.833,29.166c-7.18,0-13,7.91-13,17.667s5.82,17.667,13,17.667c7.181,0,13-7.91,13-17.667S54.014,29.166,46.833,29.166z
			 M52.734,56.694c0,0.828-0.672,1.5-1.5,1.5h-7.406c-0.829,0-1.5-0.672-1.5-1.5v-0.603c0-0.829,0.671-1.5,1.5-1.5h0.964
			l-0.003-14.381l-1.414,0.823c-0.415,0.242-0.919,0.269-1.358,0.078c-0.439-0.193-0.76-0.584-0.862-1.053l-0.189-0.865
			c-0.144-0.657,0.167-1.329,0.76-1.645l3.57-1.901c0.217-0.116,0.459-0.176,0.705-0.176h2.528c0.828,0,1.5,0.671,1.5,1.5v17.62
			h1.203c0.83,0,1.5,0.671,1.5,1.5v0.603H52.734z"/>
	</g>
</g>
<g>
</g>
<g>
</g>
<g>
</g>
<g>
</g>
<g>
</g>
<g>
</g>
<g>
</g>
<g>
</g>
<g>
</g>
<g>
</g>
<g>
</g>
<g>
</g>
<g>
</g>
<g>
</g>
<g>
</g>
</svg>
