<?xml version="1.0" encoding="iso-8859-1"?>
<!-- Generator: Adobe Illustrator 16.0.0, SVG Export Plug-In . SVG Version: 6.00 Build 0)  -->
<!DOCTYPE svg PUBLIC "-//W3C//DTD SVG 1.1//EN" "http://www.w3.org/Graphics/SVG/1.1/DTD/svg11.dtd">
<svg version="1.1" id="Capa_1" xmlns="http://www.w3.org/2000/svg" xmlns:xlink="http://www.w3.org/1999/xlink" x="0px" y="0px"
	 width="97.189px" height="97.19px" viewBox="0 0 97.189 97.19" style="enable-background:new 0 0 97.189 97.19;"
	 xml:space="preserve">
<g>
	<g>
		<path d="M2.589,25.333C1.161,25.333,0,26.495,0,27.922v6.909c0,1.428,1.161,2.589,2.589,2.589h13.407V25.333H2.589z"/>
		<path d="M95.73,29.33c-0.887-0.407-1.934-0.261-2.674,0.378L78.299,42.414V27.922c0-1.428-1.162-2.589-2.59-2.589H23.484
			c-1.428,0-2.589,1.162-2.589,2.589v41.346c0,1.428,1.161,2.589,2.589,2.589h52.227c1.428,0,2.59-1.162,2.59-2.589V54.776
			l14.758,12.707c0.74,0.638,1.787,0.785,2.673,0.378c0.889-0.407,1.458-1.295,1.458-2.272V31.602
			C97.188,30.625,96.618,29.737,95.73,29.33z"/>
	</g>
</g>
<g>
</g>
<g>
</g>
<g>
</g>
<g>
</g>
<g>
</g>
<g>
</g>
<g>
</g>
<g>
</g>
<g>
</g>
<g>
</g>
<g>
</g>
<g>
</g>
<g>
</g>
<g>
</g>
<g>
</g>
</svg>
