<?xml version="1.0" encoding="iso-8859-1"?>
<!-- Generator: Adobe Illustrator 16.0.0, SVG Export Plug-In . SVG Version: 6.00 Build 0)  -->
<!DOCTYPE svg PUBLIC "-//W3C//DTD SVG 1.1//EN" "http://www.w3.org/Graphics/SVG/1.1/DTD/svg11.dtd">
<svg version="1.1" id="Capa_1" xmlns="http://www.w3.org/2000/svg" xmlns:xlink="http://www.w3.org/1999/xlink" x="0px" y="0px"
	 width="92px" height="92px" viewBox="0 0 92 92" style="enable-background:new 0 0 92 92;" xml:space="preserve">
<g>
	<g>
		<path d="M2,92h88c1.104,0,2-0.896,2-2V2c0-1.104-0.896-2-2-2H2C0.896,0,0,0.896,0,2v88C0,91.104,0.896,92,2,92z M29.651,15.662
			c0-0.512,0.384-0.971,0.979-1.166c0.59-0.197,1.271-0.088,1.723,0.273l38.034,30.338c0.309,0.247,0.465,0.57,0.465,0.893
			s-0.156,0.646-0.465,0.893L32.353,77.23c-0.452,0.36-1.133,0.469-1.723,0.272c-0.595-0.194-0.979-0.653-0.979-1.166V15.662z"/>
	</g>
</g>
<g>
</g>
<g>
</g>
<g>
</g>
<g>
</g>
<g>
</g>
<g>
</g>
<g>
</g>
<g>
</g>
<g>
</g>
<g>
</g>
<g>
</g>
<g>
</g>
<g>
</g>
<g>
</g>
<g>
</g>
</svg>
