<?xml version="1.0" encoding="iso-8859-1"?>
<!-- Generator: Adobe Illustrator 16.0.0, SVG Export Plug-In . SVG Version: 6.00 Build 0)  -->
<!DOCTYPE svg PUBLIC "-//W3C//DTD SVG 1.1//EN" "http://www.w3.org/Graphics/SVG/1.1/DTD/svg11.dtd">
<svg version="1.1" id="Capa_1" xmlns="http://www.w3.org/2000/svg" xmlns:xlink="http://www.w3.org/1999/xlink" x="0px" y="0px"
	 width="97.268px" height="97.268px" viewBox="0 0 97.268 97.268" style="enable-background:new 0 0 97.268 97.268;"
	 xml:space="preserve">
<g>
	<path d="M94.268,2.411H22.467c-1.657,0-3,1.343-3,3v52.213l-0.837-0.025C8.358,57.598,0,65.956,0,76.227
		c0,10.273,8.357,18.63,18.63,18.63c10.093,0,18.444-8.212,18.615-18.245l0.011-0.286c0.001-0.037,0.002-0.075,0.002-0.112V28.818
		h42.216v28.806l-0.836-0.025c-10.271,0-18.628,8.357-18.628,18.629c0,10.273,8.355,18.63,18.628,18.63
		c18.63,0,18.63-18.593,18.63-18.63V5.411C97.268,3.755,95.925,2.411,94.268,2.411z"/>
</g>
<g>
</g>
<g>
</g>
<g>
</g>
<g>
</g>
<g>
</g>
<g>
</g>
<g>
</g>
<g>
</g>
<g>
</g>
<g>
</g>
<g>
</g>
<g>
</g>
<g>
</g>
<g>
</g>
<g>
</g>
</svg>
