<?xml version="1.0" encoding="iso-8859-1"?>
<!-- Generator: Adobe Illustrator 16.0.0, SVG Export Plug-In . SVG Version: 6.00 Build 0)  -->
<!DOCTYPE svg PUBLIC "-//W3C//DTD SVG 1.1//EN" "http://www.w3.org/Graphics/SVG/1.1/DTD/svg11.dtd">
<svg version="1.1" id="Capa_1" xmlns="http://www.w3.org/2000/svg" xmlns:xlink="http://www.w3.org/1999/xlink" x="0px" y="0px"
	 width="96.992px" height="96.992px" viewBox="0 0 96.992 96.992" style="enable-background:new 0 0 96.992 96.992;"
	 xml:space="preserve">
<g>
	<path d="M82.297,17.001L66.028,0.732C65.559,0.263,64.924,0,64.26,0H16.463c-1.381,0-2.5,1.119-2.5,2.5v91.992
		c0,1.381,1.119,2.5,2.5,2.5h64.066c1.381,0,2.5-1.119,2.5-2.5V18.769C83.029,18.106,82.766,17.47,82.297,17.001z M66.66,61.303
		c0,0.014,0,6.957-6.958,6.957c-3.837,0-6.958-3.121-6.958-6.957c0-3.838,3.121-6.959,6.958-6.959l0.313,0.01V43.595H44.247v17.701
		c0,0.015,0,0.028,0,0.042l-0.005,0.107c-0.064,3.746-3.183,6.814-6.952,6.814c-3.837,0-6.958-3.121-6.958-6.959
		c0-3.837,3.121-6.957,6.958-6.957l0.313,0.008v-19.5c0-0.619,0.502-1.121,1.12-1.121h26.816c0.619,0,1.121,0.502,1.121,1.121
		V61.303z M62.051,22.342c-0.337,0-0.658-0.134-0.896-0.372c-0.237-0.238-0.372-0.561-0.372-0.897l0.002-15.126L77.18,22.342H62.051
		z"/>
</g>
<g>
</g>
<g>
</g>
<g>
</g>
<g>
</g>
<g>
</g>
<g>
</g>
<g>
</g>
<g>
</g>
<g>
</g>
<g>
</g>
<g>
</g>
<g>
</g>
<g>
</g>
<g>
</g>
<g>
</g>
</svg>
