<?xml version="1.0" encoding="iso-8859-1"?>
<!-- Generator: Adobe Illustrator 16.0.0, SVG Export Plug-In . SVG Version: 6.00 Build 0)  -->
<!DOCTYPE svg PUBLIC "-//W3C//DTD SVG 1.1//EN" "http://www.w3.org/Graphics/SVG/1.1/DTD/svg11.dtd">
<svg version="1.1" id="Capa_1" xmlns="http://www.w3.org/2000/svg" xmlns:xlink="http://www.w3.org/1999/xlink" x="0px" y="0px"
	 width="96.264px" height="96.264px" viewBox="0 0 96.264 96.264" style="enable-background:new 0 0 96.264 96.264;"
	 xml:space="preserve">
<g>
	<path d="M94.264,17.132H2c-1.104,0-2,0.896-2,2v58c0,1.104,0.896,2,2,2h92.264c1.104,0,2-0.896,2-2v-58
		C96.264,18.028,95.367,17.132,94.264,17.132z M90.929,32.189c0,0.531-0.28,1.023-0.739,1.293L59.316,51.651l28.373,16.689
		c0.459,0.27,0.739,0.761,0.739,1.293v2.021c0,0.525-0.274,1.012-0.723,1.283c-0.238,0.145-0.507,0.217-0.777,0.217
		c-0.237,0-0.478-0.057-0.694-0.17L52.793,55.489l-3.891,2.289c-0.469,0.276-1.051,0.277-1.521,0l-3.908-2.299L10.031,72.983
		c-0.465,0.244-1.024,0.226-1.473-0.045c-0.449-0.271-0.723-0.759-0.723-1.283v-2.021c0-0.531,0.281-1.023,0.739-1.293
		l28.374-16.698L6.074,33.482c-0.458-0.27-0.739-0.761-0.739-1.293v-7.581c0-0.525,0.274-1.011,0.723-1.283
		c0.449-0.271,1.007-0.289,1.472-0.046l40.61,21.247l40.593-21.247c0.465-0.244,1.023-0.225,1.473,0.046s0.723,0.758,0.723,1.283
		L90.929,32.189L90.929,32.189z"/>
</g>
<g>
</g>
<g>
</g>
<g>
</g>
<g>
</g>
<g>
</g>
<g>
</g>
<g>
</g>
<g>
</g>
<g>
</g>
<g>
</g>
<g>
</g>
<g>
</g>
<g>
</g>
<g>
</g>
<g>
</g>
</svg>
