<?xml version="1.0" encoding="iso-8859-1"?>
<!-- Generator: Adobe Illustrator 16.0.0, SVG Export Plug-In . SVG Version: 6.00 Build 0)  -->
<!DOCTYPE svg PUBLIC "-//W3C//DTD SVG 1.1//EN" "http://www.w3.org/Graphics/SVG/1.1/DTD/svg11.dtd">
<svg version="1.1" id="Capa_1" xmlns="http://www.w3.org/2000/svg" xmlns:xlink="http://www.w3.org/1999/xlink" x="0px" y="0px"
	 width="95.168px" height="95.168px" viewBox="0 0 95.168 95.168" style="enable-background:new 0 0 95.168 95.168;"
	 xml:space="preserve">
<g>
	<path d="M94.344,64.042c-0.853-0.853-2.15-1.064-3.23-0.534c-6.062,2.991-12.857,4.571-19.654,4.571
		c-11.854,0-22.995-4.615-31.375-12.995C26.627,41.626,23.242,21.12,31.66,4.053c0.532-1.08,0.318-2.379-0.534-3.229
		c-0.851-0.852-2.15-1.064-3.23-0.534c-4.918,2.427-9.375,5.619-13.246,9.491C5.203,19.228,0,31.789,0,45.149
		c0,13.36,5.203,25.92,14.65,35.368c9.447,9.447,22.008,14.65,35.368,14.65c13.361,0,25.922-5.203,35.369-14.65
		c3.872-3.871,7.064-8.328,9.491-13.246C95.41,66.191,95.195,64.892,94.344,64.042z"/>
</g>
<g>
</g>
<g>
</g>
<g>
</g>
<g>
</g>
<g>
</g>
<g>
</g>
<g>
</g>
<g>
</g>
<g>
</g>
<g>
</g>
<g>
</g>
<g>
</g>
<g>
</g>
<g>
</g>
<g>
</g>
</svg>
