<?xml version="1.0" encoding="iso-8859-1"?>
<!-- Generator: Adobe Illustrator 16.0.0, SVG Export Plug-In . SVG Version: 6.00 Build 0)  -->
<!DOCTYPE svg PUBLIC "-//W3C//DTD SVG 1.1//EN" "http://www.w3.org/Graphics/SVG/1.1/DTD/svg11.dtd">
<svg version="1.1" id="Capa_1" xmlns="http://www.w3.org/2000/svg" xmlns:xlink="http://www.w3.org/1999/xlink" x="0px" y="0px"
	 width="97.589px" height="97.589px" viewBox="0 0 97.589 97.589" style="enable-background:new 0 0 97.589 97.589;"
	 xml:space="preserve">
<g>
	<g>
		<path d="M66.287,15.789c0.547,0.049,1.077-0.121,1.489-0.475l5.481-4.705l-0.032,28.367c0,0.531,0.21,1.041,0.585,1.416
			s0.884,0.586,1.415,0.586h5.229c1.104,0,2-0.895,2-2V2.17c0-1.104-0.896-2-2-2h-4.892c-0.453,0-0.893,0.154-1.246,0.436
			L63.079,9.553c-0.416,0.332-0.683,0.814-0.742,1.342c-0.059,0.529,0.096,1.059,0.428,1.475l2.146,2.68
			C65.251,15.471,65.747,15.738,66.287,15.789z"/>
		<path d="M90.684,64.143c-1.218-2.703-2.99-4.797-5.27-6.223c-2.275-1.424-4.962-2.145-7.982-2.145
			c-4.296,0-7.746,1.301-10.257,3.867c-2.506,2.562-3.775,6.084-3.775,10.465c0,4.063,1.051,7.297,3.123,9.604
			c2.086,2.322,4.968,3.5,8.566,3.5c2.141,0,3.956-0.365,5.399-1.086c1.161-0.584,2.225-1.515,3.161-2.767
			c-0.219,2.402-0.729,4.354-1.51,5.795c-0.905,1.664-2.229,2.9-3.934,3.679c-1.746,0.793-4.013,1.194-6.738,1.194
			c-1.018,0-2.023-0.075-2.989-0.223c-0.578-0.084-1.162,0.08-1.605,0.459c-0.441,0.381-0.697,0.936-0.697,1.518v3.638
			c0,1.021,0.769,1.877,1.782,1.987c1.101,0.121,2.475,0.183,4.082,0.183c6.82,0,11.996-2.01,15.384-5.974
			c3.367-3.944,5.074-9.963,5.074-17.889C92.497,70.041,91.886,66.816,90.684,64.143z M81.473,74.219
			c-1.129,1.039-2.45,1.543-4.042,1.543c-1.671,0-2.869-0.49-3.667-1.502c-0.813-1.025-1.226-2.459-1.226-4.262
			c0-2.121,0.457-3.756,1.358-4.857c0.887-1.084,2.096-1.611,3.695-1.611c1.609,0,2.9,0.664,3.943,2.031
			c1.063,1.396,1.601,3.137,1.601,5.174C83.139,72.053,82.594,73.193,81.473,74.219z"/>
		<path d="M43.243,65.596h-8.011V2c0-1.105-0.896-2-2-2h-16.13c-1.104,0-2,0.895-2,2v63.596H7.091c-0.77,0-1.472,0.443-1.804,1.137
			c-0.333,0.695-0.237,1.519,0.246,2.117l18.076,26.955c0.38,0.473,0.953,0.746,1.558,0.746s1.178-0.273,1.558-0.746L44.801,68.85
			c0.482-0.6,0.578-1.422,0.246-2.117C44.715,66.039,44.013,65.596,43.243,65.596z"/>
	</g>
</g>
<g>
</g>
<g>
</g>
<g>
</g>
<g>
</g>
<g>
</g>
<g>
</g>
<g>
</g>
<g>
</g>
<g>
</g>
<g>
</g>
<g>
</g>
<g>
</g>
<g>
</g>
<g>
</g>
<g>
</g>
</svg>
