<?xml version="1.0" encoding="iso-8859-1"?>
<!-- Generator: Adobe Illustrator 16.0.0, SVG Export Plug-In . SVG Version: 6.00 Build 0)  -->
<!DOCTYPE svg PUBLIC "-//W3C//DTD SVG 1.1//EN" "http://www.w3.org/Graphics/SVG/1.1/DTD/svg11.dtd">
<svg version="1.1" id="Capa_1" xmlns="http://www.w3.org/2000/svg" xmlns:xlink="http://www.w3.org/1999/xlink" x="0px" y="0px"
	 width="97.086px" height="97.086px" viewBox="0 0 97.086 97.086" style="enable-background:new 0 0 97.086 97.086;"
	 xml:space="preserve">
<g>
	<g>
		<path d="M66.035,71.896c0.547,0.049,1.077-0.121,1.489-0.475l5.481-4.705l-0.032,28.367c0,0.531,0.21,1.041,0.585,1.416
			s0.885,0.586,1.415,0.586h5.229c1.105,0,2-0.895,2-2V58.277c0-1.104-0.895-2-2-2H75.31c-0.453,0-0.893,0.154-1.246,0.436
			L62.828,65.66c-0.416,0.332-0.684,0.814-0.742,1.342c-0.06,0.529,0.096,1.059,0.428,1.475l2.146,2.681
			C65,71.578,65.496,71.846,66.035,71.896z"/>
		<path d="M90.432,8.699c-1.218-2.703-2.99-4.797-5.271-6.223C82.887,1.052,80.2,0.331,77.18,0.331
			c-4.297,0-7.747,1.301-10.258,3.867c-2.506,2.562-3.775,6.084-3.775,10.465c0,4.064,1.051,7.297,3.122,9.605
			c2.086,2.322,4.969,3.5,8.566,3.5c2.142,0,3.956-0.365,5.399-1.086c1.161-0.584,2.225-1.514,3.161-2.766
			c-0.22,2.402-0.729,4.354-1.511,5.795c-0.904,1.664-2.229,2.9-3.934,3.678c-1.745,0.793-4.013,1.195-6.737,1.195
			c-1.018,0-2.023-0.076-2.989-0.223c-0.578-0.084-1.162,0.08-1.605,0.459c-0.442,0.381-0.696,0.936-0.696,1.518v3.637
			c0,1.021,0.769,1.877,1.781,1.988c1.102,0.121,2.475,0.182,4.082,0.182c6.82,0,11.996-2.01,15.385-5.973
			c3.367-3.945,5.074-9.963,5.074-17.889C92.246,14.598,91.634,11.373,90.432,8.699z M81.221,18.775
			c-1.129,1.039-2.449,1.543-4.041,1.543c-1.672,0-2.869-0.49-3.668-1.502c-0.813-1.025-1.226-2.459-1.226-4.262
			c0-2.121,0.457-3.756,1.358-4.857c0.887-1.084,2.097-1.611,3.695-1.611c1.609,0,2.9,0.664,3.943,2.031
			c1.063,1.395,1.602,3.137,1.602,5.174C82.887,16.609,82.342,17.75,81.221,18.775z"/>
		<path d="M42.992,65.596h-8.011V2c0-1.105-0.896-2-2-2h-16.13c-1.104,0-2,0.895-2,2v63.596H6.84c-0.77,0-1.472,0.443-1.804,1.137
			C4.704,67.428,4.8,68.251,5.282,68.85l18.076,26.955c0.38,0.473,0.952,0.746,1.558,0.746s1.179-0.273,1.559-0.746L44.55,68.85
			c0.482-0.6,0.578-1.422,0.246-2.117C44.464,66.039,43.762,65.596,42.992,65.596z"/>
	</g>
</g>
<g>
</g>
<g>
</g>
<g>
</g>
<g>
</g>
<g>
</g>
<g>
</g>
<g>
</g>
<g>
</g>
<g>
</g>
<g>
</g>
<g>
</g>
<g>
</g>
<g>
</g>
<g>
</g>
<g>
</g>
</svg>
