<?xml version="1.0" encoding="iso-8859-1"?>
<!-- Generator: Adobe Illustrator 16.0.0, SVG Export Plug-In . SVG Version: 6.00 Build 0)  -->
<!DOCTYPE svg PUBLIC "-//W3C//DTD SVG 1.1//EN" "http://www.w3.org/Graphics/SVG/1.1/DTD/svg11.dtd">
<svg version="1.1" id="Capa_1" xmlns="http://www.w3.org/2000/svg" xmlns:xlink="http://www.w3.org/1999/xlink" x="0px" y="0px"
	 width="98.277px" height="98.277px" viewBox="0 0 98.277 98.277" style="enable-background:new 0 0 98.277 98.277;"
	 xml:space="preserve">
<g>
	<g>
		<path d="M49.139,19.069C22.044,19.069,0,41.112,0,68.208c0,3.123,0.306,6.279,0.909,9.381c0.183,0.94,1.006,1.619,1.963,1.619
			h92.533c0.957,0,1.78-0.679,1.963-1.619c0.604-3.103,0.909-6.259,0.909-9.381C98.278,41.112,76.234,19.069,49.139,19.069z
			 M49.139,24.775c2.83,0,5.134,2.303,5.134,5.133c-0.002,2.83-2.305,5.133-5.135,5.133c-1.371,0-2.66-0.534-3.63-1.503
			c-0.969-0.97-1.503-2.259-1.503-3.63C44.005,27.077,46.309,24.775,49.139,24.775z M10.839,73.341c-2.83,0-5.133-2.303-5.133-5.133
			s2.303-5.133,5.133-5.133c2.831,0,5.134,2.303,5.134,5.133S13.67,73.341,10.839,73.341z M25.687,44.755
			c-0.97,0.97-2.259,1.504-3.63,1.504s-2.66-0.534-3.63-1.504c-0.97-0.969-1.503-2.258-1.503-3.629c0-1.371,0.533-2.66,1.504-3.63
			c0.969-0.97,2.258-1.504,3.629-1.504s2.66,0.534,3.63,1.503c0.97,0.97,1.503,2.259,1.503,3.63
			C27.19,42.496,26.657,43.786,25.687,44.755z M57.709,72.946c-5.479,4.554-13.64,3.803-18.195-1.676
			c-4.555-5.477-3.804-13.639,1.675-18.195c5.478-4.554,37.343-14.242,37.343-14.242S63.186,68.392,57.709,72.946z M87.439,73.341
			c-2.831,0-5.135-2.303-5.135-5.133s2.304-5.133,5.135-5.133c2.83,0,5.133,2.303,5.133,5.133S90.27,73.341,87.439,73.341z"/>
		<path d="M52.559,67.243c2.056-1.708,2.338-4.77,0.629-6.822c-1.709-2.056-4.77-2.337-6.823-0.63
			c-2.053,1.709-2.337,4.771-0.628,6.824C47.444,68.671,50.504,68.951,52.559,67.243z"/>
	</g>
</g>
<g>
</g>
<g>
</g>
<g>
</g>
<g>
</g>
<g>
</g>
<g>
</g>
<g>
</g>
<g>
</g>
<g>
</g>
<g>
</g>
<g>
</g>
<g>
</g>
<g>
</g>
<g>
</g>
<g>
</g>
</svg>
