<?xml version="1.0" encoding="iso-8859-1"?>
<!-- Generator: Adobe Illustrator 16.0.0, SVG Export Plug-In . SVG Version: 6.00 Build 0)  -->
<!DOCTYPE svg PUBLIC "-//W3C//DTD SVG 1.1//EN" "http://www.w3.org/Graphics/SVG/1.1/DTD/svg11.dtd">
<svg version="1.1" id="Capa_1" xmlns="http://www.w3.org/2000/svg" xmlns:xlink="http://www.w3.org/1999/xlink" x="0px" y="0px"
	 width="98.996px" height="98.996px" viewBox="0 0 98.996 98.996" style="enable-background:new 0 0 98.996 98.996;"
	 xml:space="preserve">
<g>
	<g>
		<path d="M49.498,6.974C10.793,6.974,0,20.842,0,37.949c0,17.107,10.793,30.974,49.498,30.974s49.498-13.868,49.498-30.975
			C98.996,20.841,88.203,6.974,49.498,6.974z M22.592,47.15c-5.08,0-9.201-4.119-9.201-9.201s4.121-9.201,9.201-9.201
			c5.082,0,9.202,4.119,9.202,9.201S27.674,47.15,22.592,47.15z M49.498,47.15c-5.082,0-9.201-4.119-9.201-9.201
			s4.119-9.201,9.201-9.201s9.201,4.119,9.201,9.201S54.58,47.15,49.498,47.15z M76.404,47.15c-5.082,0-9.202-4.119-9.202-9.201
			s4.12-9.201,9.202-9.201c5.08,0,9.201,4.119,9.201,9.201S81.484,47.15,76.404,47.15z"/>
		<circle cx="73.473" cy="88.356" r="3.666"/>
		<circle cx="80.348" cy="74.943" r="6.872"/>
	</g>
</g>
<g>
</g>
<g>
</g>
<g>
</g>
<g>
</g>
<g>
</g>
<g>
</g>
<g>
</g>
<g>
</g>
<g>
</g>
<g>
</g>
<g>
</g>
<g>
</g>
<g>
</g>
<g>
</g>
<g>
</g>
</svg>
