<?xml version="1.0" encoding="iso-8859-1"?>
<!-- Generator: Adobe Illustrator 16.0.0, SVG Export Plug-In . SVG Version: 6.00 Build 0)  -->
<!DOCTYPE svg PUBLIC "-//W3C//DTD SVG 1.1//EN" "http://www.w3.org/Graphics/SVG/1.1/DTD/svg11.dtd">
<svg version="1.1" id="Capa_1" xmlns="http://www.w3.org/2000/svg" xmlns:xlink="http://www.w3.org/1999/xlink" x="0px" y="0px"
	 width="97.088px" height="97.088px" viewBox="0 0 97.088 97.088" style="enable-background:new 0 0 97.088 97.088;"
	 xml:space="preserve">
<g>
	<g>
		<path d="M36.307,25.732c-1.172-1.172-3.244-1.17-4.413,0L21.375,36.253c-1.219,1.219-1.219,3.194,0,4.414l11.862,11.861
			l-1.805,1.803c-2.659,2.658-6.446,5.002-10.116,7.274c-3.746,2.319-7.62,4.717-10.391,7.485C2.427,77.59-2.06,87.592,0.923,91.387
			c0.105,0.135,0.223,0.261,0.349,0.375l0.077,0.072c0.115,0.105,0.238,0.203,0.369,0.289c0.761,0.51,1.753,0.769,2.949,0.769
			c5.003,0,12.52-4.284,19.147-10.912c2.77-2.769,5.167-6.644,7.489-10.396c2.268-3.664,4.611-7.451,7.27-10.107l1.807-1.805
			l11.862,11.858c1.219,1.218,3.195,1.218,4.413,0l10.52-10.519c0.585-0.586,0.914-1.379,0.914-2.207
			c0-0.827-0.329-1.622-0.914-2.207L36.307,25.732z"/>
		<path d="M97.015,29.128c-0.231-1.042-0.979-1.893-1.983-2.256c-5.926-2.148-10.997-6.558-14.208-9.88
			c-2.43-2.514-5.453-5.643-10.411-9.537c-2.753-2.163-5.743-3.259-8.89-3.259c-8.563,0-16.5,7.974-20.471,12.727
			c-1.034,1.24-0.952,3.064,0.189,4.206l30.7,30.702c0.585,0.586,1.378,0.914,2.206,0.914s1.622-0.328,2.207-0.914l19.819-19.819
			C96.928,31.257,97.245,30.169,97.015,29.128z"/>
	</g>
</g>
<g>
</g>
<g>
</g>
<g>
</g>
<g>
</g>
<g>
</g>
<g>
</g>
<g>
</g>
<g>
</g>
<g>
</g>
<g>
</g>
<g>
</g>
<g>
</g>
<g>
</g>
<g>
</g>
<g>
</g>
</svg>
