<?xml version="1.0" encoding="iso-8859-1"?>
<!-- Generator: Adobe Illustrator 16.0.0, SVG Export Plug-In . SVG Version: 6.00 Build 0)  -->
<!DOCTYPE svg PUBLIC "-//W3C//DTD SVG 1.1//EN" "http://www.w3.org/Graphics/SVG/1.1/DTD/svg11.dtd">
<svg version="1.1" id="Capa_1" xmlns="http://www.w3.org/2000/svg" xmlns:xlink="http://www.w3.org/1999/xlink" x="0px" y="0px"
	 width="97.94px" height="97.94px" viewBox="0 0 97.94 97.94" style="enable-background:new 0 0 97.94 97.94;" xml:space="preserve"
	>
<g>
	<path d="M85.854,32.254c-3.189-3.184-7.174-4.752-11.214-4.421c-3.19,0.264-5.515,1.723-7.562,3.012
		c-1.57,0.986-2.936,1.844-4.563,2.087c-2.485-0.018-3.658-2.269-3.805-3.11c-0.311-1.775,0.133-3.139,0.691-4.868
		c0.207-0.634,0.402-1.247,0.542-1.779c1.617-5.76,0.591-11.714-2.818-16.334c-3.098-4.196-7.678-6.678-12.573-6.822
		c-6.97-0.383-19.183,5.155-28.188,16.227c-7.598,9.34-11.578,20.94-11.508,33.547C4.994,73.279,20.895,90.986,35.785,95.72
		c17.627,5.597,35.604,0.437,46.916-13.47c0-0.002,0-0.002,0-0.002c5.233-6.434,8.744-14.391,10.149-23.01l0.04-0.324
		C93.832,47.189,91.332,37.722,85.854,32.254z M74.524,75.347c-5.028,6.183-12.124,8.738-15.847,5.711
		c-3.723-3.028-2.664-10.494,2.365-16.677c5.026-6.182,12.123-8.74,15.845-5.711C80.611,61.697,79.551,69.166,74.524,75.347z"/>
</g>
<g>
</g>
<g>
</g>
<g>
</g>
<g>
</g>
<g>
</g>
<g>
</g>
<g>
</g>
<g>
</g>
<g>
</g>
<g>
</g>
<g>
</g>
<g>
</g>
<g>
</g>
<g>
</g>
<g>
</g>
</svg>
