<?xml version="1.0" encoding="iso-8859-1"?>
<!-- Generator: Adobe Illustrator 16.0.0, SVG Export Plug-In . SVG Version: 6.00 Build 0)  -->
<!DOCTYPE svg PUBLIC "-//W3C//DTD SVG 1.1//EN" "http://www.w3.org/Graphics/SVG/1.1/DTD/svg11.dtd">
<svg version="1.1" id="Capa_1" xmlns="http://www.w3.org/2000/svg" xmlns:xlink="http://www.w3.org/1999/xlink" x="0px" y="0px"
	 width="97.872px" height="97.872px" viewBox="0 0 97.872 97.872" style="enable-background:new 0 0 97.872 97.872;"
	 xml:space="preserve">
<g>
	<path d="M93.09,0.518c-0.979-0.654-2.358-0.692-3.367-0.094L4.932,50.734c-1.09,0.646-1.686,1.874-1.519,3.132
		c0.169,1.257,1.065,2.285,2.281,2.618l24.516,6.837l0.02,32.096c0,1.084,0.729,2.054,1.761,2.354
		c0.226,0.065,0.457,0.101,0.695,0.101c0.742,0,1.429-0.329,1.892-0.893l25.768-25.284l19.475,5.421
		c0.279,0.079,0.569,0.12,0.863,0.12c0.615,0,1.21-0.175,1.716-0.503c0.761-0.489,1.274-1.285,1.408-2.18L94.45,3.616
		C94.636,2.417,94.104,1.201,93.09,0.518z M78.922,71.356L41.465,60.59l23.954-24.738c1.129-0.923,1.297-2.595,0.377-3.727
		c-0.889-1.091-2.631-1.273-3.729-0.384L30.034,57.756l-18.068-5.03L88.538,7.294L78.922,71.356z"/>
</g>
<g>
</g>
<g>
</g>
<g>
</g>
<g>
</g>
<g>
</g>
<g>
</g>
<g>
</g>
<g>
</g>
<g>
</g>
<g>
</g>
<g>
</g>
<g>
</g>
<g>
</g>
<g>
</g>
<g>
</g>
</svg>
