<?xml version="1.0" encoding="iso-8859-1"?>
<!-- Generator: Adobe Illustrator 16.0.0, SVG Export Plug-In . SVG Version: 6.00 Build 0)  -->
<!DOCTYPE svg PUBLIC "-//W3C//DTD SVG 1.1//EN" "http://www.w3.org/Graphics/SVG/1.1/DTD/svg11.dtd">
<svg version="1.1" id="Capa_1" xmlns="http://www.w3.org/2000/svg" xmlns:xlink="http://www.w3.org/1999/xlink" x="0px" y="0px"
	 width="97.195px" height="97.195px" viewBox="0 0 97.195 97.195" style="enable-background:new 0 0 97.195 97.195;"
	 xml:space="preserve">
<g>
	<g>
		<path d="M82.479,16.947V8.15c0-1.104-0.896-2-2-2H31.227c-10,0-17.458,2.146-22.799,6.562C2.836,17.337,0,23.889,0,32.185
			c0,9.107,2.743,15.859,8.387,20.643c5.622,4.766,13.788,7.182,24.271,7.182h9.119v29.036c0,1.104,0.896,2,2,2h6.234
			c1.104,0,2-0.896,2-2V18.947h8.035v70.098c0,1.104,0.896,2,2,2h6.037c1.104,0,2-0.896,2-2V18.947h10.395
			C81.583,18.947,82.479,18.051,82.479,16.947z"/>
		<path d="M96.516,47.121L82.107,34.456c-0.59-0.518-1.43-0.643-2.145-0.32c-0.716,0.324-1.176,1.037-1.176,1.822v25.286
			c0,0.785,0.459,1.496,1.174,1.82c0.266,0.12,0.547,0.18,0.825,0.18c0.478,0,0.946-0.17,1.317-0.496l14.41-12.619
			c0.433-0.381,0.682-0.928,0.682-1.503C97.197,48.049,96.949,47.501,96.516,47.121z"/>
	</g>
</g>
<g>
</g>
<g>
</g>
<g>
</g>
<g>
</g>
<g>
</g>
<g>
</g>
<g>
</g>
<g>
</g>
<g>
</g>
<g>
</g>
<g>
</g>
<g>
</g>
<g>
</g>
<g>
</g>
<g>
</g>
</svg>
