<?xml version="1.0" encoding="iso-8859-1"?>
<!-- Generator: Adobe Illustrator 16.0.0, SVG Export Plug-In . SVG Version: 6.00 Build 0)  -->
<!DOCTYPE svg PUBLIC "-//W3C//DTD SVG 1.1//EN" "http://www.w3.org/Graphics/SVG/1.1/DTD/svg11.dtd">
<svg version="1.1" id="Capa_1" xmlns="http://www.w3.org/2000/svg" xmlns:xlink="http://www.w3.org/1999/xlink" x="0px" y="0px"
	 width="95.021px" height="95.021px" viewBox="0 0 95.021 95.021" style="enable-background:new 0 0 95.021 95.021;"
	 xml:space="preserve">
<g>
	<g>
		<path d="M31.034,17.101h36.163c1.104,0,2-0.896,2-2V2.021c0-1.104-0.896-2-2-2H31.034c-1.104,0-2,0.896-2,2v13.079
			C29.034,16.205,29.931,17.101,31.034,17.101z"/>
		<path d="M91.601,25.994H31.034c-1.104,0-2,0.896-2,2v13.079c0,1.104,0.896,2,2,2h60.567c1.105,0,2-0.896,2-2V27.994
			C93.601,26.89,92.706,25.994,91.601,25.994z"/>
		<path d="M31.034,69.049h36.163c1.104,0,2-0.896,2-2V53.97c0-1.104-0.896-2-2-2H31.034c-1.104,0-2,0.896-2,2v13.079
			C29.034,68.154,29.931,69.049,31.034,69.049z"/>
		<path d="M91.601,77.943H31.034c-1.104,0-2,0.896-2,2v13.078c0,1.104,0.896,2,2,2h60.567c1.105,0,2-0.896,2-2V79.943
			C93.601,78.838,92.706,77.943,91.601,77.943z"/>
		<path d="M23.556,29.034H12.4v-1.479c0-0.809-0.488-1.538-1.234-1.848c-0.75-0.31-1.607-0.14-2.18,0.434L2.007,33.12
			c-0.781,0.781-0.781,2.047,0,2.828l6.979,6.979c0.383,0.383,0.893,0.586,1.414,0.586c0.258,0,0.518-0.05,0.766-0.152
			c0.746-0.31,1.234-1.039,1.234-1.848v-1.479h11.156c1.104,0,2-0.896,2-2v-6.998C25.556,29.93,24.659,29.034,23.556,29.034z"/>
		<path d="M3.562,7h18.883c1.104,0,2-0.896,2-2V2c0-1.104-0.896-2-2-2H3.562c-1.105,0-2,0.896-2,2v3C1.562,6.104,2.456,7,3.562,7z"
			/>
		<path d="M22.445,62.049H3.562c-1.105,0-2,0.896-2,2v3c0,1.104,0.895,2,2,2h18.883c1.104,0,2-0.896,2-2v-3
			C24.445,62.945,23.548,62.049,22.445,62.049z"/>
	</g>
</g>
<g>
</g>
<g>
</g>
<g>
</g>
<g>
</g>
<g>
</g>
<g>
</g>
<g>
</g>
<g>
</g>
<g>
</g>
<g>
</g>
<g>
</g>
<g>
</g>
<g>
</g>
<g>
</g>
<g>
</g>
</svg>
