<?xml version="1.0" encoding="iso-8859-1"?>
<!-- Generator: Adobe Illustrator 16.0.0, SVG Export Plug-In . SVG Version: 6.00 Build 0)  -->
<!DOCTYPE svg PUBLIC "-//W3C//DTD SVG 1.1//EN" "http://www.w3.org/Graphics/SVG/1.1/DTD/svg11.dtd">
<svg version="1.1" id="Capa_1" xmlns="http://www.w3.org/2000/svg" xmlns:xlink="http://www.w3.org/1999/xlink" x="0px" y="0px"
	 width="96px" height="96px" viewBox="0 0 96 96" style="enable-background:new 0 0 96 96;" xml:space="preserve">
<g>
	<path d="M48,0C21.49,0,0,21.49,0,48s21.49,48,48,48s48-21.49,48-48S74.51,0,48,0z M48,4.993c5.658,0,10.262,4.603,10.262,10.261
		c0,5.658-4.604,10.263-10.262,10.263s-10.262-4.604-10.262-10.262C37.738,9.597,42.342,4.993,48,4.993z M76.777,35.014
		c-1.471,1.286-6.344,4.382-19.825,5.359l0,0c2.603,3.609,5.262,8.061,7.909,13.229c9.178,17.922,8.705,25.688,8.076,28.196
		c-0.125,0.5-0.485,0.91-0.965,1.099c-0.188,0.073-0.387,0.11-0.584,0.11c-0.305,0-0.606-0.087-0.871-0.258
		c-2.162-1.406-9.849-7.213-17.875-22.89c-1.224-2.389-1.443-2.815-3.832-7.459L48,50.824l-0.81,1.574
		c-2.389,4.645-2.609,5.072-3.832,7.461c-8.025,15.674-15.711,21.481-17.876,22.889c-0.432,0.282-0.973,0.336-1.454,0.146
		c-0.48-0.188-0.84-0.598-0.965-1.098c-0.628-2.509-1.1-10.277,8.077-28.195c2.646-5.168,5.308-9.621,7.907-13.229
		c-13.479-0.977-18.355-4.073-19.824-5.358c-0.388-0.34-0.589-0.846-0.538-1.36c0.05-0.513,0.346-0.971,0.794-1.227
		C21.721,31.142,30.398,26.95,48,26.95c17.598,0,26.277,4.191,28.52,5.476c0.448,0.256,0.744,0.714,0.795,1.228
		C77.366,34.167,77.166,34.674,76.777,35.014z"/>
</g>
<g>
</g>
<g>
</g>
<g>
</g>
<g>
</g>
<g>
</g>
<g>
</g>
<g>
</g>
<g>
</g>
<g>
</g>
<g>
</g>
<g>
</g>
<g>
</g>
<g>
</g>
<g>
</g>
<g>
</g>
</svg>
