<?xml version="1.0" encoding="iso-8859-1"?>
<!-- Generator: Adobe Illustrator 16.0.0, SVG Export Plug-In . SVG Version: 6.00 Build 0)  -->
<!DOCTYPE svg PUBLIC "-//W3C//DTD SVG 1.1//EN" "http://www.w3.org/Graphics/SVG/1.1/DTD/svg11.dtd">
<svg version="1.1" id="Capa_1" xmlns="http://www.w3.org/2000/svg" xmlns:xlink="http://www.w3.org/1999/xlink" x="0px" y="0px"
	 width="95.093px" height="95.094px" viewBox="0 0 95.093 95.094" style="enable-background:new 0 0 95.093 95.094;"
	 xml:space="preserve">
<g>
	<g>
		<path d="M72.744,0H22.35c-2.16,0-3.918,1.758-3.918,3.919v87.256c0,2.161,1.758,3.919,3.918,3.919h50.395
			c2.159,0,3.918-1.758,3.918-3.919V3.919C76.662,1.758,74.904,0,72.744,0z M47.546,89.436c-2.7,0-4.889-2.188-4.889-4.889
			s2.189-4.889,4.889-4.889s4.889,2.188,4.889,4.889S50.247,89.436,47.546,89.436z M68.824,74.849H26.269V7.837h42.557v67.012
			H68.824z"/>
		<path d="M34.361,13.295c-1.414,0-2.561,1.146-2.561,2.561v21.345l23.904-23.905L34.361,13.295L34.361,13.295z"/>
	</g>
</g>
<g>
</g>
<g>
</g>
<g>
</g>
<g>
</g>
<g>
</g>
<g>
</g>
<g>
</g>
<g>
</g>
<g>
</g>
<g>
</g>
<g>
</g>
<g>
</g>
<g>
</g>
<g>
</g>
<g>
</g>
</svg>
