<?xml version="1.0" encoding="iso-8859-1"?>
<!-- Generator: Adobe Illustrator 16.0.0, SVG Export Plug-In . SVG Version: 6.00 Build 0)  -->
<!DOCTYPE svg PUBLIC "-//W3C//DTD SVG 1.1//EN" "http://www.w3.org/Graphics/SVG/1.1/DTD/svg11.dtd">
<svg version="1.1" id="Capa_1" xmlns="http://www.w3.org/2000/svg" xmlns:xlink="http://www.w3.org/1999/xlink" x="0px" y="0px"
	 width="97.666px" height="97.666px" viewBox="0 0 97.666 97.666" style="enable-background:new 0 0 97.666 97.666;"
	 xml:space="preserve">
<g>
	<g>
		<path d="M95.666,17.412H26.873v-2.031c0-1.104-0.896-2-2-2H8.423c-1.104,0-2,0.896-2,2v2.031H2c-1.104,0-2,0.896-2,2v62.873
			c0,1.104,0.896,2,2,2h93.666c1.104,0,2-0.896,2-2V19.412C97.666,18.308,96.771,17.412,95.666,17.412z M63.777,35.803
			c3.998,3.989,6.291,9.473,6.291,15.047c0,5.573-2.293,11.058-6.289,15.045c-0.573,0.571-0.745,1.432-0.438,2.18
			c0.311,0.748,1.039,1.236,1.85,1.236h26.808v9.308H5.667v-9.308h26.808c0.007,0,0.015,0,0.02,0c1.105,0,2-0.896,2-2
			c0-0.636-0.296-1.203-0.758-1.568c-3.903-3.977-6.139-9.393-6.139-14.895c0-5.572,2.293-11.057,6.291-15.046
			c0.572-0.571,0.744-1.432,0.436-2.18c-0.31-0.748-1.039-1.236-1.849-1.236H5.667v-9.308h86.332v9.308H65.191
			c-0.811,0-1.539,0.488-1.85,1.236C63.034,34.371,63.206,35.231,63.777,35.803z"/>
		<path d="M48.833,37.266c-7.49,0-13.584,6.093-13.584,13.583c0,7.489,6.094,13.582,13.584,13.582s13.584-6.094,13.584-13.582
			C62.417,43.359,56.323,37.266,48.833,37.266z"/>
	</g>
</g>
<g>
</g>
<g>
</g>
<g>
</g>
<g>
</g>
<g>
</g>
<g>
</g>
<g>
</g>
<g>
</g>
<g>
</g>
<g>
</g>
<g>
</g>
<g>
</g>
<g>
</g>
<g>
</g>
<g>
</g>
</svg>
