<?xml version="1.0" encoding="iso-8859-1"?>
<!-- Generator: Adobe Illustrator 16.0.0, SVG Export Plug-In . SVG Version: 6.00 Build 0)  -->
<!DOCTYPE svg PUBLIC "-//W3C//DTD SVG 1.1//EN" "http://www.w3.org/Graphics/SVG/1.1/DTD/svg11.dtd">
<svg version="1.1" id="Capa_1" xmlns="http://www.w3.org/2000/svg" xmlns:xlink="http://www.w3.org/1999/xlink" x="0px" y="0px"
	 width="96.5px" height="96.5px" viewBox="0 0 96.5 96.5" style="enable-background:new 0 0 96.5 96.5;" xml:space="preserve">
<g>
	<g>
		<path d="M94,15.961H35.375c-0.793,0-1.539,0.376-2.01,1.013l-8.411,11.371H2.5c-1.381,0-2.5,1.119-2.5,2.5v47.193
			c0,1.381,1.119,2.5,2.5,2.5H94c1.381,0,2.5-1.119,2.5-2.5V18.461C96.5,17.082,95.381,15.961,94,15.961z M43.815,49
			c0-9.953,8.098-18.051,18.051-18.051c9.952,0,18.051,8.098,18.051,18.051s-8.099,18.051-18.051,18.051
			C51.913,67.051,43.815,58.954,43.815,49z"/>
		<path d="M18.75,15.961H3.25c-1.381,0-2.5,1.119-2.5,2.5v4.955h20.5v-4.955C21.25,17.082,20.131,15.961,18.75,15.961z"/>
	</g>
</g>
<g>
</g>
<g>
</g>
<g>
</g>
<g>
</g>
<g>
</g>
<g>
</g>
<g>
</g>
<g>
</g>
<g>
</g>
<g>
</g>
<g>
</g>
<g>
</g>
<g>
</g>
<g>
</g>
<g>
</g>
</svg>
