<?xml version="1.0" encoding="iso-8859-1"?>
<!-- Generator: Adobe Illustrator 16.0.0, SVG Export Plug-In . SVG Version: 6.00 Build 0)  -->
<!DOCTYPE svg PUBLIC "-//W3C//DTD SVG 1.1//EN" "http://www.w3.org/Graphics/SVG/1.1/DTD/svg11.dtd">
<svg version="1.1" id="Capa_1" xmlns="http://www.w3.org/2000/svg" xmlns:xlink="http://www.w3.org/1999/xlink" x="0px" y="0px"
	 width="98.089px" height="98.089px" viewBox="0 0 98.089 98.089" style="enable-background:new 0 0 98.089 98.089;"
	 xml:space="preserve">
<g>
	<g>
		<path d="M65.796,11.469H49.517l-2.39-9.601C46.854,0.77,45.868,0,44.734,0h-19.1c-1.131,0-2.117,0.771-2.391,1.87l-2.383,9.6
			H4.591c-1.361,0-2.465,1.103-2.465,2.464v45.409c0,1.36,1.104,2.462,2.465,2.462h61.205c1.361,0,2.462-1.102,2.462-2.462v-45.41
			C68.258,12.572,67.158,11.469,65.796,11.469z M35.193,50.527c-7.66,0-13.894-6.231-13.894-13.893
			c0-7.66,6.233-13.891,13.894-13.891s13.891,6.232,13.891,13.892C49.084,44.296,42.854,50.527,35.193,50.527z"/>
		<path d="M93.851,33.025H73.888v18.584h9.551v20.274l-0.588-0.017c-7.229,0-13.108,5.881-13.108,13.111
			c0,7.229,5.879,13.11,13.108,13.11c13.111,0,13.111-13.084,13.111-13.11V35.138C95.962,33.971,95.017,33.025,93.851,33.025z"/>
		<path d="M41.207,71.884l-0.59-0.017c-7.229,0-13.111,5.881-13.111,13.111c0,7.229,5.883,13.11,13.111,13.11
			c7.104,0,12.983-5.78,13.104-12.84l0.006-0.202c0-0.025,0.002-0.052,0.002-0.079V67.434H41.207V71.884z"/>
	</g>
</g>
<g>
</g>
<g>
</g>
<g>
</g>
<g>
</g>
<g>
</g>
<g>
</g>
<g>
</g>
<g>
</g>
<g>
</g>
<g>
</g>
<g>
</g>
<g>
</g>
<g>
</g>
<g>
</g>
<g>
</g>
</svg>
