<?xml version="1.0" encoding="iso-8859-1"?>
<!-- Generator: Adobe Illustrator 16.0.0, SVG Export Plug-In . SVG Version: 6.00 Build 0)  -->
<!DOCTYPE svg PUBLIC "-//W3C//DTD SVG 1.1//EN" "http://www.w3.org/Graphics/SVG/1.1/DTD/svg11.dtd">
<svg version="1.1" id="Capa_1" xmlns="http://www.w3.org/2000/svg" xmlns:xlink="http://www.w3.org/1999/xlink" x="0px" y="0px"
	 width="92.965px" height="92.965px" viewBox="0 0 92.965 92.965" style="enable-background:new 0 0 92.965 92.965;"
	 xml:space="preserve">
<g>
	<g>
		<path d="M89.964,19.371H66.441L62.951,5.35C62.618,4.01,61.42,3.074,60.04,3.074H32.9c-1.381,0-2.579,0.937-2.912,2.277
			l-3.481,14.019H3c-1.654,0-3,1.346-3,3v64.52c0,1.654,1.346,3,3,3h86.965c1.654,0,3-1.346,3-3v-64.52
			C92.964,20.716,91.619,19.371,89.964,19.371z M46.482,74.868c-11.16,0-20.238-9.079-20.238-20.237
			c0-11.159,9.078-20.238,20.238-20.238c11.161,0,20.238,9.079,20.238,20.238C66.72,65.789,57.643,74.868,46.482,74.868z"/>
	</g>
</g>
<g>
</g>
<g>
</g>
<g>
</g>
<g>
</g>
<g>
</g>
<g>
</g>
<g>
</g>
<g>
</g>
<g>
</g>
<g>
</g>
<g>
</g>
<g>
</g>
<g>
</g>
<g>
</g>
<g>
</g>
</svg>
