<?xml version="1.0" encoding="iso-8859-1"?>
<!-- Generator: Adobe Illustrator 16.0.0, SVG Export Plug-In . SVG Version: 6.00 Build 0)  -->
<!DOCTYPE svg PUBLIC "-//W3C//DTD SVG 1.1//EN" "http://www.w3.org/Graphics/SVG/1.1/DTD/svg11.dtd">
<svg version="1.1" id="Capa_1" xmlns="http://www.w3.org/2000/svg" xmlns:xlink="http://www.w3.org/1999/xlink" x="0px" y="0px"
	 width="95.721px" height="95.721px" viewBox="0 0 95.721 95.721" style="enable-background:new 0 0 95.721 95.721;"
	 xml:space="preserve">
<g>
	<path d="M94.607,27.86L67.838,1.09c-1.428-1.427-3.954-1.427-5.381,0l-7.402,7.401c-0.714,0.714-1.115,1.683-1.113,2.692
		c0,1.007,0.399,1.974,1.111,2.687l0.1,0.162c1.838,2.995-1.785,11.795-10.109,20.12c-2.304,2.304-4.702,4.316-7.127,5.983
		l-1.119,0.77l-2.805-2.807c-1.673-1.674-3.903-2.596-6.279-2.596s-4.606,0.923-6.281,2.597c-1.674,1.674-2.596,3.904-2.596,6.28
		c0,2.375,0.922,4.605,2.596,6.28l8.689,8.69L1.076,89.244C0.358,89.983,0.001,90.939,0,91.894c0,0.992,0.386,1.983,1.154,2.729
		c0.739,0.719,1.695,1.077,2.651,1.077c0.992,0,1.983-0.386,2.729-1.154l28.969-29.812l9.535,9.533
		c1.674,1.675,3.904,2.598,6.281,2.598c2.375,0,4.606-0.922,6.28-2.597c3.462-3.464,3.462-9.099-0.001-12.562l-2.805-2.803
		l0.77-1.118c1.668-2.428,3.682-4.826,5.983-7.126c8.369-8.369,15.536-10.581,18.157-10.581c0.796,0,1.455,0.158,1.963,0.47
		l0.164,0.101c1.486,1.481,3.891,1.479,5.376-0.005l7.401-7.402C96.093,31.755,96.093,29.346,94.607,27.86z"/>
</g>
<g>
</g>
<g>
</g>
<g>
</g>
<g>
</g>
<g>
</g>
<g>
</g>
<g>
</g>
<g>
</g>
<g>
</g>
<g>
</g>
<g>
</g>
<g>
</g>
<g>
</g>
<g>
</g>
<g>
</g>
</svg>
