<?xml version="1.0" encoding="iso-8859-1"?>
<!-- Generator: Adobe Illustrator 16.0.0, SVG Export Plug-In . SVG Version: 6.00 Build 0)  -->
<!DOCTYPE svg PUBLIC "-//W3C//DTD SVG 1.1//EN" "http://www.w3.org/Graphics/SVG/1.1/DTD/svg11.dtd">
<svg version="1.1" id="Capa_1" xmlns="http://www.w3.org/2000/svg" xmlns:xlink="http://www.w3.org/1999/xlink" x="0px" y="0px"
	 width="95.762px" height="95.762px" viewBox="0 0 95.762 95.762" style="enable-background:new 0 0 95.762 95.762;"
	 xml:space="preserve">
<g>
	<path d="M47.879,0C35.272,0,25.017,10.257,25.017,22.863c0,10.604,7.428,19.904,17.722,22.271v48.628
		c0,0.867,0.558,1.635,1.383,1.902c0.203,0.066,0.411,0.098,0.617,0.098c0.629,0,1.236-0.297,1.62-0.826l6.283-8.664
		c0.248-0.341,0.381-0.752,0.381-1.174V45.134c10.293-2.366,17.723-11.666,17.723-22.271C70.742,10.257,60.486,0,47.879,0z
		 M61.755,14.041c-0.355,0.431-0.965,0.668-1.715,0.668c-1.285,0-2.849-0.658-4.182-1.76c-1.113-0.921-1.943-2.036-2.337-3.141
		c-0.356-1-0.3-1.892,0.159-2.445c0.355-0.431,0.965-0.668,1.715-0.668c1.285,0,2.848,0.657,4.18,1.759
		c1.113,0.921,1.943,2.036,2.338,3.141C62.271,12.595,62.212,13.487,61.755,14.041z"/>
</g>
<g>
</g>
<g>
</g>
<g>
</g>
<g>
</g>
<g>
</g>
<g>
</g>
<g>
</g>
<g>
</g>
<g>
</g>
<g>
</g>
<g>
</g>
<g>
</g>
<g>
</g>
<g>
</g>
<g>
</g>
</svg>
