<?xml version="1.0" encoding="iso-8859-1"?>
<!-- Generator: Adobe Illustrator 16.0.0, SVG Export Plug-In . SVG Version: 6.00 Build 0)  -->
<!DOCTYPE svg PUBLIC "-//W3C//DTD SVG 1.1//EN" "http://www.w3.org/Graphics/SVG/1.1/DTD/svg11.dtd">
<svg version="1.1" id="Capa_1" xmlns="http://www.w3.org/2000/svg" xmlns:xlink="http://www.w3.org/1999/xlink" x="0px" y="0px"
	 width="95.098px" height="95.098px" viewBox="0 0 95.098 95.098" style="enable-background:new 0 0 95.098 95.098;"
	 xml:space="preserve">
<g>
	<g>
		<path d="M95.098,92.961V2.137C95.098,0.959,94.139,0,92.961,0H2.137C0.959,0,0,0.959,0,2.137v90.824
			c0,1.178,0.959,2.137,2.137,2.137h90.824C94.139,95.098,95.098,94.139,95.098,92.961z M8.998,86.1V8.998H86.1V86.1H8.998z"/>
		<path d="M29.613,21.135v52.83c0,0.445,0.333,0.846,0.852,1.016c0.514,0.17,1.105,0.076,1.5-0.238L65.08,48.326
			c0.269-0.215,0.404-0.495,0.404-0.775c0-0.279-0.137-0.562-0.404-0.777L31.965,20.358c-0.395-0.314-0.986-0.41-1.5-0.238
			C29.946,20.289,29.613,20.69,29.613,21.135z"/>
	</g>
</g>
<g>
</g>
<g>
</g>
<g>
</g>
<g>
</g>
<g>
</g>
<g>
</g>
<g>
</g>
<g>
</g>
<g>
</g>
<g>
</g>
<g>
</g>
<g>
</g>
<g>
</g>
<g>
</g>
<g>
</g>
</svg>
