<?xml version="1.0" encoding="iso-8859-1"?>
<!-- Generator: Adobe Illustrator 16.0.0, SVG Export Plug-In . SVG Version: 6.00 Build 0)  -->
<!DOCTYPE svg PUBLIC "-//W3C//DTD SVG 1.1//EN" "http://www.w3.org/Graphics/SVG/1.1/DTD/svg11.dtd">
<svg version="1.1" id="Capa_1" xmlns="http://www.w3.org/2000/svg" xmlns:xlink="http://www.w3.org/1999/xlink" x="0px" y="0px"
	 width="95.75px" height="95.75px" viewBox="0 0 95.75 95.75" style="enable-background:new 0 0 95.75 95.75;" xml:space="preserve"
	>
<g>
	<g>
		<path d="M61.07,57.655l-20.269-15.96c-0.661-0.521-1.563-0.616-2.317-0.25c-0.757,0.367-1.238,1.134-1.238,1.976l-0.016,31.9
			c0,0.841,0.479,1.607,1.236,1.977c0.305,0.146,0.633,0.221,0.959,0.221c0.483,0,0.964-0.158,1.358-0.47l20.284-15.94
			c0.529-0.416,0.84-1.053,0.84-1.727S61.602,58.071,61.07,57.655z"/>
		<path d="M93.203,0H2.547C1.141,0,0,1.141,0,2.546v90.657c0,1.406,1.141,2.546,2.547,2.546h90.656c1.406,0,2.547-1.14,2.547-2.546
			V2.546C95.75,1.141,94.609,0,93.203,0z M64.373,21.604l7.094-14.531c0.251-0.515,0.774-0.842,1.348-0.842H84.6
			c0.518,0,0.998,0.267,1.271,0.706c0.273,0.438,0.303,0.988,0.074,1.453l-7.094,14.531c-0.252,0.515-0.774,0.842-1.349,0.842
			H65.721c-0.518,0-0.998-0.267-1.271-0.706C64.175,22.619,64.146,22.068,64.373,21.604z M37.089,21.604l7.094-14.531
			c0.251-0.515,0.774-0.842,1.348-0.842h11.784c0.518,0,0.998,0.267,1.271,0.706c0.273,0.438,0.303,0.988,0.075,1.453l-7.095,14.531
			c-0.25,0.515-0.773,0.842-1.348,0.842H38.437c-0.518,0-0.998-0.267-1.272-0.706S36.861,22.068,37.089,21.604z M9.804,21.604
			l7.094-14.531c0.251-0.515,0.774-0.842,1.348-0.842h11.783c0.518,0,0.998,0.267,1.272,0.706c0.273,0.438,0.303,0.988,0.075,1.453
			l-7.094,14.531c-0.251,0.515-0.774,0.842-1.348,0.842H11.151c-0.518,0-0.998-0.267-1.272-0.706S9.576,22.068,9.804,21.604z
			 M87.917,86.502c0,0.829-0.672,1.5-1.5,1.5H9.333c-0.828,0-1.5-0.671-1.5-1.5V31.531c0-0.829,0.672-1.5,1.5-1.5h77.084
			c0.828,0,1.5,0.671,1.5,1.5V86.502z"/>
	</g>
</g>
<g>
</g>
<g>
</g>
<g>
</g>
<g>
</g>
<g>
</g>
<g>
</g>
<g>
</g>
<g>
</g>
<g>
</g>
<g>
</g>
<g>
</g>
<g>
</g>
<g>
</g>
<g>
</g>
<g>
</g>
</svg>
