<?xml version="1.0" encoding="iso-8859-1"?>
<!-- Generator: Adobe Illustrator 16.0.0, SVG Export Plug-In . SVG Version: 6.00 Build 0)  -->
<!DOCTYPE svg PUBLIC "-//W3C//DTD SVG 1.1//EN" "http://www.w3.org/Graphics/SVG/1.1/DTD/svg11.dtd">
<svg version="1.1" id="Capa_1" xmlns="http://www.w3.org/2000/svg" xmlns:xlink="http://www.w3.org/1999/xlink" x="0px" y="0px"
	 width="96.582px" height="96.582px" viewBox="0 0 96.582 96.582" style="enable-background:new 0 0 96.582 96.582;"
	 xml:space="preserve">
<g>
	<path d="M48.291,0C21.663,0,0,21.663,0,48.291s21.663,48.291,48.291,48.291s48.291-21.663,48.291-48.291S74.919,0,48.291,0z
		 M84.582,48.291c0,6.932-1.962,13.408-5.35,18.921L29.369,17.349C34.883,13.963,41.36,12,48.291,12
		C68.303,12,84.582,28.28,84.582,48.291z M12,48.291c0-6.931,1.962-13.408,5.349-18.921l49.864,49.864
		c-5.514,3.386-11.99,5.348-18.922,5.348C28.28,84.582,12,68.302,12,48.291z"/>
</g>
<g>
</g>
<g>
</g>
<g>
</g>
<g>
</g>
<g>
</g>
<g>
</g>
<g>
</g>
<g>
</g>
<g>
</g>
<g>
</g>
<g>
</g>
<g>
</g>
<g>
</g>
<g>
</g>
<g>
</g>
</svg>
