<?xml version="1.0" encoding="iso-8859-1"?>
<!-- Generator: Adobe Illustrator 16.0.0, SVG Export Plug-In . SVG Version: 6.00 Build 0)  -->
<!DOCTYPE svg PUBLIC "-//W3C//DTD SVG 1.1//EN" "http://www.w3.org/Graphics/SVG/1.1/DTD/svg11.dtd">
<svg version="1.1" id="Capa_1" xmlns="http://www.w3.org/2000/svg" xmlns:xlink="http://www.w3.org/1999/xlink" x="0px" y="0px"
	 width="98.666px" height="98.666px" viewBox="0 0 98.666 98.666" style="enable-background:new 0 0 98.666 98.666;"
	 xml:space="preserve">
<g>
	<g>
		<path d="M70.562,49.664H28.104c-0.829,0-1.5,0.672-1.5,1.5v8.694c0,0.828,0.671,1.5,1.5,1.5h42.457c0.83,0,1.5-0.672,1.5-1.5
			v-8.694C72.062,50.336,71.391,49.664,70.562,49.664z"/>
		<path d="M70.562,37.307H28.104c-0.829,0-1.5,0.672-1.5,1.5v4.502c0,0.828,0.671,1.5,1.5,1.5h42.457c0.83,0,1.5-0.672,1.5-1.5
			v-4.502C72.062,37.979,71.391,37.307,70.562,37.307z"/>
		<path d="M81.975,23.294H16.691c-1.104,0-2,0.896-2,2v48.078c0,1.104,0.896,2,2,2h65.284c1.104,0,2-0.896,2-2V25.294
			C83.975,24.189,83.079,23.294,81.975,23.294z M76.031,65.428c0,1.104-0.896,2-2,2H24.635c-1.104,0-2-0.896-2-2V33.238
			c0-1.104,0.896-2,2-2h49.396c1.104,0,2,0.896,2,2V65.428z"/>
		<path d="M96.666,34.276h-6.398c-1.104,0-2,0.896-2,2V62.39c0,1.104,0.896,2,2,2h6.398c1.104,0,2-0.896,2-2V36.276
			C98.666,35.172,97.771,34.276,96.666,34.276z"/>
		<path d="M8.399,34.276H2c-1.104,0-2,0.896-2,2V62.39c0,1.104,0.896,2,2,2h6.399c1.104,0,2-0.896,2-2V36.276
			C10.399,35.172,9.504,34.276,8.399,34.276z"/>
	</g>
</g>
<g>
</g>
<g>
</g>
<g>
</g>
<g>
</g>
<g>
</g>
<g>
</g>
<g>
</g>
<g>
</g>
<g>
</g>
<g>
</g>
<g>
</g>
<g>
</g>
<g>
</g>
<g>
</g>
<g>
</g>
</svg>
