<?xml version="1.0" encoding="iso-8859-1"?>
<!-- Generator: Adobe Illustrator 16.0.0, SVG Export Plug-In . SVG Version: 6.00 Build 0)  -->
<!DOCTYPE svg PUBLIC "-//W3C//DTD SVG 1.1//EN" "http://www.w3.org/Graphics/SVG/1.1/DTD/svg11.dtd">
<svg version="1.1" id="Capa_1" xmlns="http://www.w3.org/2000/svg" xmlns:xlink="http://www.w3.org/1999/xlink" x="0px" y="0px"
	 width="97.067px" height="97.067px" viewBox="0 0 97.067 97.067" style="enable-background:new 0 0 97.067 97.067;"
	 xml:space="preserve">
<g>
	<g>
		<path d="M87.116,13.023h-19.17V7.671c0-4.229-3.44-7.671-7.669-7.671H36.79c-4.229,0-7.669,3.441-7.669,7.671v5.353H9.951
			c-1.104,0-2,0.896-2,2v5.587c0,1.104,0.896,2,2,2h7.212l0.008,65.828c0,4.758,3.871,8.628,8.628,8.628h45.468
			c4.758,0,8.629-3.87,8.629-8.628V22.63l7.219,0.005h0.001c0.53,0,1.039-0.211,1.414-0.585c0.375-0.375,0.586-0.885,0.586-1.415
			v-5.612C89.116,13.919,88.221,13.023,87.116,13.023z M36.79,13.023V7.671h23.486l0.003,5.353L36.79,13.023L36.79,13.023z
			 M70.309,24.207v63.271H26.757V24.207H70.309z"/>
		<path d="M36.992,76.809h3.669c1.104,0,2-0.896,2-2V36.877c0-1.104-0.896-2-2-2h-3.669c-1.104,0-2,0.896-2,2v37.934
			C34.992,75.914,35.887,76.809,36.992,76.809z"/>
		<path d="M56.405,76.809h3.669c1.104,0,2-0.896,2-2V36.877c0-1.104-0.896-2-2-2h-3.669c-1.104,0-2,0.896-2,2v37.934
			C54.405,75.914,55.301,76.809,56.405,76.809z"/>
	</g>
</g>
<g>
</g>
<g>
</g>
<g>
</g>
<g>
</g>
<g>
</g>
<g>
</g>
<g>
</g>
<g>
</g>
<g>
</g>
<g>
</g>
<g>
</g>
<g>
</g>
<g>
</g>
<g>
</g>
<g>
</g>
</svg>
