<?xml version="1.0" encoding="iso-8859-1"?>
<!-- Generator: Adobe Illustrator 16.0.0, SVG Export Plug-In . SVG Version: 6.00 Build 0)  -->
<!DOCTYPE svg PUBLIC "-//W3C//DTD SVG 1.1//EN" "http://www.w3.org/Graphics/SVG/1.1/DTD/svg11.dtd">
<svg version="1.1" id="Capa_1" xmlns="http://www.w3.org/2000/svg" xmlns:xlink="http://www.w3.org/1999/xlink" x="0px" y="0px"
	 width="96.466px" height="96.466px" viewBox="0 0 96.466 96.466" style="enable-background:new 0 0 96.466 96.466;"
	 xml:space="preserve">
<g>
	<g>
		<path d="M35.862,73.008H24.549l-8.566,14.094h19.879c1.104,0,2-0.896,2-2V75.008C37.862,73.904,36.966,73.008,35.862,73.008z"/>
		<path d="M28.681,64.604c0.62,0.344,1.374,0.334,1.985-0.025c0.61-0.359,0.985-1.015,0.985-1.723l0.007-23.255
			c0-0.709-0.375-1.364-0.985-1.724c-0.611-0.361-1.367-0.37-1.985-0.026L8.418,49.097c-0.625,0.347-1.017,1.001-1.029,1.715
			c-0.012,0.715,0.357,1.382,0.97,1.749l3.128,1.878L0.281,73.271c-0.445,0.748-0.355,1.697,0.222,2.35l8.21,9.263
			c0.381,0.431,0.927,0.674,1.497,0.674c0.062,0,0.125-0.004,0.188-0.01c0.635-0.06,1.204-0.419,1.531-0.967l13.109-21.997
			L28.681,64.604z"/>
		<path d="M72.223,58.407l5.818,9.702l16.707-0.002l-10.442-16.95c-0.568-0.947-1.798-1.254-2.744-0.686l-8.653,5.191
			C71.961,56.231,71.655,57.46,72.223,58.407z"/>
		<path d="M96.077,73.791c-0.378-0.514-1.001-0.854-1.617-0.813l-25.608,0.077l-0.144-4.166c-0.023-0.708-0.421-1.351-1.043-1.688
			s-1.377-0.322-1.983,0.042l-19.944,11.96c-0.607,0.365-0.977,1.023-0.971,1.732c0.006,0.708,0.386,1.359,1,1.715l20.072,11.595
			c0.311,0.179,0.655,0.27,1,0.27c0.346,0,0.69-0.091,1-0.269c0.619-0.356,1-1.018,1-1.731l0.001-3.649l21.912-0.079
			c0.87-0.004,1.64-0.569,1.9-1.399l3.722-11.808C96.566,74.968,96.456,74.306,96.077,73.791z"/>
		<path d="M46.817,22.149l-7.689-12.33L28.939,26.872c-0.552,0.956-0.225,2.18,0.732,2.731l8.74,5.047
			c0.307,0.178,0.652,0.269,1,0.269c0.173,0,0.347-0.022,0.518-0.068c0.513-0.138,0.949-0.473,1.214-0.932l5.657-9.8
			C47.15,23.51,47.157,22.763,46.817,22.149z"/>
		<path d="M55.585,29.756L52.013,31.9c-0.606,0.365-0.977,1.023-0.971,1.731c0.006,0.709,0.386,1.361,1,1.716L72.179,46.98
			c0.311,0.179,0.655,0.269,1,0.269c0.341,0,0.68-0.087,0.985-0.26c0.617-0.349,1.003-0.998,1.015-1.706l0.395-23.178
			c0.012-0.715-0.357-1.382-0.97-1.749c-0.613-0.368-1.376-0.382-2-0.034l-3.189,1.771L58.707,2.975
			c-0.426-0.76-1.294-1.154-2.146-0.982L44.434,4.469c-0.625,0.128-1.152,0.546-1.418,1.126c-0.266,0.581-0.239,1.253,0.073,1.81
			L55.585,29.756z"/>
	</g>
</g>
<g>
</g>
<g>
</g>
<g>
</g>
<g>
</g>
<g>
</g>
<g>
</g>
<g>
</g>
<g>
</g>
<g>
</g>
<g>
</g>
<g>
</g>
<g>
</g>
<g>
</g>
<g>
</g>
<g>
</g>
</svg>
