<?xml version="1.0" encoding="iso-8859-1"?>
<!-- Generator: Adobe Illustrator 16.0.0, SVG Export Plug-In . SVG Version: 6.00 Build 0)  -->
<!DOCTYPE svg PUBLIC "-//W3C//DTD SVG 1.1//EN" "http://www.w3.org/Graphics/SVG/1.1/DTD/svg11.dtd">
<svg version="1.1" id="Capa_1" xmlns="http://www.w3.org/2000/svg" xmlns:xlink="http://www.w3.org/1999/xlink" x="0px" y="0px"
	 width="95.25px" height="95.25px" viewBox="0 0 95.25 95.25" style="enable-background:new 0 0 95.25 95.25;" xml:space="preserve"
	>
<g>
	<g>
		<path d="M49.208,0h-4.5c-1.104,0-2,0.895-2,2v31.457h-7.75V2c0-1.105-0.895-2-2-2h-5c-1.104,0-2,0.895-2,2v31.457h-7.75V2
			c0-1.105-0.895-2-2-2h-4.5c-1.104,0-2,0.895-2,2v29.25c0,8.844,5.938,16.74,14.438,19.199V93.25c0,1.104,0.896,2,2,2h8.625
			c1.105,0,2-0.896,2-2V50.449c8.502-2.459,14.438-10.355,14.438-19.199V2C51.208,0.895,50.314,0,49.208,0z"/>
		<path d="M85.521,92.965L85.46,2.012c0-0.539-0.219-1.055-0.605-1.432c-0.387-0.375-0.901-0.59-1.446-0.566
			C75.937,0.207,58.558,2.66,58.558,21.217v31.535c0,0.531,0.211,1.039,0.586,1.414s0.885,0.586,1.414,0.586c0,0,0,0,0.002,0
			l12.437-0.004V93.25c0,1.104,0.896,2,2,2h8.524c0.008,0,0.017,0,0.021,0c1.104,0,2-0.896,2-2
			C85.541,93.152,85.533,93.057,85.521,92.965z"/>
	</g>
</g>
<g>
</g>
<g>
</g>
<g>
</g>
<g>
</g>
<g>
</g>
<g>
</g>
<g>
</g>
<g>
</g>
<g>
</g>
<g>
</g>
<g>
</g>
<g>
</g>
<g>
</g>
<g>
</g>
<g>
</g>
</svg>
