<?xml version="1.0" encoding="iso-8859-1"?>
<!-- Generator: Adobe Illustrator 16.0.0, SVG Export Plug-In . SVG Version: 6.00 Build 0)  -->
<!DOCTYPE svg PUBLIC "-//W3C//DTD SVG 1.1//EN" "http://www.w3.org/Graphics/SVG/1.1/DTD/svg11.dtd">
<svg version="1.1" id="Capa_1" xmlns="http://www.w3.org/2000/svg" xmlns:xlink="http://www.w3.org/1999/xlink" x="0px" y="0px"
	 width="95.021px" height="95.021px" viewBox="0 0 95.021 95.021" style="enable-background:new 0 0 95.021 95.021;"
	 xml:space="preserve">
<g>
	<g>
		<path d="M63.987,17.101H27.825c-1.104,0-2-0.896-2-2V2.021c0-1.104,0.896-2,2-2h36.163c1.104,0,2,0.896,2,2v13.079
			C65.987,16.205,65.091,17.101,63.987,17.101z"/>
		<path d="M3.421,25.994h60.566c1.104,0,2,0.896,2,2v13.079c0,1.104-0.896,2-2,2H3.421c-1.105,0-2-0.896-2-2V27.994
			C1.421,26.89,2.316,25.994,3.421,25.994z"/>
		<path d="M63.987,69.049H27.825c-1.104,0-2-0.896-2-2V53.97c0-1.104,0.896-2,2-2h36.163c1.104,0,2,0.896,2,2v13.079
			C65.987,68.154,65.091,69.049,63.987,69.049z"/>
		<path d="M3.421,77.943h60.566c1.104,0,2,0.896,2,2v13.078c0,1.104-0.896,2-2,2H3.421c-1.105,0-2-0.896-2-2V79.943
			C1.421,78.838,2.316,77.943,3.421,77.943z"/>
		<path d="M71.466,29.034h11.156v-1.479c0-0.809,0.488-1.538,1.234-1.848c0.75-0.31,1.606-0.14,2.18,0.434l6.979,6.979
			c0.781,0.781,0.781,2.047,0,2.828l-6.979,6.979c-0.383,0.383-0.894,0.586-1.414,0.586c-0.258,0-0.519-0.05-0.766-0.152
			c-0.746-0.31-1.234-1.039-1.234-1.848v-1.479H71.466c-1.104,0-2-0.896-2-2v-6.998C69.466,29.93,70.362,29.034,71.466,29.034z"/>
		<path d="M91.46,7H72.577c-1.104,0-2-0.896-2-2V2c0-1.104,0.896-2,2-2H91.46c1.105,0,2,0.896,2,2v3C93.46,6.104,92.565,7,91.46,7z"
			/>
		<path d="M72.577,62.049H91.46c1.105,0,2,0.896,2,2v3c0,1.104-0.895,2-2,2H72.577c-1.104,0-2-0.896-2-2v-3
			C70.577,62.945,71.474,62.049,72.577,62.049z"/>
	</g>
</g>
<g>
</g>
<g>
</g>
<g>
</g>
<g>
</g>
<g>
</g>
<g>
</g>
<g>
</g>
<g>
</g>
<g>
</g>
<g>
</g>
<g>
</g>
<g>
</g>
<g>
</g>
<g>
</g>
<g>
</g>
</svg>
