<?xml version="1.0" encoding="iso-8859-1"?>
<!-- Generator: Adobe Illustrator 16.0.0, SVG Export Plug-In . SVG Version: 6.00 Build 0)  -->
<!DOCTYPE svg PUBLIC "-//W3C//DTD SVG 1.1//EN" "http://www.w3.org/Graphics/SVG/1.1/DTD/svg11.dtd">
<svg version="1.1" id="Capa_1" xmlns="http://www.w3.org/2000/svg" xmlns:xlink="http://www.w3.org/1999/xlink" x="0px" y="0px"
	 width="95.098px" height="95.098px" viewBox="0 0 95.098 95.098" style="enable-background:new 0 0 95.098 95.098;"
	 xml:space="preserve">
<g>
	<path d="M92.961,0H2.137C0.957,0,0,0.957,0,2.137v90.824c0,1.18,0.957,2.137,2.137,2.137h90.824c1.18,0,2.137-0.957,2.137-2.137
		V2.137C95.098,0.957,94.141,0,92.961,0z M82.917,48.9L51.99,66.758c-0.241,0.139-0.51,0.208-0.779,0.208s-0.538-0.069-0.779-0.208
		c-0.482-0.279-0.779-0.793-0.779-1.352v-7.938c-0.444-0.192-3.909-1.642-9.675-1.642c-7.706,0-15.754,2.472-23.923,7.348
		c-0.035,0.02-0.619,0.352-0.889,0.512l-1.413,0.834c-0.631,0.375-1.437,0.256-1.935-0.281c-0.499-0.537-0.555-1.35-0.136-1.95
		l0.943-1.353c15.152-20.727,36.812-23.74,37.028-23.767v-0.001V29.69c0-0.558,0.297-1.071,0.778-1.35s1.077-0.279,1.558,0
		l30.928,17.859c0.482,0.278,0.779,0.793,0.779,1.35C83.695,48.105,83.4,48.621,82.917,48.9z"/>
</g>
<g>
</g>
<g>
</g>
<g>
</g>
<g>
</g>
<g>
</g>
<g>
</g>
<g>
</g>
<g>
</g>
<g>
</g>
<g>
</g>
<g>
</g>
<g>
</g>
<g>
</g>
<g>
</g>
<g>
</g>
</svg>
