<?xml version="1.0" encoding="iso-8859-1"?>
<!-- Generator: Adobe Illustrator 16.0.0, SVG Export Plug-In . SVG Version: 6.00 Build 0)  -->
<!DOCTYPE svg PUBLIC "-//W3C//DTD SVG 1.1//EN" "http://www.w3.org/Graphics/SVG/1.1/DTD/svg11.dtd">
<svg version="1.1" id="Capa_1" xmlns="http://www.w3.org/2000/svg" xmlns:xlink="http://www.w3.org/1999/xlink" x="0px" y="0px"
	 width="96.522px" height="96.522px" viewBox="0 0 96.522 96.522" style="enable-background:new 0 0 96.522 96.522;"
	 xml:space="preserve">
<g>
	<path d="M74.692,65.181l-9.044-7.321c1.319-5.557,1.988-11.532,1.988-17.761c0-19.963-14.052-38.367-18.719-39.988
		c-0.426-0.147-0.887-0.147-1.313,0c-4.667,1.621-18.719,20.025-18.719,39.988c0,6.229,0.669,12.205,1.99,17.761l-9.045,7.321
		c-0.541,0.438-0.815,1.127-0.724,1.817l3.69,27.787c0.104,0.787,0.663,1.438,1.425,1.658c0.765,0.22,1.582-0.029,2.092-0.638
		l14.413-17.225c3.543,2.163,7.527,2.163,11.07,0l14.411,17.225c0.387,0.461,0.951,0.717,1.534,0.717
		c0.186,0,0.373-0.026,0.558-0.079c0.762-0.221,1.32-0.871,1.425-1.658l3.69-27.787C75.507,66.309,75.233,65.619,74.692,65.181z
		 M48.262,39.619c-4.418,0-8-3.582-8-8s3.582-8,8-8s8,3.582,8,8S52.68,39.619,48.262,39.619z"/>
</g>
<g>
</g>
<g>
</g>
<g>
</g>
<g>
</g>
<g>
</g>
<g>
</g>
<g>
</g>
<g>
</g>
<g>
</g>
<g>
</g>
<g>
</g>
<g>
</g>
<g>
</g>
<g>
</g>
<g>
</g>
</svg>
