<?xml version="1.0" encoding="iso-8859-1"?>
<!-- Generator: Adobe Illustrator 16.0.0, SVG Export Plug-In . SVG Version: 6.00 Build 0)  -->
<!DOCTYPE svg PUBLIC "-//W3C//DTD SVG 1.1//EN" "http://www.w3.org/Graphics/SVG/1.1/DTD/svg11.dtd">
<svg version="1.1" id="Capa_1" xmlns="http://www.w3.org/2000/svg" xmlns:xlink="http://www.w3.org/1999/xlink" x="0px" y="0px"
	 width="95.098px" height="95.098px" viewBox="0 0 95.098 95.098" style="enable-background:new 0 0 95.098 95.098;"
	 xml:space="preserve">
<g>
	<path d="M92.961,0H2.137C0.957,0,0,0.957,0,2.137v90.824c0,1.18,0.957,2.137,2.137,2.137h90.824c1.18,0,2.137-0.957,2.137-2.137
		V2.137C95.098,0.957,94.141,0,92.961,0z M22.464,81.389c-4.836,0-8.757-3.92-8.757-8.756s3.921-8.757,8.757-8.757
		c4.837,0,8.758,3.921,8.758,8.757C31.222,77.468,27.301,81.389,22.464,81.389z M55.992,81.162c-0.133,0.132-0.31,0.207-0.494,0.207
		H42.881c-0.376,0-0.683-0.301-0.692-0.678c-0.356-15.221-12.56-27.423-27.78-27.779c-0.376-0.01-0.677-0.316-0.677-0.693V39.604
		c0-0.186,0.074-0.364,0.207-0.494c0.133-0.131,0.319-0.204,0.497-0.199c11.055,0.182,21.463,4.602,29.308,12.447
		c7.846,7.844,12.267,18.252,12.448,29.308C56.193,80.851,56.122,81.029,55.992,81.162z M81.191,81.164
		c-0.131,0.131-0.309,0.205-0.494,0.205H68.084c-0.379,0-0.688-0.305-0.693-0.684c-0.361-28.85-24.126-52.614-52.976-52.975
		c-0.379-0.004-0.684-0.313-0.684-0.692V14.403c0-0.185,0.073-0.362,0.206-0.493c0.13-0.129,0.286-0.213,0.493-0.2
		c17.776,0.182,34.512,7.228,47.122,19.838c12.612,12.611,19.657,29.345,19.839,47.121C81.395,80.854,81.32,81.031,81.191,81.164z"
		/>
</g>
<g>
</g>
<g>
</g>
<g>
</g>
<g>
</g>
<g>
</g>
<g>
</g>
<g>
</g>
<g>
</g>
<g>
</g>
<g>
</g>
<g>
</g>
<g>
</g>
<g>
</g>
<g>
</g>
<g>
</g>
</svg>
