<?xml version="1.0" encoding="iso-8859-1"?>
<!-- Generator: Adobe Illustrator 16.0.0, SVG Export Plug-In . SVG Version: 6.00 Build 0)  -->
<!DOCTYPE svg PUBLIC "-//W3C//DTD SVG 1.1//EN" "http://www.w3.org/Graphics/SVG/1.1/DTD/svg11.dtd">
<svg version="1.1" id="Capa_1" xmlns="http://www.w3.org/2000/svg" xmlns:xlink="http://www.w3.org/1999/xlink" x="0px" y="0px"
	 width="90.215px" height="90.215px" viewBox="0 0 90.215 90.215" style="enable-background:new 0 0 90.215 90.215;"
	 xml:space="preserve">
<g>
	<g>
		<path d="M88.214,0H2C0.896,0,0,0.896,0,2v86.215c0,1.104,0.896,2,2,2h86.215c1.104,0,2-0.896,2-2V2
			C90.214,0.895,89.318,0,88.214,0z M78.607,76.607c0,1.104-0.896,2-2,2h-63c-1.104,0-2-0.896-2-2v-6.59
			c0-1.074,0.85-1.943,1.913-1.99h4.862c1.104,0,2-0.896,2-2v-12.34c0-1.104-0.896-2-2-2h-4.775v-0.012c-1.104,0-2-0.896-2-2v-9.139
			c0-1.085,0.865-1.963,1.941-1.994h4.834c1.104,0,2-0.896,2-2V24.205c0-1.104-0.896-2-2-2h-4.775v-0.009c-1.104,0-2-0.896-2-2
			v-6.589c0-1.104,0.896-2,2-2h63c1.104,0,2,0.896,2,2V76.607z"/>
		<path d="M54.607,24.691c-11.12,0-20.167,9.047-20.167,20.166c0,11.12,9.047,20.167,20.167,20.167
			c11.119,0,20.166-9.047,20.166-20.167C74.773,33.738,65.727,24.691,54.607,24.691z M54.607,58.912
			c-7.75,0-14.056-6.305-14.056-14.055c0-7.75,6.305-14.055,14.056-14.055c7.75,0,14.055,6.305,14.055,14.055
			C68.662,52.607,62.357,58.912,54.607,58.912z"/>
		<path d="M58.277,45.674c-0.104,0.3-0.354,0.527-0.662,0.602c-0.309,0.076-0.635-0.012-0.865-0.229l-3.439-3.269
			c-0.229-0.22-0.332-0.54-0.273-0.854c0.061-0.312,0.273-0.573,0.566-0.692l5.308-2.148c-2.884-2.153-6.982-1.862-9.522,0.811
			c-2.742,2.885-2.625,7.443,0.258,10.184c2.885,2.74,7.442,2.625,10.185-0.26c2.541-2.674,2.623-6.782,0.325-9.552L58.277,45.674z"
			/>
	</g>
</g>
<g>
</g>
<g>
</g>
<g>
</g>
<g>
</g>
<g>
</g>
<g>
</g>
<g>
</g>
<g>
</g>
<g>
</g>
<g>
</g>
<g>
</g>
<g>
</g>
<g>
</g>
<g>
</g>
<g>
</g>
</svg>
