<?xml version="1.0" encoding="iso-8859-1"?>
<!-- Generator: Adobe Illustrator 16.0.0, SVG Export Plug-In . SVG Version: 6.00 Build 0)  -->
<!DOCTYPE svg PUBLIC "-//W3C//DTD SVG 1.1//EN" "http://www.w3.org/Graphics/SVG/1.1/DTD/svg11.dtd">
<svg version="1.1" id="Capa_1" xmlns="http://www.w3.org/2000/svg" xmlns:xlink="http://www.w3.org/1999/xlink" x="0px" y="0px"
	 width="92.829px" height="92.83px" viewBox="0 0 92.829 92.83" style="enable-background:new 0 0 92.829 92.83;"
	 xml:space="preserve">
<g>
	<path d="M63.333,46.415l28.66-29.858c0.771-0.805,1.032-1.971,0.68-3.026c-0.354-1.058-1.265-1.831-2.364-2.007l-9.896-1.598
		c-0.761-0.125-1.534,0.05-2.167,0.483L48.357,30.812l-4.291-4.471c-0.061-4.717-1.917-9.145-5.26-12.488L30.73,5.776
		c-3.4-3.401-7.92-5.273-12.729-5.273S8.672,2.377,5.273,5.775C1.873,9.174,0,13.697,0,18.504c0,4.808,1.873,9.327,5.272,12.727
		l8.076,8.077c3.4,3.399,7.92,5.272,12.729,5.272c2.253,0,4.438-0.428,6.479-1.214l1.546,3.048l-1.543,3.047
		c-2.042-0.786-4.226-1.214-6.479-1.214c-4.809,0-9.329,1.873-12.729,5.271l-8.076,8.078c-3.4,3.398-5.272,7.918-5.272,12.727
		s1.873,9.33,5.272,12.729c3.399,3.399,7.919,5.272,12.727,5.273c0.001,0,0.001,0,0.001,0c4.808,0,9.328-1.872,12.729-5.273
		l8.077-8.076c3.343-3.345,5.199-7.771,5.26-12.488l4.291-4.471L78.247,82.42c0.501,0.343,1.09,0.522,1.688,0.522
		c0.16,0,0.319-0.014,0.479-0.039l9.896-1.598c1.1-0.177,2.011-0.951,2.363-2.008c0.354-1.056,0.092-2.222-0.68-3.025L63.333,46.415
		z M31.264,31.768c-1.385,1.384-3.227,2.147-5.185,2.147c-1.959,0-3.801-0.764-5.186-2.147l-8.076-8.077
		c-1.386-1.385-2.148-3.227-2.148-5.187c0-1.958,0.763-3.799,2.148-5.185c1.385-1.386,3.226-2.148,5.185-2.148
		c1.958,0,3.8,0.763,5.186,2.148l8.076,8.077c1.386,1.386,2.148,3.227,2.148,5.187C33.413,28.541,32.65,30.381,31.264,31.768z
		 M31.264,71.433l-8.076,8.078c-1.385,1.385-3.228,2.147-5.186,2.147c-1.959,0-3.8-0.763-5.186-2.147
		c-1.385-1.387-2.147-3.228-2.147-5.186c0-1.96,0.763-3.803,2.148-5.188l8.076-8.076c1.385-1.385,3.227-2.147,5.186-2.147
		c1.958,0,3.8,0.765,5.186,2.147c1.385,1.386,2.147,3.227,2.147,5.185C33.413,68.207,32.65,70.047,31.264,71.433z M46.415,47.54
		c-1.864,0-3.375-1.511-3.375-3.375s1.511-3.375,3.375-3.375c1.864,0,3.375,1.511,3.375,3.375S48.279,47.54,46.415,47.54z
		 M80.637,76.798l-28.07-19.166l6.613-6.891l24.534,25.561L80.637,76.798z"/>
</g>
<g>
</g>
<g>
</g>
<g>
</g>
<g>
</g>
<g>
</g>
<g>
</g>
<g>
</g>
<g>
</g>
<g>
</g>
<g>
</g>
<g>
</g>
<g>
</g>
<g>
</g>
<g>
</g>
<g>
</g>
</svg>
