<?xml version="1.0" encoding="iso-8859-1"?>
<!-- Generator: Adobe Illustrator 16.0.0, SVG Export Plug-In . SVG Version: 6.00 Build 0)  -->
<!DOCTYPE svg PUBLIC "-//W3C//DTD SVG 1.1//EN" "http://www.w3.org/Graphics/SVG/1.1/DTD/svg11.dtd">
<svg version="1.1" id="Capa_1" xmlns="http://www.w3.org/2000/svg" xmlns:xlink="http://www.w3.org/1999/xlink" x="0px" y="0px"
	 width="97.429px" height="97.429px" viewBox="0 0 97.429 97.429" style="enable-background:new 0 0 97.429 97.429;"
	 xml:space="preserve">
<g>
	<path d="M93.266,27.636c-0.118-1.174-1.107-2.068-2.288-2.068c-15.959,0-40.379-24.66-40.624-24.908
		C49.922,0.219,49.319,0,48.715,0c-0.604,0-1.208,0.221-1.641,0.66C46.83,0.907,22.424,25.568,6.45,25.568
		c-1.181,0-2.17,0.895-2.288,2.068C2.785,41.339,18.812,71.318,33,87.001c6.258,6.92,11.546,10.428,15.715,10.428
		s9.457-3.508,15.715-10.428C78.616,71.318,94.643,41.339,93.266,27.636z M48.714,87.146c0,0.547-0.297,1.049-0.774,1.313
		c-0.226,0.124-0.476,0.187-0.726,0.187c-0.277,0-0.554-0.076-0.797-0.229c-1.467-0.92-3.956-2.836-7.485-6.739
		c-7.044-7.787-14.547-19.296-20.068-30.784c-0.224-0.464-0.192-1.012,0.082-1.447c0.274-0.437,0.754-0.701,1.27-0.701h26.998
		c0.828,0,1.5,0.672,1.5,1.5V87.146z M84.755,34.324c-0.813,3.702-2.467,8.383-4.779,13.534c-0.241,0.539-0.777,0.886-1.368,0.886
		H50.214c-0.828,0-1.5-0.672-1.5-1.5V13.609c0-0.591,0.347-1.126,0.885-1.368c0.537-0.242,1.167-0.146,1.61,0.246
		c8.35,7.403,20.762,16.895,32.474,20.067C84.456,32.764,84.927,33.542,84.755,34.324z"/>
</g>
<g>
</g>
<g>
</g>
<g>
</g>
<g>
</g>
<g>
</g>
<g>
</g>
<g>
</g>
<g>
</g>
<g>
</g>
<g>
</g>
<g>
</g>
<g>
</g>
<g>
</g>
<g>
</g>
<g>
</g>
</svg>
