<?xml version="1.0" encoding="iso-8859-1"?>
<!-- Generator: Adobe Illustrator 16.0.0, SVG Export Plug-In . SVG Version: 6.00 Build 0)  -->
<!DOCTYPE svg PUBLIC "-//W3C//DTD SVG 1.1//EN" "http://www.w3.org/Graphics/SVG/1.1/DTD/svg11.dtd">
<svg version="1.1" id="Capa_1" xmlns="http://www.w3.org/2000/svg" xmlns:xlink="http://www.w3.org/1999/xlink" x="0px" y="0px"
	 width="97.4px" height="97.4px" viewBox="0 0 97.4 97.4" style="enable-background:new 0 0 97.4 97.4;" xml:space="preserve">
<g>
	<path d="M81.46,26.797h-6.857v-8.246C74.601,8.322,66.279,0,56.05,0c-3.144,0-6.269,0.821-9.037,2.374
		C44.221,0.799,41.171,0,37.95,0C27.721,0,19.4,8.322,19.4,18.551v8.246h-3.46c-1.104,0-2,0.896-2,2V95.4c0,1.104,0.896,2,2,2
		h10.018c1.104,0,2-0.896,2-2V28.797c0-0.681-0.34-1.282-0.859-1.643V18.55c0-5.983,4.868-10.852,10.851-10.852
		c0.961,0,1.912,0.124,2.826,0.37c-2.143,3.104-3.276,6.729-3.276,10.481v8.246h-5.407c-1.104,0-2,0.896-2,2V95.4
		c0,1.104,0.896,2,2,2H81.46c1.104,0,2-0.896,2-2V28.797C83.46,27.692,82.563,26.797,81.46,26.797z M66.902,26.797H45.2v-8.246
		c0-5.983,4.868-10.852,10.852-10.852s10.852,4.868,10.852,10.852L66.902,26.797L66.902,26.797z"/>
</g>
<g>
</g>
<g>
</g>
<g>
</g>
<g>
</g>
<g>
</g>
<g>
</g>
<g>
</g>
<g>
</g>
<g>
</g>
<g>
</g>
<g>
</g>
<g>
</g>
<g>
</g>
<g>
</g>
<g>
</g>
</svg>
