<?xml version="1.0" encoding="iso-8859-1"?>
<!-- Generator: Adobe Illustrator 16.0.0, SVG Export Plug-In . SVG Version: 6.00 Build 0)  -->
<!DOCTYPE svg PUBLIC "-//W3C//DTD SVG 1.1//EN" "http://www.w3.org/Graphics/SVG/1.1/DTD/svg11.dtd">
<svg version="1.1" id="Capa_1" xmlns="http://www.w3.org/2000/svg" xmlns:xlink="http://www.w3.org/1999/xlink" x="0px" y="0px"
	 width="98.243px" height="98.243px" viewBox="0 0 98.243 98.243" style="enable-background:new 0 0 98.243 98.243;"
	 xml:space="preserve">
<g>
	<g>
		<path d="M97.889,12.732c-0.373-0.542-0.988-0.866-1.646-0.866H23.207l-1.413-5.369c-0.197-0.923-1.012-1.583-1.956-1.583H2
			c-1.104,0-2,0.896-2,2v3.492c0,1.104,0.896,2,2,2h10.911l14.07,62.582c0.205,0.912,1.016,1.561,1.951,1.561h47.61
			c2.41,0,4.371-1.96,4.371-4.371c0-2.41-1.961-4.371-4.371-4.371H35.484l-1.171-7.109h44.828c0.83,0,1.572-0.512,1.869-1.287
			l17.102-44.83C98.346,13.965,98.264,13.274,97.889,12.732z"/>
		<path d="M38.899,78.952c-3.963,0-7.188,3.226-7.188,7.188c0,3.965,3.225,7.188,7.188,7.188c3.964,0,7.189-3.226,7.189-7.188
			S42.863,78.952,38.899,78.952z"/>
		<path d="M72.691,78.952c-3.963,0-7.188,3.226-7.188,7.188c0,3.965,3.225,7.188,7.188,7.188c3.964,0,7.188-3.226,7.188-7.188
			S76.656,78.952,72.691,78.952z"/>
	</g>
</g>
<g>
</g>
<g>
</g>
<g>
</g>
<g>
</g>
<g>
</g>
<g>
</g>
<g>
</g>
<g>
</g>
<g>
</g>
<g>
</g>
<g>
</g>
<g>
</g>
<g>
</g>
<g>
</g>
<g>
</g>
</svg>
