<?xml version="1.0" encoding="iso-8859-1"?>
<!-- Generator: Adobe Illustrator 16.0.0, SVG Export Plug-In . SVG Version: 6.00 Build 0)  -->
<!DOCTYPE svg PUBLIC "-//W3C//DTD SVG 1.1//EN" "http://www.w3.org/Graphics/SVG/1.1/DTD/svg11.dtd">
<svg version="1.1" id="Capa_1" xmlns="http://www.w3.org/2000/svg" xmlns:xlink="http://www.w3.org/1999/xlink" x="0px" y="0px"
	 width="98px" height="98px" viewBox="0 0 98 98" style="enable-background:new 0 0 98 98;" xml:space="preserve">
<g>
	<g>
		<path d="M1.5,24.25H57c0.829,0,1.5-0.672,1.5-1.5V6.25c0-0.828-0.671-1.5-1.5-1.5H1.5C0.671,4.75,0,5.422,0,6.25v16.5
			C0,23.578,0.671,24.25,1.5,24.25z"/>
		<path d="M96.5,4.75H68.167c-0.829,0-1.5,0.672-1.5,1.5v16.5c0,0.828,0.671,1.5,1.5,1.5H96.5c0.829,0,1.5-0.672,1.5-1.5V6.25
			C98,5.422,97.329,4.75,96.5,4.75z"/>
		<path d="M96.5,31.75H41c-0.829,0-1.5,0.672-1.5,1.5v13.5c0,0.828,0.671,1.5,1.5,1.5h55.5c0.829,0,1.5-0.672,1.5-1.5v-13.5
			C98,32.422,97.329,31.75,96.5,31.75z"/>
		<path d="M1.5,48.25h28.333c0.829,0,1.5-0.672,1.5-1.5v-13.5c0-0.828-0.671-1.5-1.5-1.5H1.5c-0.829,0-1.5,0.672-1.5,1.5v13.5
			C0,47.578,0.671,48.25,1.5,48.25z"/>
		<path d="M96.5,58.75H71c-0.829,0-1.5,0.672-1.5,1.5v10.5c0,0.828,0.671,1.5,1.5,1.5h25.5c0.829,0,1.5-0.672,1.5-1.5v-10.5
			C98,59.422,97.329,58.75,96.5,58.75z"/>
		<path d="M1.5,72.25h58.333c0.829,0,1.5-0.672,1.5-1.5v-10.5c0-0.828-0.671-1.5-1.5-1.5H1.5c-0.829,0-1.5,0.672-1.5,1.5v10.5
			C0,71.578,0.671,72.25,1.5,72.25z"/>
		<path d="M53.25,82.75H36.161c-0.829,0-1.5,0.672-1.5,1.5v7.5c0,0.828,0.671,1.5,1.5,1.5H53.25c0.829,0,1.5-0.672,1.5-1.5v-7.5
			C54.75,83.422,54.079,82.75,53.25,82.75z"/>
		<path d="M78.167,82.75H59.911c-0.829,0-1.5,0.672-1.5,1.5v7.5c0,0.828,0.671,1.5,1.5,1.5h18.256c0.829,0,1.5-0.672,1.5-1.5v-7.5
			C79.667,83.422,78.996,82.75,78.167,82.75z"/>
		<path d="M96.5,82.75H84.661c-0.829,0-1.5,0.672-1.5,1.5v7.5c0,0.828,0.671,1.5,1.5,1.5H96.5c0.829,0,1.5-0.672,1.5-1.5v-7.5
			C98,83.422,97.329,82.75,96.5,82.75z"/>
		<path d="M28.798,82.75H1.5c-0.829,0-1.5,0.672-1.5,1.5v7.5c0,0.828,0.671,1.5,1.5,1.5h27.298c0.829,0,1.5-0.672,1.5-1.5v-7.5
			C30.298,83.422,29.626,82.75,28.798,82.75z"/>
	</g>
</g>
<g>
</g>
<g>
</g>
<g>
</g>
<g>
</g>
<g>
</g>
<g>
</g>
<g>
</g>
<g>
</g>
<g>
</g>
<g>
</g>
<g>
</g>
<g>
</g>
<g>
</g>
<g>
</g>
<g>
</g>
</svg>
