<?xml version="1.0" encoding="iso-8859-1"?>
<!-- Generator: Adobe Illustrator 16.0.0, SVG Export Plug-In . SVG Version: 6.00 Build 0)  -->
<!DOCTYPE svg PUBLIC "-//W3C//DTD SVG 1.1//EN" "http://www.w3.org/Graphics/SVG/1.1/DTD/svg11.dtd">
<svg version="1.1" id="Capa_1" xmlns="http://www.w3.org/2000/svg" xmlns:xlink="http://www.w3.org/1999/xlink" x="0px" y="0px"
	 width="96.25px" height="96.25px" viewBox="0 0 96.25 96.25" style="enable-background:new 0 0 96.25 96.25;" xml:space="preserve"
	>
<g>
	<g>
		<path d="M94.25,22.455H61.096c-1.104,0-2,0.896-2,2v8.381c0,1.654-1.347,3-3,3H40.155c-1.654,0-3-1.346-3-3v-8.381
			c0-1.104-0.896-2-2-2H2c-1.104,0-2,0.896-2,2v65.8c0,1.104,0.896,2,2,2h92.25c1.104,0,2-0.896,2-2v-65.8
			C96.25,23.351,95.354,22.455,94.25,22.455z M10.587,81.668v-39h75.075v39H10.587z"/>
		<path d="M41.742,32.794h12.766c1.104,0,2-0.896,2-2V14.07c0-0.659-0.322-1.239-0.814-1.604c0.025-0.128,0.039-0.261,0.039-0.396
			V5.995c0-1.104-0.896-2-2-2H42.518c-1.104,0-2,0.896-2,2v6.075c0,0.136,0.014,0.268,0.04,0.396
			c-0.492,0.364-0.815,0.944-0.815,1.604v16.724C39.742,31.898,40.638,32.794,41.742,32.794z M42.518,5.995h11.214v6.075H42.518
			V5.995z"/>
		<rect x="44.518" y="7.995" width="7.214" height="2.075"/>
		<path d="M35.594,62.703c2.904,0,5.267-3.56,5.267-7.933c0-4.375-2.363-7.935-5.267-7.935c-2.904,0-5.267,3.56-5.267,7.935
			C30.327,59.144,32.689,62.703,35.594,62.703z"/>
		<path d="M60.656,62.703c2.904,0,5.267-3.56,5.267-7.933c0-4.375-2.362-7.935-5.267-7.935s-5.268,3.56-5.268,7.935
			C55.391,59.144,57.752,62.703,60.656,62.703z"/>
		<path d="M67.932,68.414c-5.85,1.995-12.699,3.049-19.807,3.049c-7.108,0-13.957-1.054-19.807-3.049
			c-0.931-0.315-1.956,0.09-2.415,0.96c-0.459,0.871-0.217,1.945,0.571,2.535c5.013,3.75,12.904,5.9,21.65,5.9
			s16.638-2.15,21.649-5.9c0.789-0.59,1.031-1.664,0.572-2.535C69.887,68.502,68.861,68.099,67.932,68.414z"/>
	</g>
</g>
<g>
</g>
<g>
</g>
<g>
</g>
<g>
</g>
<g>
</g>
<g>
</g>
<g>
</g>
<g>
</g>
<g>
</g>
<g>
</g>
<g>
</g>
<g>
</g>
<g>
</g>
<g>
</g>
<g>
</g>
</svg>
