<?xml version="1.0" encoding="iso-8859-1"?>
<!-- Generator: Adobe Illustrator 16.0.0, SVG Export Plug-In . SVG Version: 6.00 Build 0)  -->
<!DOCTYPE svg PUBLIC "-//W3C//DTD SVG 1.1//EN" "http://www.w3.org/Graphics/SVG/1.1/DTD/svg11.dtd">
<svg version="1.1" id="Capa_1" xmlns="http://www.w3.org/2000/svg" xmlns:xlink="http://www.w3.org/1999/xlink" x="0px" y="0px"
	 width="99.016px" height="99.016px" viewBox="0 0 99.016 99.016" style="enable-background:new 0 0 99.016 99.016;"
	 xml:space="preserve">
<g>
	<g>
		<path d="M92.001,23.813C88.097,9.199,76.994-0.802,65.441,0.051c-1.11,0.083-2.218,0.27-3.29,0.557
			c-1.796,0.48-3.56,1.282-5.235,2.38l-0.097,0.063c-0.034,0.022-0.068,0.046-0.103,0.07L7.919,39.386
			c-0.115,0.086-0.221,0.184-0.314,0.292C4.531,43.208,5.162,51.054,7.548,56.6c1.021,2.374,3.945,7.896,9.041,7.896
			c0.219,0,0.439-0.01,0.637-0.029l6.811-0.567c3.416,8.298,7.426,19.926,7.137,28.196c-0.068,1.983,0.462,3.575,1.576,4.727
			c1.406,1.456,3.656,2.194,6.688,2.194c4.468,0,8.816-1.61,10.478-2.753c0.804-0.553,1.091-1.605,0.681-2.49
			c-0.354-0.759-0.955-1.952-1.546-3.118C45.919,84.464,40.09,72.94,38.419,62.7c0.374-0.026,37.436-2.721,39.48-2.985
			c4.116-0.534,7.964-3.184,10.831-7.46C93.595,44.996,94.819,34.363,92.001,23.813z M73.552,50.447
			c-7.513,0.568-15.063-6.739-17.787-16.922c-1.437-5.375-1.311-10.827,0.353-15.354c1.663-4.527,4.661-7.576,8.443-8.586
			c0.635-0.17,1.292-0.282,1.948-0.331c0.268-0.02,0.534-0.029,0.8-0.029c7.212,0,14.321,7.021,16.906,16.694
			c1.485,5.554,1.324,11.173-0.452,15.824c-1.69,4.425-4.645,7.403-8.314,8.384C74.828,50.293,74.19,50.4,73.552,50.447z"/>
		<path d="M68.129,19.032c-2.041,0.414-3.709,2.109-4.577,4.65c-0.754,2.209-0.874,4.881-0.338,7.526
			c1.089,5.353,4.659,9.389,8.306,9.389c0.325,0,0.652-0.033,0.973-0.098c1.894-0.385,3.448-1.863,4.378-4.164
			c0.915-2.267,1.109-5.188,0.534-8.012C76.218,22.495,72.053,18.24,68.129,19.032z"/>
	</g>
</g>
<g>
</g>
<g>
</g>
<g>
</g>
<g>
</g>
<g>
</g>
<g>
</g>
<g>
</g>
<g>
</g>
<g>
</g>
<g>
</g>
<g>
</g>
<g>
</g>
<g>
</g>
<g>
</g>
<g>
</g>
</svg>
