<?xml version="1.0" encoding="iso-8859-1"?>
<!-- Generator: Adobe Illustrator 16.0.0, SVG Export Plug-In . SVG Version: 6.00 Build 0)  -->
<!DOCTYPE svg PUBLIC "-//W3C//DTD SVG 1.1//EN" "http://www.w3.org/Graphics/SVG/1.1/DTD/svg11.dtd">
<svg version="1.1" id="Capa_1" xmlns="http://www.w3.org/2000/svg" xmlns:xlink="http://www.w3.org/1999/xlink" x="0px" y="0px"
	 width="97.778px" height="97.778px" viewBox="0 0 97.778 97.778" style="enable-background:new 0 0 97.778 97.778;"
	 xml:space="preserve">
<g>
	<g>
		<path d="M48.889,17.221C21.932,17.221,0,39.152,0,66.109c0,3.652,0.418,7.334,1.244,10.94c0.47,2.052,2.296,3.508,4.401,3.508
			h86.488c2.104,0,3.932-1.456,4.401-3.508c0.825-3.606,1.244-7.288,1.244-10.94C97.778,39.152,75.846,17.221,48.889,17.221z
			 M48.889,24.526c2.832,0,5.134,2.303,5.134,5.133c0,1.371-0.534,2.66-1.504,3.63c-0.969,0.969-2.258,1.503-3.628,1.503
			c-2.83,0-5.134-2.303-5.135-5.133C43.755,26.828,46.058,24.526,48.889,24.526z M10.589,73.092c-2.83,0-5.133-2.303-5.133-5.133
			s2.303-5.133,5.133-5.133c2.831,0,5.134,2.303,5.134,5.133S13.42,73.092,10.589,73.092z M25.437,44.506
			c-0.969,0.97-2.258,1.504-3.629,1.504s-2.661-0.534-3.63-1.504c-0.969-0.969-1.503-2.258-1.503-3.629
			c0-1.371,0.534-2.66,1.504-3.63c0.97-0.97,2.259-1.504,3.63-1.504s2.66,0.534,3.629,1.503c0.97,0.97,1.504,2.259,1.504,3.63
			C26.942,42.247,26.407,43.537,25.437,44.506z M54.061,74.302c-5.846,2.799-12.881,0.317-15.68-5.53
			c-2.798-5.848-4.25-36.12-4.25-36.12s22.664,20.121,25.461,25.967C62.391,64.47,59.909,71.504,54.061,74.302z M79.602,44.506
			c-0.971,0.97-2.26,1.504-3.631,1.504s-2.66-0.534-3.629-1.504c-0.97-0.969-1.502-2.258-1.502-3.629
			c0-1.371,0.533-2.661,1.502-3.63c0.969-0.969,2.258-1.503,3.629-1.503s2.66,0.534,3.631,1.504c0.97,0.97,1.502,2.259,1.504,3.63
			C81.104,42.248,80.57,43.537,79.602,44.506z M87.189,73.092c-2.831,0-5.135-2.303-5.135-5.133s2.304-5.133,5.135-5.133
			c2.83,0,5.133,2.303,5.133,5.133S90.02,73.092,87.189,73.092z"/>
		<path d="M47.083,59.72c-2.193,1.05-3.124,3.688-2.074,5.88c1.049,2.194,3.687,3.124,5.879,2.074
			c2.193-1.049,3.123-3.688,2.074-5.881C51.913,59.601,49.276,58.67,47.083,59.72z"/>
	</g>
</g>
<g>
</g>
<g>
</g>
<g>
</g>
<g>
</g>
<g>
</g>
<g>
</g>
<g>
</g>
<g>
</g>
<g>
</g>
<g>
</g>
<g>
</g>
<g>
</g>
<g>
</g>
<g>
</g>
<g>
</g>
</svg>
