<?xml version="1.0" encoding="iso-8859-1"?>
<!-- Generator: Adobe Illustrator 16.0.0, SVG Export Plug-In . SVG Version: 6.00 Build 0)  -->
<!DOCTYPE svg PUBLIC "-//W3C//DTD SVG 1.1//EN" "http://www.w3.org/Graphics/SVG/1.1/DTD/svg11.dtd">
<svg version="1.1" id="Capa_1" xmlns="http://www.w3.org/2000/svg" xmlns:xlink="http://www.w3.org/1999/xlink" x="0px" y="0px"
	 width="94.723px" height="94.723px" viewBox="0 0 94.723 94.723" style="enable-background:new 0 0 94.723 94.723;"
	 xml:space="preserve">
<g>
	<path d="M90.757,0H3.964C2.62,0,1.526,1.093,1.526,2.437v66.122c0,1.344,1.094,2.438,2.438,2.438h47.99V92.29
		c0,0.937,0.547,1.8,1.391,2.202c0.316,0.15,0.676,0.23,1.037,0.23c0.569,0,1.121-0.193,1.551-0.543l28.433-23.184h6.394
		c1.344,0,2.438-1.094,2.438-2.438V2.437C93.194,1.093,92.101,0,90.757,0z M67.429,45.192c0.351,0.35,0.543,0.814,0.543,1.308
		c0,0.495-0.192,0.959-0.543,1.309l-7.862,7.863c-0.351,0.35-0.813,0.542-1.308,0.542s-0.959-0.192-1.309-0.542l-9.59-9.59
		l-9.59,9.589c-0.699,0.698-1.917,0.698-2.616,0l-7.863-7.863c-0.35-0.35-0.542-0.814-0.542-1.309c0-0.494,0.192-0.958,0.542-1.308
		l9.589-9.589l-9.589-9.59c-0.35-0.35-0.542-0.814-0.542-1.308c0-0.494,0.192-0.958,0.542-1.309l7.863-7.862
		c0.699-0.699,1.917-0.699,2.616,0l9.59,9.589l9.59-9.588c0.699-0.699,1.917-0.699,2.616,0l7.862,7.862
		c0.351,0.35,0.543,0.814,0.543,1.309c0,0.495-0.192,0.958-0.543,1.308l-9.59,9.59L67.429,45.192z"/>
</g>
<g>
</g>
<g>
</g>
<g>
</g>
<g>
</g>
<g>
</g>
<g>
</g>
<g>
</g>
<g>
</g>
<g>
</g>
<g>
</g>
<g>
</g>
<g>
</g>
<g>
</g>
<g>
</g>
<g>
</g>
</svg>
