<?xml version="1.0" encoding="iso-8859-1"?>
<!-- Generator: Adobe Illustrator 16.0.0, SVG Export Plug-In . SVG Version: 6.00 Build 0)  -->
<!DOCTYPE svg PUBLIC "-//W3C//DTD SVG 1.1//EN" "http://www.w3.org/Graphics/SVG/1.1/DTD/svg11.dtd">
<svg version="1.1" id="Capa_1" xmlns="http://www.w3.org/2000/svg" xmlns:xlink="http://www.w3.org/1999/xlink" x="0px" y="0px"
	 width="97.092px" height="97.092px" viewBox="0 0 97.092 97.092" style="enable-background:new 0 0 97.092 97.092;"
	 xml:space="preserve">
<g>
	<path d="M96.994,37.478c-0.236-0.725-0.862-1.253-1.617-1.361l-31.141-4.494L50.34,3.396c-0.336-0.684-1.032-1.116-1.794-1.116
		c-0.762,0-1.458,0.433-1.794,1.116L32.855,31.623l-31.14,4.494c-0.754,0.108-1.381,0.637-1.617,1.361
		c-0.235,0.725-0.039,1.521,0.508,2.052l22.551,21.94l-5.348,31.003c-0.13,0.751,0.179,1.51,0.795,1.958
		c0.618,0.448,1.434,0.507,2.108,0.151l27.834-14.668L76.38,94.582c0.293,0.154,0.612,0.23,0.933,0.23
		c0.415,0,0.827-0.129,1.176-0.382c0.616-0.448,0.926-1.207,0.795-1.958L73.936,61.47l22.551-21.94
		C97.031,38.999,97.229,38.203,96.994,37.478z"/>
</g>
<g>
</g>
<g>
</g>
<g>
</g>
<g>
</g>
<g>
</g>
<g>
</g>
<g>
</g>
<g>
</g>
<g>
</g>
<g>
</g>
<g>
</g>
<g>
</g>
<g>
</g>
<g>
</g>
<g>
</g>
</svg>
