<?xml version="1.0" encoding="iso-8859-1"?>
<!-- Generator: Adobe Illustrator 16.0.0, SVG Export Plug-In . SVG Version: 6.00 Build 0)  -->
<!DOCTYPE svg PUBLIC "-//W3C//DTD SVG 1.1//EN" "http://www.w3.org/Graphics/SVG/1.1/DTD/svg11.dtd">
<svg version="1.1" id="Capa_1" xmlns="http://www.w3.org/2000/svg" xmlns:xlink="http://www.w3.org/1999/xlink" x="0px" y="0px"
	 width="94.475px" height="94.475px" viewBox="0 0 94.475 94.475" style="enable-background:new 0 0 94.475 94.475;"
	 xml:space="preserve">
<g>
	<g>
		<path d="M84.521,52.352h-41.13V9.638c0-1.029-0.439-2.013-1.208-2.701c-0.77-0.686-1.804-1.021-2.82-0.896
			C16.923,8.578,0,27.495,0,50.045c0,24.436,19.88,44.312,44.314,44.312c21.823,0,40.649-16.277,43.792-37.864
			c0.149-1.038-0.158-2.096-0.847-2.89C86.572,52.809,85.572,52.352,84.521,52.352z"/>
		<path d="M51.253,0.122c-0.558-0.038-1.097,0.158-1.499,0.536c-0.404,0.379-0.633,0.907-0.633,1.461v44.801l0,0l43.354-0.013
			c0.542,0,1.061-0.22,1.436-0.608c0.377-0.39,0.58-0.914,0.563-1.455C93.714,20.919,75.132,1.693,51.253,0.122z"/>
	</g>
</g>
<g>
</g>
<g>
</g>
<g>
</g>
<g>
</g>
<g>
</g>
<g>
</g>
<g>
</g>
<g>
</g>
<g>
</g>
<g>
</g>
<g>
</g>
<g>
</g>
<g>
</g>
<g>
</g>
<g>
</g>
</svg>
