<?xml version="1.0" encoding="iso-8859-1"?>
<!-- Generator: Adobe Illustrator 16.0.0, SVG Export Plug-In . SVG Version: 6.00 Build 0)  -->
<!DOCTYPE svg PUBLIC "-//W3C//DTD SVG 1.1//EN" "http://www.w3.org/Graphics/SVG/1.1/DTD/svg11.dtd">
<svg version="1.1" id="Capa_1" xmlns="http://www.w3.org/2000/svg" xmlns:xlink="http://www.w3.org/1999/xlink" x="0px" y="0px"
	 width="97.883px" height="97.883px" viewBox="0 0 97.883 97.883" style="enable-background:new 0 0 97.883 97.883;"
	 xml:space="preserve">
<g>
	<path d="M97.853,41.735c-0.104-0.585-0.462-1.095-0.978-1.39l-15.381-8.779l0.087-17.711c0.003-0.595-0.26-1.16-0.715-1.542
		s-1.056-0.542-1.643-0.436l-17.427,3.164L50.48,1.417c-0.76-0.914-2.317-0.914-3.077,0L36.086,15.042l-17.426-3.163
		c-0.586-0.105-1.187,0.054-1.643,0.436c-0.456,0.383-0.717,0.947-0.714,1.542l0.089,17.711L1.009,40.345
		c-0.517,0.295-0.875,0.805-0.979,1.39c-0.103,0.586,0.06,1.187,0.444,1.641l11.45,13.513L5.787,73.5
		c-0.206,0.558-0.153,1.179,0.144,1.692c0.297,0.515,0.808,0.871,1.394,0.973l17.457,2.989l5.975,16.672
		c0.201,0.561,0.64,1.002,1.199,1.204c0.558,0.204,1.178,0.148,1.693-0.15l15.293-8.933l15.294,8.933
		c0.311,0.181,0.658,0.271,1.01,0.271c0.229,0,0.462-0.04,0.684-0.12c0.559-0.203,0.998-0.646,1.199-1.205l5.977-16.672
		l17.455-2.988c0.586-0.102,1.097-0.457,1.396-0.973c0.298-0.515,0.35-1.136,0.144-1.692L85.96,56.889l11.449-13.513
		C97.793,42.921,97.956,42.321,97.853,41.735z M48.941,77.61c-14.996,0-27.195-12.2-27.195-27.195s12.2-27.195,27.195-27.195
		s27.195,12.2,27.195,27.195S63.938,77.61,48.941,77.61z"/>
</g>
<g>
</g>
<g>
</g>
<g>
</g>
<g>
</g>
<g>
</g>
<g>
</g>
<g>
</g>
<g>
</g>
<g>
</g>
<g>
</g>
<g>
</g>
<g>
</g>
<g>
</g>
<g>
</g>
<g>
</g>
</svg>
