<?xml version="1.0" encoding="iso-8859-1"?>
<!-- Generator: Adobe Illustrator 16.0.0, SVG Export Plug-In . SVG Version: 6.00 Build 0)  -->
<!DOCTYPE svg PUBLIC "-//W3C//DTD SVG 1.1//EN" "http://www.w3.org/Graphics/SVG/1.1/DTD/svg11.dtd">
<svg version="1.1" id="Capa_1" xmlns="http://www.w3.org/2000/svg" xmlns:xlink="http://www.w3.org/1999/xlink" x="0px" y="0px"
	 width="97.533px" height="97.533px" viewBox="0 0 97.533 97.533" style="enable-background:new 0 0 97.533 97.533;"
	 xml:space="preserve">
<g>
	<g>
		<path d="M83.396,0H14.138c-1.932,0-3.502,1.57-3.502,3.502v90.529c0,1.932,1.57,3.502,3.502,3.502h69.258
			c1.932,0,3.502-1.57,3.502-3.502V3.502C86.897,1.571,85.327,0,83.396,0z M48.767,94.908c-1.683,0-3.047-1.365-3.047-3.047
			c0-1.684,1.364-3.049,3.047-3.049c1.684,0,3.047,1.365,3.047,3.049C51.813,93.542,50.45,94.908,48.767,94.908z M79.894,86.736
			H17.64V7.004h62.254V86.736z"/>
		<path d="M26.971,13.373c-1.637,0-2.964,1.327-2.964,2.964v24.704l27.667-27.668H26.971z"/>
	</g>
</g>
<g>
</g>
<g>
</g>
<g>
</g>
<g>
</g>
<g>
</g>
<g>
</g>
<g>
</g>
<g>
</g>
<g>
</g>
<g>
</g>
<g>
</g>
<g>
</g>
<g>
</g>
<g>
</g>
<g>
</g>
</svg>
