<?xml version="1.0" encoding="iso-8859-1"?>
<!-- Generator: Adobe Illustrator 16.0.0, SVG Export Plug-In . SVG Version: 6.00 Build 0)  -->
<!DOCTYPE svg PUBLIC "-//W3C//DTD SVG 1.1//EN" "http://www.w3.org/Graphics/SVG/1.1/DTD/svg11.dtd">
<svg version="1.1" id="Capa_1" xmlns="http://www.w3.org/2000/svg" xmlns:xlink="http://www.w3.org/1999/xlink" x="0px" y="0px"
	 width="96.496px" height="96.496px" viewBox="0 0 96.496 96.496" style="enable-background:new 0 0 96.496 96.496;"
	 xml:space="preserve">
<g>
	<g>
		<path d="M48.248,0C21.644,0,0,21.644,0,48.248c0,26.604,21.644,48.248,48.248,48.248c26.604,0,48.248-21.645,48.248-48.248
			C96.496,21.644,74.852,0,48.248,0z M48.248,88.496C26.056,88.496,8,70.439,8,48.248C8,26.056,26.056,8,48.248,8
			c22.191,0,40.248,18.056,40.248,40.248C88.496,70.439,70.439,88.496,48.248,88.496z"/>
		<path d="M48.248,16.367c-17.579,0-31.881,14.302-31.881,31.881s14.302,31.881,31.881,31.881s31.881-14.302,31.881-31.881
			S65.827,16.367,48.248,16.367z M48.248,72.129c-13.168,0-23.881-10.713-23.881-23.881S35.08,24.367,48.248,24.367
			S72.129,35.08,72.129,48.248S61.416,72.129,48.248,72.129z"/>
		<circle cx="48.248" cy="48.248" r="14.881"/>
	</g>
</g>
<g>
</g>
<g>
</g>
<g>
</g>
<g>
</g>
<g>
</g>
<g>
</g>
<g>
</g>
<g>
</g>
<g>
</g>
<g>
</g>
<g>
</g>
<g>
</g>
<g>
</g>
<g>
</g>
<g>
</g>
</svg>
