<?xml version="1.0" encoding="iso-8859-1"?>
<!-- Generator: Adobe Illustrator 16.0.0, SVG Export Plug-In . SVG Version: 6.00 Build 0)  -->
<!DOCTYPE svg PUBLIC "-//W3C//DTD SVG 1.1//EN" "http://www.w3.org/Graphics/SVG/1.1/DTD/svg11.dtd">
<svg version="1.1" id="Capa_1" xmlns="http://www.w3.org/2000/svg" xmlns:xlink="http://www.w3.org/1999/xlink" x="0px" y="0px"
	 width="98.995px" height="98.996px" viewBox="0 0 98.995 98.996" style="enable-background:new 0 0 98.995 98.996;"
	 xml:space="preserve">
<g>
	<path d="M95.85,42.54h-8.99l-6.844-27.753c-0.349-1.41-1.604-2.395-3.058-2.395H60.581V8.462c0-1.104-0.896-2-2-2H40.415
		c-1.104,0-2,0.896-2,2v3.93H22.038c-1.452,0-2.709,0.985-3.057,2.394L12.138,42.54h-8.99C1.412,42.54,0,43.953,0,45.688v27.286
		c0,1.736,1.412,3.148,3.148,3.148h3.585v13.262c0,1.736,1.412,3.147,3.148,3.147h11.072c1.736,0,3.148-1.411,3.148-3.147V76.123
		h50.793v13.262c0,1.736,1.412,3.148,3.147,3.148h11.072c1.735,0,3.147-1.412,3.147-3.148V76.123h3.586
		c1.735,0,3.147-1.412,3.147-3.148V45.688C98.997,43.953,97.585,42.54,95.85,42.54z M17.606,66.732c-4.224,0-7.66-3.436-7.66-7.66
		c0-4.224,3.437-7.659,7.66-7.659s7.659,3.436,7.659,7.659C25.265,63.296,21.83,66.732,17.606,66.732z M29.257,24.536h40.482
		l3.967,17.973H25.29L29.257,24.536z M81.216,66.732c-4.224,0-7.659-3.436-7.659-7.66c0-4.224,3.437-7.659,7.659-7.659
		c4.224,0,7.659,3.436,7.659,7.659C88.875,63.296,85.439,66.732,81.216,66.732z"/>
</g>
<g>
</g>
<g>
</g>
<g>
</g>
<g>
</g>
<g>
</g>
<g>
</g>
<g>
</g>
<g>
</g>
<g>
</g>
<g>
</g>
<g>
</g>
<g>
</g>
<g>
</g>
<g>
</g>
<g>
</g>
</svg>
