<?xml version="1.0" encoding="iso-8859-1"?>
<!-- Generator: Adobe Illustrator 16.0.0, SVG Export Plug-In . SVG Version: 6.00 Build 0)  -->
<!DOCTYPE svg PUBLIC "-//W3C//DTD SVG 1.1//EN" "http://www.w3.org/Graphics/SVG/1.1/DTD/svg11.dtd">
<svg version="1.1" id="Capa_1" xmlns="http://www.w3.org/2000/svg" xmlns:xlink="http://www.w3.org/1999/xlink" x="0px" y="0px"
	 width="93.96px" height="93.96px" viewBox="0 0 93.96 93.96" style="enable-background:new 0 0 93.96 93.96;" xml:space="preserve"
	>
<g>
	<path d="M91.149,1.352C90.992,0.58,90.309,0,89.49,0H65.78c-0.819,0-1.501,0.58-1.659,1.352c-0.021,0.11-0.033,0.225-0.033,0.341
		v23.271v24.793c0,9.433-7.674,17.106-17.106,17.106c-9.432,0-17.107-7.674-17.107-17.106V1.693C29.874,0.757,29.116,0,28.181,0
		H4.47C3.534,0,2.777,0.758,2.777,1.693v48.064c0,24.374,19.829,44.203,44.203,44.203s44.203-19.829,44.203-44.203V24.964V1.693
		C91.183,1.576,91.171,1.462,91.149,1.352z M24.229,32.302L8.422,32.208V5.645h15.807V32.302z"/>
</g>
<g>
</g>
<g>
</g>
<g>
</g>
<g>
</g>
<g>
</g>
<g>
</g>
<g>
</g>
<g>
</g>
<g>
</g>
<g>
</g>
<g>
</g>
<g>
</g>
<g>
</g>
<g>
</g>
<g>
</g>
</svg>
