<?xml version="1.0" encoding="iso-8859-1"?>
<!-- Generator: Adobe Illustrator 16.0.0, SVG Export Plug-In . SVG Version: 6.00 Build 0)  -->
<!DOCTYPE svg PUBLIC "-//W3C//DTD SVG 1.1//EN" "http://www.w3.org/Graphics/SVG/1.1/DTD/svg11.dtd">
<svg version="1.1" id="Capa_1" xmlns="http://www.w3.org/2000/svg" xmlns:xlink="http://www.w3.org/1999/xlink" x="0px" y="0px"
	 width="90.852px" height="90.852px" viewBox="0 0 90.852 90.852" style="enable-background:new 0 0 90.852 90.852;"
	 xml:space="preserve">
<g>
	<g>
		<path d="M83.05,6.979C78.92,2.35,72.852,0,65.013,0C49.558,0,32.126,8.986,28.788,10.789c-0.654,0.354-1.063,1.037-1.063,1.781
			v46.811c0,0.982,0.706,1.822,1.672,1.994c3.476,0.613,21.037,4.4,25.554,18.645c2.021,6.379,6.369,10.832,10.572,10.832
			c1.885,0,3.543-0.938,4.672-2.639c3.201-4.838,1.955-15.256-3.422-28.588c1.412,0.328,2.848,0.496,4.266,0.496
			c5.738,0,15.699-2.922,17.929-22.479C90.58,23.502,88.59,13.184,83.05,6.979z"/>
		<path d="M19.329,8.291H3.366c-1.117,0-2.024,0.906-2.024,2.025v51.787c0,1.117,0.907,2.023,2.024,2.023h15.963
			c1.119,0,2.024-0.906,2.024-2.023V10.317C21.354,9.197,20.448,8.291,19.329,8.291z M11.349,20.188
			c-2.162,0-3.922-1.76-3.922-3.922s1.76-3.922,3.922-3.922c2.162,0,3.922,1.76,3.922,3.922S13.511,20.188,11.349,20.188z"/>
	</g>
</g>
<g>
</g>
<g>
</g>
<g>
</g>
<g>
</g>
<g>
</g>
<g>
</g>
<g>
</g>
<g>
</g>
<g>
</g>
<g>
</g>
<g>
</g>
<g>
</g>
<g>
</g>
<g>
</g>
<g>
</g>
</svg>
