<?xml version="1.0" encoding="iso-8859-1"?>
<!-- Generator: Adobe Illustrator 16.0.0, SVG Export Plug-In . SVG Version: 6.00 Build 0)  -->
<!DOCTYPE svg PUBLIC "-//W3C//DTD SVG 1.1//EN" "http://www.w3.org/Graphics/SVG/1.1/DTD/svg11.dtd">
<svg version="1.1" id="Capa_1" xmlns="http://www.w3.org/2000/svg" xmlns:xlink="http://www.w3.org/1999/xlink" x="0px" y="0px"
	 width="91.334px" height="91.334px" viewBox="0 0 91.334 91.334" style="enable-background:new 0 0 91.334 91.334;"
	 xml:space="preserve">
<g>
	<g>
		<path d="M20.311,85.084h50.712V20.75h-4.688v-6.5c0-4.411-3.589-8-8-8H33c-4.411,0-8,3.589-8,8v6.5h-4.689V85.084z M33,14.25
			h25.334l0.002,6.5H33V14.25z"/>
		<path d="M87.334,20.75h-5.979v64.334h5.979c2.209,0,4-1.791,4-4V24.75C91.334,22.541,89.543,20.75,87.334,20.75z"/>
		<path d="M9.978,20.75H4c-2.209,0-4,1.791-4,4v56.334c0,2.209,1.791,4,4,4h5.978V20.75z"/>
	</g>
</g>
<g>
</g>
<g>
</g>
<g>
</g>
<g>
</g>
<g>
</g>
<g>
</g>
<g>
</g>
<g>
</g>
<g>
</g>
<g>
</g>
<g>
</g>
<g>
</g>
<g>
</g>
<g>
</g>
<g>
</g>
</svg>
