<?xml version="1.0" encoding="iso-8859-1"?>
<!-- Generator: Adobe Illustrator 16.0.0, SVG Export Plug-In . SVG Version: 6.00 Build 0)  -->
<!DOCTYPE svg PUBLIC "-//W3C//DTD SVG 1.1//EN" "http://www.w3.org/Graphics/SVG/1.1/DTD/svg11.dtd">
<svg version="1.1" id="Capa_1" xmlns="http://www.w3.org/2000/svg" xmlns:xlink="http://www.w3.org/1999/xlink" x="0px" y="0px"
	 width="94.339px" height="94.338px" viewBox="0 0 94.339 94.338" style="enable-background:new 0 0 94.339 94.338;"
	 xml:space="preserve">
<g>
	<g>
		<path d="M92.34,11.836H28.613c-1.104,0-2,0.896-2,2v9.756l-8.954,0.029c-0.762,0-1.457,0.433-1.794,1.115L7.848,42.76H7.069
			c-0.762,0-1.457,0.433-1.794,1.115l-1.34,2.718H3.822c-1.104,0-2,0.896-2,2v19.478C0.801,68.161,0,69.018,0,70.063v1.687
			c0,1.104,0.896,2,2,2h5.654c1.002,0,1.85-0.741,1.982-1.733c0.86-6.425,6.4-11.269,12.888-11.269
			c6.485,0,12.025,4.844,12.887,11.269c0.134,0.992,0.98,1.733,1.982,1.733h18.054c1.002,0,1.85-0.741,1.981-1.733
			c0.86-6.425,6.4-11.269,12.886-11.269c6.486,0,12.027,4.844,12.89,11.269c0.134,0.992,0.979,1.733,1.981,1.733h7.153
			c1.104,0,2-0.896,2-2V13.836C94.34,12.732,93.443,11.836,92.34,11.836z"/>
		<path d="M22.524,64.932c-4.845,0-8.786,3.941-8.786,8.785s3.941,8.785,8.786,8.785c4.844,0,8.784-3.941,8.784-8.785
			S27.368,64.932,22.524,64.932z"/>
		<path d="M70.316,64.932c-4.845,0-8.785,3.941-8.785,8.785s3.94,8.785,8.785,8.785s8.785-3.941,8.785-8.785
			S75.16,64.932,70.316,64.932z"/>
	</g>
</g>
<g>
</g>
<g>
</g>
<g>
</g>
<g>
</g>
<g>
</g>
<g>
</g>
<g>
</g>
<g>
</g>
<g>
</g>
<g>
</g>
<g>
</g>
<g>
</g>
<g>
</g>
<g>
</g>
<g>
</g>
</svg>
