<?xml version="1.0" encoding="iso-8859-1"?>
<!-- Generator: Adobe Illustrator 16.0.0, SVG Export Plug-In . SVG Version: 6.00 Build 0)  -->
<!DOCTYPE svg PUBLIC "-//W3C//DTD SVG 1.1//EN" "http://www.w3.org/Graphics/SVG/1.1/DTD/svg11.dtd">
<svg version="1.1" id="Capa_1" xmlns="http://www.w3.org/2000/svg" xmlns:xlink="http://www.w3.org/1999/xlink" x="0px" y="0px"
	 width="93.613px" height="93.613px" viewBox="0 0 93.613 93.613" style="enable-background:new 0 0 93.613 93.613;"
	 xml:space="preserve">
<g>
	<path d="M46.809,0.419c-27.982,0-43.66,20.45-46.785,40.719c-0.136,0.882,0.316,1.75,1.117,2.145
		c0.803,0.395,1.766,0.223,2.381-0.421c3.246-3.398,7.756-5.347,12.371-5.347c5.387,0,10.528,2.613,13.753,6.992
		c0.386,0.523,0.996,0.832,1.646,0.832c0.651,0,1.262-0.31,1.647-0.833c2.479-3.371,6.065-5.706,10.097-6.575v44.3
		c0,6.043,4.917,10.962,10.962,10.962c5.119,0,9.505-3.47,10.668-8.435c0.144-0.609-0.001-1.248-0.388-1.736
		c-0.389-0.488-0.979-0.774-1.603-0.774h-3.625c-0.828,0-1.575,0.5-1.891,1.267c-0.523,1.274-1.796,2.131-3.163,2.131
		c-1.884,0-3.416-1.531-3.416-3.412l0.021-44.26c3.985,0.937,7.518,3.306,9.941,6.672c0.386,0.533,1.002,0.85,1.659,0.85
		s1.274-0.316,1.659-0.85c3.215-4.464,8.396-7.129,13.859-7.129c4.614,0,9.124,1.947,12.369,5.344
		c0.616,0.646,1.579,0.815,2.382,0.421c0.801-0.396,1.253-1.265,1.116-2.146C90.45,20.869,74.768,0.419,46.809,0.419z"/>
</g>
<g>
</g>
<g>
</g>
<g>
</g>
<g>
</g>
<g>
</g>
<g>
</g>
<g>
</g>
<g>
</g>
<g>
</g>
<g>
</g>
<g>
</g>
<g>
</g>
<g>
</g>
<g>
</g>
<g>
</g>
</svg>
