<?xml version="1.0" encoding="iso-8859-1"?>
<!-- Generator: Adobe Illustrator 16.0.0, SVG Export Plug-In . SVG Version: 6.00 Build 0)  -->
<!DOCTYPE svg PUBLIC "-//W3C//DTD SVG 1.1//EN" "http://www.w3.org/Graphics/SVG/1.1/DTD/svg11.dtd">
<svg version="1.1" id="Capa_1" xmlns="http://www.w3.org/2000/svg" xmlns:xlink="http://www.w3.org/1999/xlink" x="0px" y="0px"
	 width="95.314px" height="95.314px" viewBox="0 0 95.314 95.314" style="enable-background:new 0 0 95.314 95.314;"
	 xml:space="preserve">
<g>
	<path d="M78.861,42.349c-0.383-0.384-0.904-0.596-1.445-0.596c-0.004,0-0.01,0-0.016,0l-2.808,0.021V26.632
		C74.592,11.948,62.644,0,47.96,0C33.276,0,21.328,11.948,21.328,26.632v0.528c0,1.135,0.92,2.054,2.054,2.054h7.146
		c1.133,0,2.054-0.919,2.054-2.054v-0.528c0-8.479,6.898-15.38,15.378-15.38c8.48,0,15.38,6.9,15.38,15.38v15.146l-0.231,0.017
		H17.899c-0.543,0-1.067,0.216-1.452,0.602c-0.385,0.387-0.602,0.908-0.602,1.454l0.042,49.411c0,1.134,0.921,2.053,2.054,2.053
		l59.476-0.042c1.133,0,2.052-0.919,2.052-2.054V43.807C79.469,43.26,79.25,42.734,78.861,42.349z"/>
</g>
<g>
</g>
<g>
</g>
<g>
</g>
<g>
</g>
<g>
</g>
<g>
</g>
<g>
</g>
<g>
</g>
<g>
</g>
<g>
</g>
<g>
</g>
<g>
</g>
<g>
</g>
<g>
</g>
<g>
</g>
</svg>
