<?xml version="1.0" encoding="iso-8859-1"?>
<!-- Generator: Adobe Illustrator 16.0.0, SVG Export Plug-In . SVG Version: 6.00 Build 0)  -->
<!DOCTYPE svg PUBLIC "-//W3C//DTD SVG 1.1//EN" "http://www.w3.org/Graphics/SVG/1.1/DTD/svg11.dtd">
<svg version="1.1" id="Capa_1" xmlns="http://www.w3.org/2000/svg" xmlns:xlink="http://www.w3.org/1999/xlink" x="0px" y="0px"
	 width="97.891px" height="97.89px" viewBox="0 0 97.891 97.89" style="enable-background:new 0 0 97.891 97.89;"
	 xml:space="preserve">
<g>
	<path d="M71.957,2.539c-14.299,0-25.934,11.635-25.934,25.934v8.764H2c-0.529,0-1.039,0.211-1.414,0.586
		C0.211,38.2,0,38.708,0,39.239l0.041,54.115c0,1.104,0.896,1.998,2,1.998l0,0l57.916-0.041c1.104,0,1.998-0.896,1.998-2V39.197
		c0-0.533-0.213-1.045-0.592-1.42c-0.373-0.373-0.881-0.58-1.408-0.58c-0.004,0-0.01,0-0.016,0L56.98,37.22v-8.748
		c0-8.258,6.719-14.977,14.977-14.977s14.975,6.719,14.975,14.977v6.764c0,1.105,0.896,2,2,2h6.959c1.104,0,2-0.895,2-2v-6.764
		C97.89,14.174,86.256,2.539,71.957,2.539z"/>
</g>
<g>
</g>
<g>
</g>
<g>
</g>
<g>
</g>
<g>
</g>
<g>
</g>
<g>
</g>
<g>
</g>
<g>
</g>
<g>
</g>
<g>
</g>
<g>
</g>
<g>
</g>
<g>
</g>
<g>
</g>
</svg>
