<?xml version="1.0" encoding="iso-8859-1"?>
<!-- Generator: Adobe Illustrator 16.0.0, SVG Export Plug-In . SVG Version: 6.00 Build 0)  -->
<!DOCTYPE svg PUBLIC "-//W3C//DTD SVG 1.1//EN" "http://www.w3.org/Graphics/SVG/1.1/DTD/svg11.dtd">
<svg version="1.1" id="Capa_1" xmlns="http://www.w3.org/2000/svg" xmlns:xlink="http://www.w3.org/1999/xlink" x="0px" y="0px"
	 width="95.098px" height="95.098px" viewBox="0 0 95.098 95.098" style="enable-background:new 0 0 95.098 95.098;"
	 xml:space="preserve">
<g>
	<g>
		<path d="M92.961,0H2.137C0.959,0,0,0.959,0,2.137v90.824c0,1.178,0.959,2.137,2.137,2.137h90.824c1.178,0,2.137-0.959,2.137-2.137
			V2.137C95.098,0.959,94.139,0,92.961,0z M86.1,86.1H8.998V8.998H86.1V86.1z"/>
		<path d="M21.135,65.484h52.83c0.445,0,0.846-0.332,1.016-0.852c0.17-0.514,0.076-1.105-0.238-1.5L48.326,30.018
			c-0.215-0.269-0.497-0.404-0.776-0.404s-0.562,0.136-0.777,0.404L20.358,63.133c-0.314,0.395-0.41,0.986-0.238,1.5
			C20.289,65.152,20.69,65.484,21.135,65.484z"/>
	</g>
</g>
<g>
</g>
<g>
</g>
<g>
</g>
<g>
</g>
<g>
</g>
<g>
</g>
<g>
</g>
<g>
</g>
<g>
</g>
<g>
</g>
<g>
</g>
<g>
</g>
<g>
</g>
<g>
</g>
<g>
</g>
</svg>
