<?xml version="1.0" encoding="iso-8859-1"?>
<!-- Generator: Adobe Illustrator 16.0.0, SVG Export Plug-In . SVG Version: 6.00 Build 0)  -->
<!DOCTYPE svg PUBLIC "-//W3C//DTD SVG 1.1//EN" "http://www.w3.org/Graphics/SVG/1.1/DTD/svg11.dtd">
<svg version="1.1" id="Capa_1" xmlns="http://www.w3.org/2000/svg" xmlns:xlink="http://www.w3.org/1999/xlink" x="0px" y="0px"
	 width="95.098px" height="95.098px" viewBox="0 0 95.098 95.098" style="enable-background:new 0 0 95.098 95.098;"
	 xml:space="preserve">
<g>
	<path d="M92.961,0H2.137C0.957,0,0,0.957,0,2.137v90.824c0,1.18,0.957,2.137,2.137,2.137h90.824c1.18,0,2.137-0.957,2.137-2.137
		V2.137C95.098,0.957,94.141,0,92.961,0z M69.593,49.729c-0.063,0.557-0.438,1.026-0.965,1.211
		c-0.528,0.185-1.112,0.053-1.509-0.345l-6.992-6.99L31.692,72.04c-0.284,0.284-0.656,0.426-1.029,0.426
		c-0.372,0-0.744-0.142-1.028-0.426l-6.58-6.58c-0.273-0.272-0.426-0.644-0.426-1.029c0-0.385,0.153-0.756,0.426-1.028L51.49,34.967
		l-6.983-6.984c-0.395-0.395-0.53-0.981-0.345-1.51c0.185-0.527,0.655-0.902,1.21-0.965l25.479-2.867
		c0.438-0.051,0.879,0.104,1.191,0.417c0.314,0.313,0.467,0.752,0.417,1.191L69.593,49.729z"/>
</g>
<g>
</g>
<g>
</g>
<g>
</g>
<g>
</g>
<g>
</g>
<g>
</g>
<g>
</g>
<g>
</g>
<g>
</g>
<g>
</g>
<g>
</g>
<g>
</g>
<g>
</g>
<g>
</g>
<g>
</g>
</svg>
