<?xml version="1.0" encoding="iso-8859-1"?>
<!-- Generator: Adobe Illustrator 16.0.0, SVG Export Plug-In . SVG Version: 6.00 Build 0)  -->
<!DOCTYPE svg PUBLIC "-//W3C//DTD SVG 1.1//EN" "http://www.w3.org/Graphics/SVG/1.1/DTD/svg11.dtd">
<svg version="1.1" id="Capa_1" xmlns="http://www.w3.org/2000/svg" xmlns:xlink="http://www.w3.org/1999/xlink" x="0px" y="0px"
	 width="98.08px" height="98.079px" viewBox="0 0 98.08 98.079" style="enable-background:new 0 0 98.08 98.079;"
	 xml:space="preserve">
<g>
	<g>
		<path d="M11.942,96.102c0,1.093,0.885,1.978,1.977,1.978h70.24c1.092,0,1.977-0.885,1.977-1.978V53.591H11.942V96.102z
			 M33.75,66.348c0.314-0.646,0.969-1.056,1.686-1.056h27.208c0.719,0,1.373,0.409,1.686,1.056c0.312,0.645,0.232,1.412-0.212,1.978
			L50.513,85.619c-0.354,0.451-0.898,0.715-1.474,0.715c-0.574,0-1.117-0.264-1.473-0.715L33.962,68.324
			c-0.265-0.337-0.401-0.746-0.401-1.158C33.562,66.887,33.624,66.605,33.75,66.348z"/>
		<path d="M86.136,1.977C86.136,0.885,85.251,0,84.16,0h-70.24c-1.092,0-1.977,0.885-1.977,1.977v42.511h74.194V1.977L86.136,1.977z
			 M64.33,31.731c-0.314,0.646-0.969,1.055-1.686,1.055H35.435c-0.718,0-1.373-0.409-1.685-1.055
			c-0.313-0.645-0.232-1.413,0.212-1.978l13.605-17.294c0.354-0.451,0.898-0.715,1.473-0.715c0.574,0,1.117,0.264,1.474,0.715
			l13.604,17.295c0.265,0.337,0.4,0.746,0.4,1.158C64.517,31.191,64.456,31.472,64.33,31.731z"/>
		<path d="M95.23,44.487h-9.094v9.104h9.094c0.819,0,1.482-0.663,1.482-1.481V45.97C96.713,45.151,96.049,44.487,95.23,44.487z"/>
		<path d="M2.849,44.487c-0.819,0-1.482,0.664-1.482,1.482v6.138c0,0.818,0.664,1.482,1.482,1.482h9.095v-9.104L2.849,44.487
			L2.849,44.487z"/>
	</g>
</g>
<g>
</g>
<g>
</g>
<g>
</g>
<g>
</g>
<g>
</g>
<g>
</g>
<g>
</g>
<g>
</g>
<g>
</g>
<g>
</g>
<g>
</g>
<g>
</g>
<g>
</g>
<g>
</g>
<g>
</g>
</svg>
