<?xml version="1.0" encoding="iso-8859-1"?>
<!-- Generator: Adobe Illustrator 16.0.0, SVG Export Plug-In . SVG Version: 6.00 Build 0)  -->
<!DOCTYPE svg PUBLIC "-//W3C//DTD SVG 1.1//EN" "http://www.w3.org/Graphics/SVG/1.1/DTD/svg11.dtd">
<svg version="1.1" id="Capa_1" xmlns="http://www.w3.org/2000/svg" xmlns:xlink="http://www.w3.org/1999/xlink" x="0px" y="0px"
	 width="97.496px" height="97.496px" viewBox="0 0 97.496 97.496" style="enable-background:new 0 0 97.496 97.496;"
	 xml:space="preserve">
<g>
	<g>
		<path d="M91.873,61.746H62.336v13.406c0,4.686-3.812,8.5-8.5,8.5H43.66c-4.687,0-8.5-3.814-8.5-8.5V61.746H5.623
			c-1.104,0-2,0.895-2,2v31.75c0,1.104,0.896,2,2,2h86.25c1.104,0,2-0.896,2-2v-31.75C93.873,62.641,92.977,61.746,91.873,61.746z"
			/>
		<path d="M27.57,36.373c0.375,0.375,0.884,0.586,1.414,0.586c0.53,0,1.039-0.211,1.414-0.586L41.66,25.111v50.045
			c0,1.105,0.896,2,2,2h10.176c1.104,0,2-0.895,2-2V25.111l11.262,11.262c0.781,0.781,2.049,0.781,2.828,0l6.598-6.598
			c0.375-0.375,0.586-0.885,0.586-1.414c0-0.531-0.211-1.039-0.586-1.414L50.161,0.586C49.786,0.211,49.277,0,48.747,0
			c-0.53,0-1.039,0.211-1.414,0.586l-26.36,26.361c-0.781,0.781-0.781,2.047,0,2.828L27.57,36.373z"/>
	</g>
</g>
<g>
</g>
<g>
</g>
<g>
</g>
<g>
</g>
<g>
</g>
<g>
</g>
<g>
</g>
<g>
</g>
<g>
</g>
<g>
</g>
<g>
</g>
<g>
</g>
<g>
</g>
<g>
</g>
<g>
</g>
</svg>
