<?xml version="1.0" encoding="iso-8859-1"?>
<!-- Generator: Adobe Illustrator 16.0.0, SVG Export Plug-In . SVG Version: 6.00 Build 0)  -->
<!DOCTYPE svg PUBLIC "-//W3C//DTD SVG 1.1//EN" "http://www.w3.org/Graphics/SVG/1.1/DTD/svg11.dtd">
<svg version="1.1" id="Capa_1" xmlns="http://www.w3.org/2000/svg" xmlns:xlink="http://www.w3.org/1999/xlink" x="0px" y="0px"
	 width="96.992px" height="96.992px" viewBox="0 0 96.992 96.992" style="enable-background:new 0 0 96.992 96.992;"
	 xml:space="preserve">
<g>
	<path d="M82.297,17.002L66.028,0.732C65.559,0.263,64.924,0,64.26,0H16.463c-1.381,0-2.5,1.119-2.5,2.5v91.992
		c0,1.381,1.119,2.5,2.5,2.5h64.066c1.381,0,2.5-1.119,2.5-2.5V18.769C83.029,18.105,82.766,17.471,82.297,17.002z M67.787,58.854
		c0,0.104-0.062,0.201-0.156,0.244c-0.035,0.018-0.074,0.023-0.111,0.023c-0.062,0-0.125-0.021-0.174-0.064l-9.236-7.953v7.985
		c0,0.591-0.479,1.07-1.071,1.07H30.275c-0.591,0-1.07-0.479-1.07-1.07V37.902c0-0.59,0.479-1.07,1.07-1.07h26.762
		c0.593,0,1.07,0.48,1.07,1.07v7.985l9.238-7.953c0.078-0.068,0.189-0.083,0.284-0.04s0.156,0.139,0.156,0.243L67.787,58.854
		L67.787,58.854z M62.051,22.342c-0.337,0-0.658-0.133-0.896-0.371c-0.237-0.238-0.372-0.561-0.372-0.897l0.002-15.126L77.18,22.343
		L62.051,22.342L62.051,22.342z"/>
</g>
<g>
</g>
<g>
</g>
<g>
</g>
<g>
</g>
<g>
</g>
<g>
</g>
<g>
</g>
<g>
</g>
<g>
</g>
<g>
</g>
<g>
</g>
<g>
</g>
<g>
</g>
<g>
</g>
<g>
</g>
</svg>
