<?xml version="1.0" encoding="iso-8859-1"?>
<!-- Generator: Adobe Illustrator 16.0.0, SVG Export Plug-In . SVG Version: 6.00 Build 0)  -->
<!DOCTYPE svg PUBLIC "-//W3C//DTD SVG 1.1//EN" "http://www.w3.org/Graphics/SVG/1.1/DTD/svg11.dtd">
<svg version="1.1" id="Capa_1" xmlns="http://www.w3.org/2000/svg" xmlns:xlink="http://www.w3.org/1999/xlink" x="0px" y="0px"
	 width="96.992px" height="96.992px" viewBox="0 0 96.992 96.992" style="enable-background:new 0 0 96.992 96.992;"
	 xml:space="preserve">
<g>
	<path d="M82.297,16.976L66.028,0.732C65.559,0.263,64.924,0,64.26,0H16.463c-1.381,0-2.5,1.119-2.5,2.5v91.992
		c0,1.381,1.119,2.5,2.5,2.5h64.066c1.381,0,2.5-1.119,2.5-2.5V18.744C83.029,18.081,82.766,17.445,82.297,16.976z M66.898,56.694
		c0,0.472-0.273,0.899-0.702,1.097c-0.427,0.196-0.933,0.125-1.29-0.184l-7.119-6.129v6.992c0,0.688-0.561,1.248-1.25,1.248H31.342
		c-0.688,0-1.249-0.561-1.249-1.248V38.522c0-0.688,0.561-1.249,1.249-1.249h25.195c0.689,0,1.25,0.561,1.25,1.249v6.992l7.119-6.13
		c0.357-0.308,0.861-0.379,1.29-0.183c0.429,0.197,0.702,0.625,0.702,1.097V56.694z M62.051,22.343
		c-0.337,0-0.658-0.134-0.896-0.372c-0.237-0.238-0.372-0.561-0.372-0.897l0.002-15.126L77.18,22.344L62.051,22.343L62.051,22.343z"
		/>
</g>
<g>
</g>
<g>
</g>
<g>
</g>
<g>
</g>
<g>
</g>
<g>
</g>
<g>
</g>
<g>
</g>
<g>
</g>
<g>
</g>
<g>
</g>
<g>
</g>
<g>
</g>
<g>
</g>
<g>
</g>
</svg>
