<?xml version="1.0" encoding="iso-8859-1"?>
<!-- Generator: Adobe Illustrator 16.0.0, SVG Export Plug-In . SVG Version: 6.00 Build 0)  -->
<!DOCTYPE svg PUBLIC "-//W3C//DTD SVG 1.1//EN" "http://www.w3.org/Graphics/SVG/1.1/DTD/svg11.dtd">
<svg version="1.1" id="Capa_1" xmlns="http://www.w3.org/2000/svg" xmlns:xlink="http://www.w3.org/1999/xlink" x="0px" y="0px"
	 width="96.992px" height="96.992px" viewBox="0 0 96.992 96.992" style="enable-background:new 0 0 96.992 96.992;"
	 xml:space="preserve">
<g>
	<g>
		<path d="M82.297,16.976L66.028,0.732C65.559,0.263,64.924,0,64.26,0H16.463c-1.381,0-2.5,1.119-2.5,2.5v91.992
			c0,1.381,1.119,2.5,2.5,2.5h64.066c1.381,0,2.5-1.119,2.5-2.5V18.744C83.029,18.081,82.766,17.445,82.297,16.976z M66.885,63.357
			c0,0.83-0.672,1.5-1.5,1.5h-9.777l6.924,6.926c0.586,0.586,0.586,1.535,0,2.121l-2.702,2.703c-0.28,0.281-0.663,0.438-1.062,0.438
			c-0.397,0-0.778-0.157-1.061-0.438l-9.211-9.213l-9.213,9.213c-0.281,0.281-0.663,0.438-1.061,0.438s-0.779-0.157-1.061-0.438
			l-2.702-2.703c-0.586-0.586-0.586-1.535,0-2.121l6.924-6.926h-9.777c-0.829,0-1.5-0.67-1.5-1.5V37.713c0-0.828,0.671-1.5,1.5-1.5
			h33.777c0.828,0,1.5,0.672,1.5,1.5v25.645H66.885z M62.051,22.343c-0.337,0-0.658-0.134-0.896-0.372
			c-0.237-0.238-0.372-0.561-0.372-0.897l0.002-15.126L77.18,22.344L62.051,22.343L62.051,22.343z"/>
		<rect x="34.764" y="53.751" width="26.401" height="3.853"/>
		<circle cx="40.435" cy="45.9" r="4.776"/>
		<rect x="47.97" y="41.75" width="13.195" height="6.179"/>
	</g>
</g>
<g>
</g>
<g>
</g>
<g>
</g>
<g>
</g>
<g>
</g>
<g>
</g>
<g>
</g>
<g>
</g>
<g>
</g>
<g>
</g>
<g>
</g>
<g>
</g>
<g>
</g>
<g>
</g>
<g>
</g>
</svg>
