<?xml version="1.0" encoding="iso-8859-1"?>
<!-- Generator: Adobe Illustrator 16.0.0, SVG Export Plug-In . SVG Version: 6.00 Build 0)  -->
<!DOCTYPE svg PUBLIC "-//W3C//DTD SVG 1.1//EN" "http://www.w3.org/Graphics/SVG/1.1/DTD/svg11.dtd">
<svg version="1.1" id="Capa_1" xmlns="http://www.w3.org/2000/svg" xmlns:xlink="http://www.w3.org/1999/xlink" x="0px" y="0px"
	 width="98.472px" height="98.472px" viewBox="0 0 98.472 98.472" style="enable-background:new 0 0 98.472 98.472;"
	 xml:space="preserve">
<g>
	<g>
		<path d="M49.236,60.826c8.271,0,15-6.729,15-15.002V22.986h-30v22.838C34.236,54.096,40.965,60.826,49.236,60.826z"/>
		<path d="M49.236,0c-7.77,0-14.338,6.063-14.953,13.803h29.905C63.574,6.062,57.006,0,49.236,0z"/>
		<path d="M75.749,28.66h-3.285c-1.104,0-2,0.896-2,2v13.73c0,11.705-9.522,21.229-21.228,21.229
			c-11.706,0-21.228-9.523-21.228-21.229V30.66c0-1.104-0.896-2-2-2h-3.285c-1.104,0-2,0.896-2,2v13.73
			c0,13.88,10.329,25.983,24.027,28.158l0.843,0.134V90.49H34.032c-2.201,0-3.991,1.791-3.991,3.992
			c0,2.199,1.791,3.989,3.991,3.989h30.408c2.201,0,3.991-1.79,3.991-3.989c0-2.201-1.791-3.992-3.991-3.992H52.879V72.682
			l0.843-0.134C67.42,70.373,77.749,58.27,77.749,44.39V30.66C77.749,29.555,76.854,28.66,75.749,28.66z"/>
	</g>
</g>
<g>
</g>
<g>
</g>
<g>
</g>
<g>
</g>
<g>
</g>
<g>
</g>
<g>
</g>
<g>
</g>
<g>
</g>
<g>
</g>
<g>
</g>
<g>
</g>
<g>
</g>
<g>
</g>
<g>
</g>
</svg>
