<?xml version="1.0" encoding="iso-8859-1"?>
<!-- Generator: Adobe Illustrator 16.0.0, SVG Export Plug-In . SVG Version: 6.00 Build 0)  -->
<!DOCTYPE svg PUBLIC "-//W3C//DTD SVG 1.1//EN" "http://www.w3.org/Graphics/SVG/1.1/DTD/svg11.dtd">
<svg version="1.1" id="Capa_1" xmlns="http://www.w3.org/2000/svg" xmlns:xlink="http://www.w3.org/1999/xlink" x="0px" y="0px"
	 width="96.613px" height="96.614px" viewBox="0 0 96.613 96.614" style="enable-background:new 0 0 96.613 96.614;"
	 xml:space="preserve">
<g>
	<path d="M94.614,5.877H2c-1.104,0-2,0.896-2,2v80.858c0,1.104,0.896,2,2,2h92.613c1.104,0,2-0.896,2-2V7.877
		C96.614,6.772,95.719,5.877,94.614,5.877z M29.449,71.461c0,0.829-0.672,1.5-1.5,1.5H19.14c-0.828,0-1.5-0.671-1.5-1.5V43.164
		c0-0.829,0.672-1.5,1.5-1.5h8.809c0.828,0,1.5,0.671,1.5,1.5V71.461z M45.957,71.461c0,0.829-0.672,1.5-1.5,1.5h-8.809
		c-0.828,0-1.5-0.671-1.5-1.5v-40.43c0-0.829,0.672-1.5,1.5-1.5h8.809c0.828,0,1.5,0.671,1.5,1.5V71.461z M62.465,71.461
		c0,0.829-0.672,1.5-1.5,1.5h-8.808c-0.828,0-1.5-0.671-1.5-1.5V43.164c0-0.829,0.672-1.5,1.5-1.5h8.81c0.827,0,1.5,0.671,1.5,1.5
		v28.298H62.465z M78.975,71.461c0,0.829-0.672,1.5-1.5,1.5h-8.81c-0.828,0-1.5-0.671-1.5-1.5V26.599c0-0.829,0.672-1.5,1.5-1.5
		h8.81c0.828,0,1.5,0.671,1.5,1.5V71.461z"/>
</g>
<g>
</g>
<g>
</g>
<g>
</g>
<g>
</g>
<g>
</g>
<g>
</g>
<g>
</g>
<g>
</g>
<g>
</g>
<g>
</g>
<g>
</g>
<g>
</g>
<g>
</g>
<g>
</g>
<g>
</g>
</svg>
