<?xml version="1.0" encoding="iso-8859-1"?>
<!-- Generator: Adobe Illustrator 16.0.0, SVG Export Plug-In . SVG Version: 6.00 Build 0)  -->
<!DOCTYPE svg PUBLIC "-//W3C//DTD SVG 1.1//EN" "http://www.w3.org/Graphics/SVG/1.1/DTD/svg11.dtd">
<svg version="1.1" id="Capa_1" xmlns="http://www.w3.org/2000/svg" xmlns:xlink="http://www.w3.org/1999/xlink" x="0px" y="0px"
	 width="93.428px" height="93.428px" viewBox="0 0 93.428 93.428" style="enable-background:new 0 0 93.428 93.428;"
	 xml:space="preserve">
<g>
	<g>
		<path d="M28.073,54.787h-8.334c-1.104,0-2,0.896-2,2v29.868c0,1.104,0.896,2,2,2h8.334c1.104,0,2-0.896,2-2V56.787
			C30.073,55.684,29.178,54.787,28.073,54.787z"/>
		<path d="M10.334,72.526H2c-1.104,0-2,0.896-2,2v12.129c0,1.104,0.896,2,2,2h8.334c1.104,0,2-0.896,2-2V74.526
			C12.334,73.422,11.439,72.526,10.334,72.526z"/>
		<path d="M49.191,38.115h-8.333c-1.104,0-2,0.896-2,2v46.54c0,1.104,0.896,2,2,2h8.333c1.104,0,2-0.896,2-2v-46.54
			C51.191,39.011,50.295,38.115,49.191,38.115z"/>
		<path d="M70.311,21.443h-8.334c-1.104,0-2,0.896-2,2v63.212c0,1.104,0.896,2,2,2h8.334c1.104,0,2-0.896,2-2V23.443
			C72.311,22.339,71.414,21.443,70.311,21.443z"/>
		<path d="M91.428,4.771h-8.334c-1.104,0-2,0.896-2,2v79.885c0,1.104,0.896,2,2,2h8.334c1.104,0,2-0.896,2-2V6.771
			C93.428,5.667,92.531,4.771,91.428,4.771z"/>
	</g>
</g>
<g>
</g>
<g>
</g>
<g>
</g>
<g>
</g>
<g>
</g>
<g>
</g>
<g>
</g>
<g>
</g>
<g>
</g>
<g>
</g>
<g>
</g>
<g>
</g>
<g>
</g>
<g>
</g>
<g>
</g>
</svg>
