<?xml version="1.0" encoding="iso-8859-1"?>
<!-- Generator: Adobe Illustrator 16.0.0, SVG Export Plug-In . SVG Version: 6.00 Build 0)  -->
<!DOCTYPE svg PUBLIC "-//W3C//DTD SVG 1.1//EN" "http://www.w3.org/Graphics/SVG/1.1/DTD/svg11.dtd">
<svg version="1.1" id="Capa_1" xmlns="http://www.w3.org/2000/svg" xmlns:xlink="http://www.w3.org/1999/xlink" x="0px" y="0px"
	 width="93.738px" height="93.738px" viewBox="0 0 93.738 93.738" style="enable-background:new 0 0 93.738 93.738;"
	 xml:space="preserve">
<g>
	<path d="M93.404,78.382L48.425,13.21c-0.354-0.511-0.936-0.816-1.557-0.816s-1.202,0.306-1.555,0.816L0.333,78.382
		c-0.398,0.577-0.443,1.329-0.117,1.95c0.326,0.621,0.971,1.012,1.672,1.012h89.96c0.701,0,1.347-0.391,1.672-1.012
		C93.848,79.711,93.803,78.959,93.404,78.382z M52.076,73.102c0,0.501-0.406,0.906-0.907,0.906H42.57
		c-0.501,0-0.907-0.405-0.907-0.906V65.15c0-0.5,0.406-0.906,0.907-0.906h8.599c0.501,0,0.907,0.406,0.907,0.906V73.102z
		 M52.093,58.722c-0.014,0.491-0.415,0.882-0.906,0.882h-8.634c-0.491,0-0.893-0.391-0.906-0.881l-0.762-27.562
		c-0.006-0.245,0.086-0.482,0.257-0.657c0.171-0.176,0.405-0.274,0.649-0.274h10.156c0.244,0,0.479,0.099,0.649,0.274
		c0.171,0.175,0.263,0.412,0.257,0.656L52.093,58.722z"/>
</g>
<g>
</g>
<g>
</g>
<g>
</g>
<g>
</g>
<g>
</g>
<g>
</g>
<g>
</g>
<g>
</g>
<g>
</g>
<g>
</g>
<g>
</g>
<g>
</g>
<g>
</g>
<g>
</g>
<g>
</g>
</svg>
