<?xml version="1.0" encoding="iso-8859-1"?>
<!-- Generator: Adobe Illustrator 16.0.0, SVG Export Plug-In . SVG Version: 6.00 Build 0)  -->
<!DOCTYPE svg PUBLIC "-//W3C//DTD SVG 1.1//EN" "http://www.w3.org/Graphics/SVG/1.1/DTD/svg11.dtd">
<svg version="1.1" id="Capa_1" xmlns="http://www.w3.org/2000/svg" xmlns:xlink="http://www.w3.org/1999/xlink" x="0px" y="0px"
	 width="98.076px" height="98.075px" viewBox="0 0 98.076 98.075" style="enable-background:new 0 0 98.076 98.075;"
	 xml:space="preserve">
<g>
	<g>
		<path d="M49.036,22.72c6.264,0,11.36-5.097,11.36-11.361C60.396,5.095,55.3,0,49.036,0s-11.36,5.096-11.36,11.359
			C37.676,17.623,42.772,22.72,49.036,22.72z"/>
		<path d="M78.272,46.905L63.621,24.978c-0.371-0.556-0.995-0.889-1.663-0.889h-25.84c-0.668,0-1.292,0.333-1.663,0.889
			L19.802,46.904c-0.294,0.441-0.402,0.981-0.298,1.501c0.104,0.521,0.409,0.979,0.85,1.273l4.436,2.964
			c0.919,0.611,2.16,0.365,2.774-0.553l7.741-11.584l-0.02,5.739l-5,23.419c-0.126,0.591,0.021,1.207,0.401,1.676
			c0.379,0.471,0.951,0.742,1.555,0.742h3.087v23.992c0,1.104,0.896,2,2,2h7.087c1.104,0,2-0.896,2-2V72.083h5.244v23.992
			c0,1.104,0.896,2,2,2h7.087c1.104,0,2-0.896,2-2V72.083h3.089c0.007-0.001,0.013-0.001,0.02,0c1.104,0,2-0.896,2-2
			c0-0.241-0.043-0.476-0.122-0.69l-4.986-23.355V40.47l7.766,11.622c0.614,0.918,1.855,1.164,2.774,0.553l4.436-2.964
			c0.441-0.295,0.747-0.753,0.851-1.273C78.674,47.887,78.566,47.347,78.272,46.905z"/>
	</g>
</g>
<g>
</g>
<g>
</g>
<g>
</g>
<g>
</g>
<g>
</g>
<g>
</g>
<g>
</g>
<g>
</g>
<g>
</g>
<g>
</g>
<g>
</g>
<g>
</g>
<g>
</g>
<g>
</g>
<g>
</g>
</svg>
