<?xml version="1.0" encoding="iso-8859-1"?>
<!-- Generator: Adobe Illustrator 16.0.0, SVG Export Plug-In . SVG Version: 6.00 Build 0)  -->
<!DOCTYPE svg PUBLIC "-//W3C//DTD SVG 1.1//EN" "http://www.w3.org/Graphics/SVG/1.1/DTD/svg11.dtd">
<svg version="1.1" id="Capa_1" xmlns="http://www.w3.org/2000/svg" xmlns:xlink="http://www.w3.org/1999/xlink" x="0px" y="0px"
	 width="97.987px" height="97.987px" viewBox="0 0 97.987 97.987" style="enable-background:new 0 0 97.987 97.987;"
	 xml:space="preserve">
<g>
	<path d="M97.105,21.354c-0.176-0.698-0.714-1.247-1.408-1.438c-0.69-0.191-1.437,0.004-1.944,0.514L78.511,35.67L62.303,19.46
		L77.54,4.221c0.51-0.509,0.706-1.252,0.515-1.946c-0.191-0.694-0.742-1.231-1.439-1.407c-2.264-0.57-4.599-0.858-6.939-0.858
		c-7.544,0-14.634,2.935-19.963,8.263c-7.48,7.479-10.154,18.826-6.813,28.908L3.699,76.375C-1.233,81.31-1.232,89.338,3.7,94.271
		c2.391,2.391,5.568,3.706,8.947,3.706c3.38,0,6.558-1.315,8.947-3.706L60.79,55.074l0,0c2.889,0.959,5.901,1.444,8.956,1.444
		c7.541,0,14.627-2.933,19.953-8.258C96.802,41.159,99.569,31.1,97.105,21.354z"/>
</g>
<g>
</g>
<g>
</g>
<g>
</g>
<g>
</g>
<g>
</g>
<g>
</g>
<g>
</g>
<g>
</g>
<g>
</g>
<g>
</g>
<g>
</g>
<g>
</g>
<g>
</g>
<g>
</g>
<g>
</g>
</svg>
