<?xml version="1.0" encoding="iso-8859-1"?>
<!-- Generator: Adobe Illustrator 16.0.0, SVG Export Plug-In . SVG Version: 6.00 Build 0)  -->
<!DOCTYPE svg PUBLIC "-//W3C//DTD SVG 1.1//EN" "http://www.w3.org/Graphics/SVG/1.1/DTD/svg11.dtd">
<svg version="1.1" id="Capa_1" xmlns="http://www.w3.org/2000/svg" xmlns:xlink="http://www.w3.org/1999/xlink" x="0px" y="0px"
	 width="96.992px" height="96.992px" viewBox="0 0 96.992 96.992" style="enable-background:new 0 0 96.992 96.992;"
	 xml:space="preserve">
<g>
	<path d="M82.297,17.002L66.028,0.732C65.559,0.263,64.924,0,64.26,0H16.463c-1.381,0-2.5,1.119-2.5,2.5v91.992
		c0,1.381,1.119,2.5,2.5,2.5h64.066c1.381,0,2.5-1.119,2.5-2.5V18.769C83.029,18.105,82.766,17.471,82.297,17.002z M69.829,32.683
		c0,1.104-0.896,2-2,2h-5.746c-0.585,0.742-1.914,2.436-3.03,3.867l-6.851,8.759L63.376,63.87h4.453c1.104,0,2,0.896,2,2v0.765
		c0,1.104-0.896,2-2,2H52.701c-1.104,0-2-0.896-2-2V65.87c0-1.104,0.896-2,2-2h1.99l-7.137-10.711L38.99,63.809h5.301
		c1.104,0,2,0.896,2,2v0.766c0,1.104-0.896,2-2,2H29.163c-1.104,0-2-0.896-2-2v-0.766c0-1.104,0.896-2,2-2h4.614L45.192,49.5
		L34.935,34.622h-4.617c-1.104,0-2-0.896-2-2v-0.765c0-1.104,0.896-2,2-2H45.44c1.103,0,1.997,0.893,2,1.995l0.001,0.48
		c0.014,0.095,0.021,0.19,0.021,0.289c0,1.104-0.895,2-2,2c-0.005,0.001-0.013,0.001-0.02,0h-2.086l6.3,9.01l6.997-8.949h-3.952
		c-1.104,0-2-0.896-2-2v-0.765c0-1.104,0.896-2,2-2h15.128c1.104,0,2,0.896,2,2V32.683z M62.051,22.342
		c-0.337,0-0.658-0.133-0.896-0.371c-0.237-0.238-0.372-0.561-0.372-0.897l0.002-15.126L77.18,22.343L62.051,22.342L62.051,22.342z"
		/>
</g>
<g>
</g>
<g>
</g>
<g>
</g>
<g>
</g>
<g>
</g>
<g>
</g>
<g>
</g>
<g>
</g>
<g>
</g>
<g>
</g>
<g>
</g>
<g>
</g>
<g>
</g>
<g>
</g>
<g>
</g>
</svg>
