<?xml version="1.0" encoding="iso-8859-1"?>
<!-- Generator: Adobe Illustrator 16.0.0, SVG Export Plug-In . SVG Version: 6.00 Build 0)  -->
<!DOCTYPE svg PUBLIC "-//W3C//DTD SVG 1.1//EN" "http://www.w3.org/Graphics/SVG/1.1/DTD/svg11.dtd">
<svg version="1.1" id="Capa_1" xmlns="http://www.w3.org/2000/svg" xmlns:xlink="http://www.w3.org/1999/xlink" x="0px" y="0px"
	 width="98.253px" height="98.253px" viewBox="0 0 98.253 98.253" style="enable-background:new 0 0 98.253 98.253;"
	 xml:space="preserve">
<g>
	<g>
		<path d="M95.893,84.497L63.41,52.015c-1.93-1.929-4.592-2.671-7.088-2.235c9.044-12.216,8.035-29.584-3.026-40.647
			c-12.177-12.176-31.988-12.176-44.164,0c-12.176,12.175-12.176,31.987,0,44.162c11.063,11.063,28.432,12.072,40.646,3.03
			c-0.434,2.496,0.308,5.156,2.236,7.086l32.482,32.48c3.146,3.147,8.249,3.149,11.396,0.002S99.039,87.644,95.893,84.497z
			 M45.603,45.603c-7.935,7.935-20.844,7.934-28.777,0c-7.935-7.934-7.936-20.844,0-28.777c7.934-7.935,20.844-7.935,28.777,0
			C53.536,24.758,53.536,37.669,45.603,45.603z"/>
		<path d="M14.382,27.411v7.266c0,0.423,0.343,0.765,0.766,0.765h32.123c0.423,0,0.766-0.342,0.766-0.765v-7.266
			c0-0.423-0.343-0.765-0.766-0.765H15.147C14.725,26.646,14.382,26.988,14.382,27.411z"/>
	</g>
</g>
<g>
</g>
<g>
</g>
<g>
</g>
<g>
</g>
<g>
</g>
<g>
</g>
<g>
</g>
<g>
</g>
<g>
</g>
<g>
</g>
<g>
</g>
<g>
</g>
<g>
</g>
<g>
</g>
<g>
</g>
</svg>
